M48
; DRILL file {KiCad (6.0.0)} date Thu Jan 20 15:10:57 2022
; FORMAT={-:-/ absolute / metric / decimal}
; #@! TF.CreationDate,2022-01-20T15:10:57+01:00
; #@! TF.GenerationSoftware,Kicad,Pcbnew,(6.0.0)
; #@! TF.FileFunction,Plated,1,2,PTH
FMAT,2
METRIC
; #@! TA.AperFunction,Plated,PTH,ViaDrill
T1C0.400
; #@! TA.AperFunction,Plated,PTH,ComponentDrill
T2C0.762
; #@! TA.AperFunction,Plated,PTH,ComponentDrill
T3C0.800
; #@! TA.AperFunction,Plated,PTH,ComponentDrill
T4C0.900
; #@! TA.AperFunction,Plated,PTH,ComponentDrill
T5C1.000
; #@! TA.AperFunction,Plated,PTH,ComponentDrill
T6C1.300
; #@! TA.AperFunction,Plated,PTH,ViaDrill
T7C3.500
; #@! TA.AperFunction,Plated,PTH,ComponentDrill
T8C25.000
%
G90
G05
T1
X44.501Y-64.567
X54.508Y-73.457
X54.836Y-64.442
X73.914Y-73.406
X96.601Y-64.879
X98.899Y-64.946
X103.946Y-61.187
X105.238Y-63.369
X115.133Y-69.427
X138.213Y-55.573
X154.363Y-70.333
X156.236Y-67.126
X156.426Y-68.365
X157.209Y-66.4
X167.729Y-68.114
T2
X29.122Y-73.431
X31.662Y-73.431
X34.203Y-73.431
X36.742Y-73.431
X39.282Y-73.431
X41.822Y-73.431
X44.362Y-73.431
X46.902Y-73.431
X49.442Y-73.431
X51.982Y-73.431
X95.162Y-73.431
X97.703Y-73.431
X100.242Y-73.431
X102.782Y-73.431
X105.322Y-73.431
X107.862Y-73.431
X110.402Y-73.431
X112.942Y-73.431
X115.483Y-73.431
X118.022Y-73.431
X123.335Y-73.431
X125.875Y-73.431
X128.415Y-73.431
X130.956Y-73.431
X133.495Y-73.431
X136.035Y-73.431
X138.576Y-73.431
X141.115Y-73.431
X142.332Y-83.896
X142.332Y-86.436
X142.332Y-88.976
X143.655Y-73.431
X146.195Y-73.431
X147.412Y-83.896
X147.412Y-86.436
X147.412Y-88.976
X156.864Y-83.896
X156.864Y-86.436
X156.864Y-88.976
X161.944Y-83.896
X161.944Y-86.436
X161.944Y-88.976
X171.396Y-83.896
X171.396Y-86.436
X171.396Y-88.976
X176.476Y-83.896
X176.476Y-86.436
X176.476Y-88.976
X185.928Y-83.896
X185.928Y-86.436
X185.928Y-88.976
X189.375Y-73.431
X191.008Y-83.896
X191.008Y-86.436
X191.008Y-88.976
X191.915Y-73.431
X194.456Y-73.431
X196.995Y-73.431
X199.535Y-73.431
X202.075Y-73.431
X204.615Y-73.431
X207.155Y-73.431
X209.695Y-73.431
X212.236Y-73.431
T3
X78.273Y-61.209
X78.273Y-71.369
X80.813Y-61.209
X80.813Y-71.369
X83.353Y-61.209
X83.353Y-71.369
X85.893Y-61.209
X85.893Y-71.369
X102.809Y-54.305
X105.349Y-54.305
X107.889Y-54.305
X110.429Y-54.305
X112.969Y-54.305
X115.509Y-54.305
X118.049Y-54.305
X120.589Y-54.305
X123.129Y-54.305
X131.674Y-55.524
X131.674Y-60.524
X151.587Y-55.474
X151.587Y-60.474
X156.312Y-78.689
X158.852Y-78.689
X161.392Y-78.689
X163.932Y-78.689
X166.472Y-78.689
X169.012Y-78.689
X171.501Y-55.524
X171.501Y-60.524
X171.552Y-78.689
X174.092Y-78.689
X176.632Y-78.689
X233.959Y-85.09
X236.499Y-85.09
X239.039Y-85.09
X241.579Y-85.065
X243.942Y-84.912
T4
X266.76Y-56.021
X269.3Y-56.021
T5
X32.156Y-49.53
X32.156Y-52.07
X32.156Y-54.61
X32.156Y-57.15
X43.681Y-49.479
X46.221Y-49.479
X48.761Y-49.479
X51.301Y-49.479
X53.841Y-49.479
X56.381Y-49.479
X64.211Y-49.53
X66.751Y-49.53
X69.291Y-49.53
X71.831Y-49.53
X78.918Y-49.606
X81.458Y-49.606
X83.998Y-49.606
X86.538Y-49.606
X143.256Y-93.878
X145.796Y-93.878
X148.336Y-93.878
X150.876Y-93.878
X153.416Y-93.878
X155.956Y-93.878
X180.094Y-49.318
X180.094Y-67.318
X213.694Y-55.318
X213.694Y-61.318
X223.012Y-48.768
X223.012Y-51.308
X259.334Y-79.248
X259.334Y-81.788
T6
X228.879Y-85.09
T7
X22.123Y-49.733
X22.123Y-92.913
X272.542Y-49.225
X272.542Y-92.913
T8
X236.474Y-69.85
T0
M30
