%FSLAX45Y45*%
G04 Gerber Fmt 4.5, Leading zero omitted, Abs format (unit mm)*
G04 Created by KiCad (PCBNEW (6.0.0)) date 2022-01-20 15:11:22*
%MOMM*%
%LPD*%
G01*
G04 APERTURE LIST*
%TA.AperFunction,Profile*%
%ADD10C,0.200000*%
%TD*%
%TA.AperFunction,Profile*%
%ADD11C,0.100000*%
%TD*%
%ADD12C,0.200000*%
G04 APERTURE END LIST*
D10*
X27254200Y-9738360D02*
X13078460Y-9738360D01*
D11*
X2219960Y-4500880D02*
G75*
G03*
X1757623Y-4958051I-5137J-457171D01*
G01*
X2687320Y-9738360D02*
X2214880Y-9738360D01*
X2687320Y-9738360D02*
X2684780Y-7627620D01*
X27254200Y-9738360D02*
G75*
G03*
X27701240Y-9291320I0J447040D01*
G01*
X2684780Y-7627620D02*
X13078460Y-7627620D01*
D10*
X27696160Y-4907280D02*
X27701240Y-9291320D01*
D11*
X1757680Y-9276080D02*
G75*
G03*
X2214880Y-9738360I462308J0D01*
G01*
X27432000Y-7213600D02*
X27432000Y-8813800D01*
X26212800Y-8813800D02*
X26212800Y-7213600D01*
X13078460Y-7627620D02*
X13078460Y-9738360D01*
X27696160Y-4907280D02*
G75*
G03*
X27259280Y-4500880I-407464J0D01*
G01*
X26212800Y-7213600D02*
X27432000Y-7213600D01*
D10*
X2219960Y-4500880D02*
X27259280Y-4500880D01*
X1757680Y-9276080D02*
X1757623Y-4958051D01*
D11*
X27432000Y-8813800D02*
X26212800Y-8813800D01*
D12*
X2005242Y-10058836D02*
X2005242Y-9858836D01*
X2052861Y-9858836D01*
X2081433Y-9868360D01*
X2100480Y-9887408D01*
X2110004Y-9906455D01*
X2119528Y-9944550D01*
X2119528Y-9973122D01*
X2110004Y-10011217D01*
X2100480Y-10030265D01*
X2081433Y-10049312D01*
X2052861Y-10058836D01*
X2005242Y-10058836D01*
X2205242Y-10058836D02*
X2205242Y-9925503D01*
X2205242Y-9963598D02*
X2214766Y-9944550D01*
X2224290Y-9935027D01*
X2243337Y-9925503D01*
X2262385Y-9925503D01*
X2329052Y-10058836D02*
X2329052Y-9925503D01*
X2329052Y-9858836D02*
X2319528Y-9868360D01*
X2329052Y-9877884D01*
X2338576Y-9868360D01*
X2329052Y-9858836D01*
X2329052Y-9877884D01*
X2452861Y-10058836D02*
X2433814Y-10049312D01*
X2424290Y-10030265D01*
X2424290Y-9858836D01*
X2557623Y-10058836D02*
X2538576Y-10049312D01*
X2529052Y-10030265D01*
X2529052Y-9858836D01*
X2786195Y-10058836D02*
X2786195Y-9858836D01*
X2852861Y-10001693D01*
X2919528Y-9858836D01*
X2919528Y-10058836D01*
X3100480Y-10058836D02*
X3100480Y-9954074D01*
X3090956Y-9935027D01*
X3071909Y-9925503D01*
X3033814Y-9925503D01*
X3014766Y-9935027D01*
X3100480Y-10049312D02*
X3081433Y-10058836D01*
X3033814Y-10058836D01*
X3014766Y-10049312D01*
X3005242Y-10030265D01*
X3005242Y-10011217D01*
X3014766Y-9992170D01*
X3033814Y-9982646D01*
X3081433Y-9982646D01*
X3100480Y-9973122D01*
X3195718Y-9925503D02*
X3195718Y-10125503D01*
X3195718Y-9935027D02*
X3214766Y-9925503D01*
X3252861Y-9925503D01*
X3271909Y-9935027D01*
X3281433Y-9944550D01*
X3290956Y-9963598D01*
X3290956Y-10020741D01*
X3281433Y-10039789D01*
X3271909Y-10049312D01*
X3252861Y-10058836D01*
X3214766Y-10058836D01*
X3195718Y-10049312D01*
X3376671Y-10039789D02*
X3386195Y-10049312D01*
X3376671Y-10058836D01*
X3367147Y-10049312D01*
X3376671Y-10039789D01*
X3376671Y-10058836D01*
X3376671Y-9935027D02*
X3386195Y-9944550D01*
X3376671Y-9954074D01*
X3367147Y-9944550D01*
X3376671Y-9935027D01*
X3376671Y-9954074D01*
M02*
