%FSLAX45Y45*%
G04 Gerber Fmt 4.5, Leading zero omitted, Abs format (unit mm)*
G04 Created by KiCad (PCBNEW (6.0.0)) date 2022-01-20 15:11:22*
%MOMM*%
%LPD*%
G01*
G04 APERTURE LIST*
%TA.AperFunction,Profile*%
%ADD10C,0.200000*%
%TD*%
%TA.AperFunction,Profile*%
%ADD11C,0.100000*%
%TD*%
%ADD12C,0.200000*%
%ADD13C,0.040000*%
%ADD14C,0.076200*%
%ADD15C,0.080000*%
%ADD16C,0.090000*%
%ADD17C,0.100000*%
%ADD18C,0.130000*%
%ADD19C,0.350000*%
%ADD20C,2.500000*%
G04 APERTURE END LIST*
D10*
X27254200Y-9738360D02*
X13078460Y-9738360D01*
D11*
X2219960Y-4500880D02*
G75*
G03*
X1757623Y-4958051I-5137J-457171D01*
G01*
X2687320Y-9738360D02*
X2214880Y-9738360D01*
X2687320Y-9738360D02*
X2684780Y-7627620D01*
X27254200Y-9738360D02*
G75*
G03*
X27701240Y-9291320I0J447040D01*
G01*
X2684780Y-7627620D02*
X13078460Y-7627620D01*
D10*
X27696160Y-4907280D02*
X27701240Y-9291320D01*
D11*
X1757680Y-9276080D02*
G75*
G03*
X2214880Y-9738360I462308J0D01*
G01*
X27432000Y-7213600D02*
X27432000Y-8813800D01*
X26212800Y-8813800D02*
X26212800Y-7213600D01*
X13078460Y-7627620D02*
X13078460Y-9738360D01*
X27696160Y-4907280D02*
G75*
G03*
X27259280Y-4500880I-407464J0D01*
G01*
X26212800Y-7213600D02*
X27432000Y-7213600D01*
D10*
X2219960Y-4500880D02*
X27259280Y-4500880D01*
X1757680Y-9276080D02*
X1757623Y-4958051D01*
D11*
X27432000Y-8813800D02*
X26212800Y-8813800D01*
D12*
D13*
X4430080Y-6436680D02*
X4470080Y-6476680D01*
X4470080Y-6436680D02*
X4430080Y-6476680D01*
X5430840Y-7325680D02*
X5470840Y-7365680D01*
X5470840Y-7325680D02*
X5430840Y-7365680D01*
X5463620Y-6424160D02*
X5503620Y-6464160D01*
X5503620Y-6424160D02*
X5463620Y-6464160D01*
X7371400Y-7320600D02*
X7411400Y-7360600D01*
X7411400Y-7320600D02*
X7371400Y-7360600D01*
X9640140Y-6467890D02*
X9680140Y-6507890D01*
X9680140Y-6467890D02*
X9640140Y-6507890D01*
X9869900Y-6474570D02*
X9909900Y-6514570D01*
X9909900Y-6474570D02*
X9869900Y-6514570D01*
X10374560Y-6098660D02*
X10414560Y-6138660D01*
X10414560Y-6098660D02*
X10374560Y-6138660D01*
X10503780Y-6316890D02*
X10543780Y-6356890D01*
X10543780Y-6316890D02*
X10503780Y-6356890D01*
X11493300Y-6922730D02*
X11533300Y-6962730D01*
X11533300Y-6922730D02*
X11493300Y-6962730D01*
X13801300Y-5537320D02*
X13841300Y-5577320D01*
X13841300Y-5537320D02*
X13801300Y-5577320D01*
X15416350Y-7013340D02*
X15456350Y-7053340D01*
X15456350Y-7013340D02*
X15416350Y-7053340D01*
X15603560Y-6692550D02*
X15643560Y-6732550D01*
X15643560Y-6692550D02*
X15603560Y-6732550D01*
X15622580Y-6816540D02*
X15662580Y-6856540D01*
X15662580Y-6816540D02*
X15622580Y-6856540D01*
X15700910Y-6620020D02*
X15740910Y-6660020D01*
X15740910Y-6620020D02*
X15700910Y-6660020D01*
X16752940Y-6791450D02*
X16792940Y-6831450D01*
X16792940Y-6791450D02*
X16752940Y-6831450D01*
D14*
X2950350Y-7343140D02*
G75*
G03*
X2950350Y-7343140I-38100J0D01*
G01*
X3204350Y-7343140D02*
G75*
G03*
X3204350Y-7343140I-38100J0D01*
G01*
X3458350Y-7343140D02*
G75*
G03*
X3458350Y-7343140I-38100J0D01*
G01*
X3712350Y-7343140D02*
G75*
G03*
X3712350Y-7343140I-38100J0D01*
G01*
X3966350Y-7343140D02*
G75*
G03*
X3966350Y-7343140I-38100J0D01*
G01*
X4220350Y-7343140D02*
G75*
G03*
X4220350Y-7343140I-38100J0D01*
G01*
X4474350Y-7343140D02*
G75*
G03*
X4474350Y-7343140I-38100J0D01*
G01*
X4728350Y-7343140D02*
G75*
G03*
X4728350Y-7343140I-38100J0D01*
G01*
X4982350Y-7343140D02*
G75*
G03*
X4982350Y-7343140I-38100J0D01*
G01*
X5236350Y-7343140D02*
G75*
G03*
X5236350Y-7343140I-38100J0D01*
G01*
X9554350Y-7343140D02*
G75*
G03*
X9554350Y-7343140I-38100J0D01*
G01*
X9808350Y-7343140D02*
G75*
G03*
X9808350Y-7343140I-38100J0D01*
G01*
X10062350Y-7343140D02*
G75*
G03*
X10062350Y-7343140I-38100J0D01*
G01*
X10316350Y-7343140D02*
G75*
G03*
X10316350Y-7343140I-38100J0D01*
G01*
X10570350Y-7343140D02*
G75*
G03*
X10570350Y-7343140I-38100J0D01*
G01*
X10824350Y-7343140D02*
G75*
G03*
X10824350Y-7343140I-38100J0D01*
G01*
X11078350Y-7343140D02*
G75*
G03*
X11078350Y-7343140I-38100J0D01*
G01*
X11332350Y-7343140D02*
G75*
G03*
X11332350Y-7343140I-38100J0D01*
G01*
X11586350Y-7343140D02*
G75*
G03*
X11586350Y-7343140I-38100J0D01*
G01*
X11840350Y-7343140D02*
G75*
G03*
X11840350Y-7343140I-38100J0D01*
G01*
X12371650Y-7343140D02*
G75*
G03*
X12371650Y-7343140I-38100J0D01*
G01*
X12625650Y-7343140D02*
G75*
G03*
X12625650Y-7343140I-38100J0D01*
G01*
X12879650Y-7343140D02*
G75*
G03*
X12879650Y-7343140I-38100J0D01*
G01*
X13133650Y-7343140D02*
G75*
G03*
X13133650Y-7343140I-38100J0D01*
G01*
X13387650Y-7343140D02*
G75*
G03*
X13387650Y-7343140I-38100J0D01*
G01*
X13641650Y-7343140D02*
G75*
G03*
X13641650Y-7343140I-38100J0D01*
G01*
X13895650Y-7343140D02*
G75*
G03*
X13895650Y-7343140I-38100J0D01*
G01*
X14149650Y-7343140D02*
G75*
G03*
X14149650Y-7343140I-38100J0D01*
G01*
X14271330Y-8389620D02*
G75*
G03*
X14271330Y-8389620I-38100J0D01*
G01*
X14271330Y-8643620D02*
G75*
G03*
X14271330Y-8643620I-38100J0D01*
G01*
X14271330Y-8897620D02*
G75*
G03*
X14271330Y-8897620I-38100J0D01*
G01*
X14403650Y-7343140D02*
G75*
G03*
X14403650Y-7343140I-38100J0D01*
G01*
X14657650Y-7343140D02*
G75*
G03*
X14657650Y-7343140I-38100J0D01*
G01*
X14779330Y-8389620D02*
G75*
G03*
X14779330Y-8389620I-38100J0D01*
G01*
X14779330Y-8643620D02*
G75*
G03*
X14779330Y-8643620I-38100J0D01*
G01*
X14779330Y-8897620D02*
G75*
G03*
X14779330Y-8897620I-38100J0D01*
G01*
X15724520Y-8389620D02*
G75*
G03*
X15724520Y-8389620I-38100J0D01*
G01*
X15724520Y-8643620D02*
G75*
G03*
X15724520Y-8643620I-38100J0D01*
G01*
X15724520Y-8897620D02*
G75*
G03*
X15724520Y-8897620I-38100J0D01*
G01*
X16232520Y-8389620D02*
G75*
G03*
X16232520Y-8389620I-38100J0D01*
G01*
X16232520Y-8643620D02*
G75*
G03*
X16232520Y-8643620I-38100J0D01*
G01*
X16232520Y-8897620D02*
G75*
G03*
X16232520Y-8897620I-38100J0D01*
G01*
X17177710Y-8389620D02*
G75*
G03*
X17177710Y-8389620I-38100J0D01*
G01*
X17177710Y-8643620D02*
G75*
G03*
X17177710Y-8643620I-38100J0D01*
G01*
X17177710Y-8897620D02*
G75*
G03*
X17177710Y-8897620I-38100J0D01*
G01*
X17685710Y-8389620D02*
G75*
G03*
X17685710Y-8389620I-38100J0D01*
G01*
X17685710Y-8643620D02*
G75*
G03*
X17685710Y-8643620I-38100J0D01*
G01*
X17685710Y-8897620D02*
G75*
G03*
X17685710Y-8897620I-38100J0D01*
G01*
X18630900Y-8389620D02*
G75*
G03*
X18630900Y-8389620I-38100J0D01*
G01*
X18630900Y-8643620D02*
G75*
G03*
X18630900Y-8643620I-38100J0D01*
G01*
X18630900Y-8897620D02*
G75*
G03*
X18630900Y-8897620I-38100J0D01*
G01*
X18975650Y-7343140D02*
G75*
G03*
X18975650Y-7343140I-38100J0D01*
G01*
X19138900Y-8389620D02*
G75*
G03*
X19138900Y-8389620I-38100J0D01*
G01*
X19138900Y-8643620D02*
G75*
G03*
X19138900Y-8643620I-38100J0D01*
G01*
X19138900Y-8897620D02*
G75*
G03*
X19138900Y-8897620I-38100J0D01*
G01*
X19229650Y-7343140D02*
G75*
G03*
X19229650Y-7343140I-38100J0D01*
G01*
X19483650Y-7343140D02*
G75*
G03*
X19483650Y-7343140I-38100J0D01*
G01*
X19737650Y-7343140D02*
G75*
G03*
X19737650Y-7343140I-38100J0D01*
G01*
X19991650Y-7343140D02*
G75*
G03*
X19991650Y-7343140I-38100J0D01*
G01*
X20245650Y-7343140D02*
G75*
G03*
X20245650Y-7343140I-38100J0D01*
G01*
X20499650Y-7343140D02*
G75*
G03*
X20499650Y-7343140I-38100J0D01*
G01*
X20753650Y-7343140D02*
G75*
G03*
X20753650Y-7343140I-38100J0D01*
G01*
X21007650Y-7343140D02*
G75*
G03*
X21007650Y-7343140I-38100J0D01*
G01*
X21261650Y-7343140D02*
G75*
G03*
X21261650Y-7343140I-38100J0D01*
G01*
D15*
X7827280Y-6080900D02*
X7827280Y-6160900D01*
X7787280Y-6120900D02*
X7867280Y-6120900D01*
X7827280Y-7096900D02*
X7827280Y-7176900D01*
X7787280Y-7136900D02*
X7867280Y-7136900D01*
X8081280Y-6080900D02*
X8081280Y-6160900D01*
X8041280Y-6120900D02*
X8121280Y-6120900D01*
X8081280Y-7096900D02*
X8081280Y-7176900D01*
X8041280Y-7136900D02*
X8121280Y-7136900D01*
X8335280Y-6080900D02*
X8335280Y-6160900D01*
X8295280Y-6120900D02*
X8375280Y-6120900D01*
X8335280Y-7096900D02*
X8335280Y-7176900D01*
X8295280Y-7136900D02*
X8375280Y-7136900D01*
X8589280Y-6080900D02*
X8589280Y-6160900D01*
X8549280Y-6120900D02*
X8629280Y-6120900D01*
X8589280Y-7096900D02*
X8589280Y-7176900D01*
X8549280Y-7136900D02*
X8629280Y-7136900D01*
X10280930Y-5390520D02*
X10280930Y-5470520D01*
X10240930Y-5430520D02*
X10320930Y-5430520D01*
X10534930Y-5390520D02*
X10534930Y-5470520D01*
X10494930Y-5430520D02*
X10574930Y-5430520D01*
X10788930Y-5390520D02*
X10788930Y-5470520D01*
X10748930Y-5430520D02*
X10828930Y-5430520D01*
X11042930Y-5390520D02*
X11042930Y-5470520D01*
X11002930Y-5430520D02*
X11082930Y-5430520D01*
X11296930Y-5390520D02*
X11296930Y-5470520D01*
X11256930Y-5430520D02*
X11336930Y-5430520D01*
X11550930Y-5390520D02*
X11550930Y-5470520D01*
X11510930Y-5430520D02*
X11590930Y-5430520D01*
X11804930Y-5390520D02*
X11804930Y-5470520D01*
X11764930Y-5430520D02*
X11844930Y-5430520D01*
X12058930Y-5390520D02*
X12058930Y-5470520D01*
X12018930Y-5430520D02*
X12098930Y-5430520D01*
X12312930Y-5390520D02*
X12312930Y-5470520D01*
X12272930Y-5430520D02*
X12352930Y-5430520D01*
X13167360Y-5512440D02*
X13167360Y-5592440D01*
X13127360Y-5552440D02*
X13207360Y-5552440D01*
X13167360Y-6012440D02*
X13167360Y-6092440D01*
X13127360Y-6052440D02*
X13207360Y-6052440D01*
X15158720Y-5507360D02*
X15158720Y-5587360D01*
X15118720Y-5547360D02*
X15198720Y-5547360D01*
X15158720Y-6007360D02*
X15158720Y-6087360D01*
X15118720Y-6047360D02*
X15198720Y-6047360D01*
X15631160Y-7828920D02*
X15631160Y-7908920D01*
X15591160Y-7868920D02*
X15671160Y-7868920D01*
X15885160Y-7828920D02*
X15885160Y-7908920D01*
X15845160Y-7868920D02*
X15925160Y-7868920D01*
X16139160Y-7828920D02*
X16139160Y-7908920D01*
X16099160Y-7868920D02*
X16179160Y-7868920D01*
X16393160Y-7828920D02*
X16393160Y-7908920D01*
X16353160Y-7868920D02*
X16433160Y-7868920D01*
X16647160Y-7828920D02*
X16647160Y-7908920D01*
X16607160Y-7868920D02*
X16687160Y-7868920D01*
X16901160Y-7828920D02*
X16901160Y-7908920D01*
X16861160Y-7868920D02*
X16941160Y-7868920D01*
X17150080Y-5512440D02*
X17150080Y-5592440D01*
X17110080Y-5552440D02*
X17190080Y-5552440D01*
X17150080Y-6012440D02*
X17150080Y-6092440D01*
X17110080Y-6052440D02*
X17190080Y-6052440D01*
X17155160Y-7828920D02*
X17155160Y-7908920D01*
X17115160Y-7868920D02*
X17195160Y-7868920D01*
X17409160Y-7828920D02*
X17409160Y-7908920D01*
X17369160Y-7868920D02*
X17449160Y-7868920D01*
X17663160Y-7828920D02*
X17663160Y-7908920D01*
X17623160Y-7868920D02*
X17703160Y-7868920D01*
X23395940Y-8469000D02*
X23395940Y-8549000D01*
X23355940Y-8509000D02*
X23435940Y-8509000D01*
X23649940Y-8469000D02*
X23649940Y-8549000D01*
X23609940Y-8509000D02*
X23689940Y-8509000D01*
X23903940Y-8469000D02*
X23903940Y-8549000D01*
X23863940Y-8509000D02*
X23943940Y-8509000D01*
X24157940Y-8466460D02*
X24157940Y-8546460D01*
X24117940Y-8506460D02*
X24197940Y-8506460D01*
X24394160Y-8451220D02*
X24394160Y-8531220D01*
X24354160Y-8491220D02*
X24434160Y-8491220D01*
D16*
X26707870Y-5633880D02*
X26707870Y-5570240D01*
X26644230Y-5570240D01*
X26644230Y-5633880D01*
X26707870Y-5633880D01*
X26961870Y-5633880D02*
X26961870Y-5570240D01*
X26898230Y-5570240D01*
X26898230Y-5633880D01*
X26961870Y-5633880D01*
D17*
X3215640Y-5003000D02*
X3265640Y-4953000D01*
X3215640Y-4903000D01*
X3165640Y-4953000D01*
X3215640Y-5003000D01*
X3215640Y-5257000D02*
X3265640Y-5207000D01*
X3215640Y-5157000D01*
X3165640Y-5207000D01*
X3215640Y-5257000D01*
X3215640Y-5511000D02*
X3265640Y-5461000D01*
X3215640Y-5411000D01*
X3165640Y-5461000D01*
X3215640Y-5511000D01*
X3215640Y-5765000D02*
X3265640Y-5715000D01*
X3215640Y-5665000D01*
X3165640Y-5715000D01*
X3215640Y-5765000D01*
X4368110Y-4997920D02*
X4418110Y-4947920D01*
X4368110Y-4897920D01*
X4318110Y-4947920D01*
X4368110Y-4997920D01*
X4622110Y-4997920D02*
X4672110Y-4947920D01*
X4622110Y-4897920D01*
X4572110Y-4947920D01*
X4622110Y-4997920D01*
X4876110Y-4997920D02*
X4926110Y-4947920D01*
X4876110Y-4897920D01*
X4826110Y-4947920D01*
X4876110Y-4997920D01*
X5130110Y-4997920D02*
X5180110Y-4947920D01*
X5130110Y-4897920D01*
X5080110Y-4947920D01*
X5130110Y-4997920D01*
X5384110Y-4997920D02*
X5434110Y-4947920D01*
X5384110Y-4897920D01*
X5334110Y-4947920D01*
X5384110Y-4997920D01*
X5638110Y-4997920D02*
X5688110Y-4947920D01*
X5638110Y-4897920D01*
X5588110Y-4947920D01*
X5638110Y-4997920D01*
X6421120Y-5003000D02*
X6471120Y-4953000D01*
X6421120Y-4903000D01*
X6371120Y-4953000D01*
X6421120Y-5003000D01*
X6675120Y-5003000D02*
X6725120Y-4953000D01*
X6675120Y-4903000D01*
X6625120Y-4953000D01*
X6675120Y-5003000D01*
X6929120Y-5003000D02*
X6979120Y-4953000D01*
X6929120Y-4903000D01*
X6879120Y-4953000D01*
X6929120Y-5003000D01*
X7183120Y-5003000D02*
X7233120Y-4953000D01*
X7183120Y-4903000D01*
X7133120Y-4953000D01*
X7183120Y-5003000D01*
X7891780Y-5010620D02*
X7941780Y-4960620D01*
X7891780Y-4910620D01*
X7841780Y-4960620D01*
X7891780Y-5010620D01*
X8145780Y-5010620D02*
X8195780Y-4960620D01*
X8145780Y-4910620D01*
X8095780Y-4960620D01*
X8145780Y-5010620D01*
X8399780Y-5010620D02*
X8449780Y-4960620D01*
X8399780Y-4910620D01*
X8349780Y-4960620D01*
X8399780Y-5010620D01*
X8653780Y-5010620D02*
X8703780Y-4960620D01*
X8653780Y-4910620D01*
X8603780Y-4960620D01*
X8653780Y-5010620D01*
X14325600Y-9437840D02*
X14375600Y-9387840D01*
X14325600Y-9337840D01*
X14275600Y-9387840D01*
X14325600Y-9437840D01*
X14579600Y-9437840D02*
X14629600Y-9387840D01*
X14579600Y-9337840D01*
X14529600Y-9387840D01*
X14579600Y-9437840D01*
X14833600Y-9437840D02*
X14883600Y-9387840D01*
X14833600Y-9337840D01*
X14783600Y-9387840D01*
X14833600Y-9437840D01*
X15087600Y-9437840D02*
X15137600Y-9387840D01*
X15087600Y-9337840D01*
X15037600Y-9387840D01*
X15087600Y-9437840D01*
X15341600Y-9437840D02*
X15391600Y-9387840D01*
X15341600Y-9337840D01*
X15291600Y-9387840D01*
X15341600Y-9437840D01*
X15595600Y-9437840D02*
X15645600Y-9387840D01*
X15595600Y-9337840D01*
X15545600Y-9387840D01*
X15595600Y-9437840D01*
X18009390Y-4981840D02*
X18059390Y-4931840D01*
X18009390Y-4881840D01*
X17959390Y-4931840D01*
X18009390Y-4981840D01*
X18009390Y-6781840D02*
X18059390Y-6731840D01*
X18009390Y-6681840D01*
X17959390Y-6731840D01*
X18009390Y-6781840D01*
X21369390Y-5581840D02*
X21419390Y-5531840D01*
X21369390Y-5481840D01*
X21319390Y-5531840D01*
X21369390Y-5581840D01*
X21369390Y-6181840D02*
X21419390Y-6131840D01*
X21369390Y-6081840D01*
X21319390Y-6131840D01*
X21369390Y-6181840D01*
X22301200Y-4926800D02*
X22351200Y-4876800D01*
X22301200Y-4826800D01*
X22251200Y-4876800D01*
X22301200Y-4926800D01*
X22301200Y-5180800D02*
X22351200Y-5130800D01*
X22301200Y-5080800D01*
X22251200Y-5130800D01*
X22301200Y-5180800D01*
X25933400Y-7974800D02*
X25983400Y-7924800D01*
X25933400Y-7874800D01*
X25883400Y-7924800D01*
X25933400Y-7974800D01*
X25933400Y-8228800D02*
X25983400Y-8178800D01*
X25933400Y-8128800D01*
X25883400Y-8178800D01*
X25933400Y-8228800D01*
D18*
X22822940Y-8444000D02*
X22952940Y-8574000D01*
X22952940Y-8444000D02*
X22822940Y-8574000D01*
X22952940Y-8509000D02*
G75*
G03*
X22952940Y-8509000I-65000J0D01*
G01*
D19*
X2037283Y-4798291D02*
X2387283Y-5148291D01*
X2387283Y-4798291D02*
X2037283Y-5148291D01*
X2212283Y-4798291D02*
X2212283Y-5148291D01*
X2037283Y-4973291D02*
X2387283Y-4973291D01*
X2037340Y-9116320D02*
X2387340Y-9466320D01*
X2387340Y-9116320D02*
X2037340Y-9466320D01*
X2212340Y-9116320D02*
X2212340Y-9466320D01*
X2037340Y-9291320D02*
X2387340Y-9291320D01*
X27079200Y-4747520D02*
X27429200Y-5097520D01*
X27429200Y-4747520D02*
X27079200Y-5097520D01*
X27254200Y-4747520D02*
X27254200Y-5097520D01*
X27079200Y-4922520D02*
X27429200Y-4922520D01*
X27079200Y-9116320D02*
X27429200Y-9466320D01*
X27429200Y-9116320D02*
X27079200Y-9466320D01*
X27254200Y-9116320D02*
X27254200Y-9466320D01*
X27079200Y-9291320D02*
X27429200Y-9291320D01*
D20*
X22397400Y-5735000D02*
X24897400Y-8235000D01*
X24897400Y-5735000D02*
X22397400Y-8235000D01*
X24531292Y-7868892D02*
X24531292Y-6101108D01*
X22763508Y-6101108D01*
X22763508Y-7868892D01*
X24531292Y-7868892D01*
D12*
X2005242Y-10058836D02*
X2005242Y-9858836D01*
X2052861Y-9858836D01*
X2081433Y-9868360D01*
X2100480Y-9887408D01*
X2110004Y-9906455D01*
X2119528Y-9944550D01*
X2119528Y-9973122D01*
X2110004Y-10011217D01*
X2100480Y-10030265D01*
X2081433Y-10049312D01*
X2052861Y-10058836D01*
X2005242Y-10058836D01*
X2205242Y-10058836D02*
X2205242Y-9925503D01*
X2205242Y-9963598D02*
X2214766Y-9944550D01*
X2224290Y-9935027D01*
X2243337Y-9925503D01*
X2262385Y-9925503D01*
X2329052Y-10058836D02*
X2329052Y-9925503D01*
X2329052Y-9858836D02*
X2319528Y-9868360D01*
X2329052Y-9877884D01*
X2338576Y-9868360D01*
X2329052Y-9858836D01*
X2329052Y-9877884D01*
X2452861Y-10058836D02*
X2433814Y-10049312D01*
X2424290Y-10030265D01*
X2424290Y-9858836D01*
X2557623Y-10058836D02*
X2538576Y-10049312D01*
X2529052Y-10030265D01*
X2529052Y-9858836D01*
X2786195Y-10058836D02*
X2786195Y-9858836D01*
X2852861Y-10001693D01*
X2919528Y-9858836D01*
X2919528Y-10058836D01*
X3100480Y-10058836D02*
X3100480Y-9954074D01*
X3090956Y-9935027D01*
X3071909Y-9925503D01*
X3033814Y-9925503D01*
X3014766Y-9935027D01*
X3100480Y-10049312D02*
X3081433Y-10058836D01*
X3033814Y-10058836D01*
X3014766Y-10049312D01*
X3005242Y-10030265D01*
X3005242Y-10011217D01*
X3014766Y-9992170D01*
X3033814Y-9982646D01*
X3081433Y-9982646D01*
X3100480Y-9973122D01*
X3195718Y-9925503D02*
X3195718Y-10125503D01*
X3195718Y-9935027D02*
X3214766Y-9925503D01*
X3252861Y-9925503D01*
X3271909Y-9935027D01*
X3281433Y-9944550D01*
X3290956Y-9963598D01*
X3290956Y-10020741D01*
X3281433Y-10039789D01*
X3271909Y-10049312D01*
X3252861Y-10058836D01*
X3214766Y-10058836D01*
X3195718Y-10049312D01*
X3376671Y-10039789D02*
X3386195Y-10049312D01*
X3376671Y-10058836D01*
X3367147Y-10049312D01*
X3376671Y-10039789D01*
X3376671Y-10058836D01*
X3376671Y-9935027D02*
X3386195Y-9944550D01*
X3376671Y-9954074D01*
X3367147Y-9944550D01*
X3376671Y-9935027D01*
X3376671Y-9954074D01*
D13*
X1707623Y-10368360D02*
X1747623Y-10408360D01*
X1747623Y-10368360D02*
X1707623Y-10408360D01*
D12*
X2043337Y-10278836D02*
X2062385Y-10278836D01*
X2081433Y-10288360D01*
X2090956Y-10297884D01*
X2100480Y-10316931D01*
X2110004Y-10355027D01*
X2110004Y-10402646D01*
X2100480Y-10440741D01*
X2090956Y-10459789D01*
X2081433Y-10469312D01*
X2062385Y-10478836D01*
X2043337Y-10478836D01*
X2024290Y-10469312D01*
X2014766Y-10459789D01*
X2005242Y-10440741D01*
X1995718Y-10402646D01*
X1995718Y-10355027D01*
X2005242Y-10316931D01*
X2014766Y-10297884D01*
X2024290Y-10288360D01*
X2043337Y-10278836D01*
X2195718Y-10459789D02*
X2205242Y-10469312D01*
X2195718Y-10478836D01*
X2186195Y-10469312D01*
X2195718Y-10459789D01*
X2195718Y-10478836D01*
X2376671Y-10345503D02*
X2376671Y-10478836D01*
X2329052Y-10269312D02*
X2281433Y-10412170D01*
X2405242Y-10412170D01*
X2519528Y-10278836D02*
X2538576Y-10278836D01*
X2557623Y-10288360D01*
X2567147Y-10297884D01*
X2576671Y-10316931D01*
X2586195Y-10355027D01*
X2586195Y-10402646D01*
X2576671Y-10440741D01*
X2567147Y-10459789D01*
X2557623Y-10469312D01*
X2538576Y-10478836D01*
X2519528Y-10478836D01*
X2500480Y-10469312D01*
X2490957Y-10459789D01*
X2481433Y-10440741D01*
X2471909Y-10402646D01*
X2471909Y-10355027D01*
X2481433Y-10316931D01*
X2490957Y-10297884D01*
X2500480Y-10288360D01*
X2519528Y-10278836D01*
X2710004Y-10278836D02*
X2729052Y-10278836D01*
X2748099Y-10288360D01*
X2757623Y-10297884D01*
X2767147Y-10316931D01*
X2776671Y-10355027D01*
X2776671Y-10402646D01*
X2767147Y-10440741D01*
X2757623Y-10459789D01*
X2748099Y-10469312D01*
X2729052Y-10478836D01*
X2710004Y-10478836D01*
X2690957Y-10469312D01*
X2681433Y-10459789D01*
X2671909Y-10440741D01*
X2662385Y-10402646D01*
X2662385Y-10355027D01*
X2671909Y-10316931D01*
X2681433Y-10297884D01*
X2690957Y-10288360D01*
X2710004Y-10278836D01*
X2862385Y-10478836D02*
X2862385Y-10345503D01*
X2862385Y-10364550D02*
X2871909Y-10355027D01*
X2890956Y-10345503D01*
X2919528Y-10345503D01*
X2938575Y-10355027D01*
X2948099Y-10374074D01*
X2948099Y-10478836D01*
X2948099Y-10374074D02*
X2957623Y-10355027D01*
X2976671Y-10345503D01*
X3005242Y-10345503D01*
X3024290Y-10355027D01*
X3033814Y-10374074D01*
X3033814Y-10478836D01*
X3129052Y-10478836D02*
X3129052Y-10345503D01*
X3129052Y-10364550D02*
X3138575Y-10355027D01*
X3157623Y-10345503D01*
X3186195Y-10345503D01*
X3205242Y-10355027D01*
X3214766Y-10374074D01*
X3214766Y-10478836D01*
X3214766Y-10374074D02*
X3224290Y-10355027D01*
X3243337Y-10345503D01*
X3271909Y-10345503D01*
X3290956Y-10355027D01*
X3300480Y-10374074D01*
X3300480Y-10478836D01*
X3690956Y-10269312D02*
X3519528Y-10526455D01*
X3948099Y-10278836D02*
X3967147Y-10278836D01*
X3986195Y-10288360D01*
X3995718Y-10297884D01*
X4005242Y-10316931D01*
X4014766Y-10355027D01*
X4014766Y-10402646D01*
X4005242Y-10440741D01*
X3995718Y-10459789D01*
X3986195Y-10469312D01*
X3967147Y-10478836D01*
X3948099Y-10478836D01*
X3929052Y-10469312D01*
X3919528Y-10459789D01*
X3910004Y-10440741D01*
X3900480Y-10402646D01*
X3900480Y-10355027D01*
X3910004Y-10316931D01*
X3919528Y-10297884D01*
X3929052Y-10288360D01*
X3948099Y-10278836D01*
X4100480Y-10459789D02*
X4110004Y-10469312D01*
X4100480Y-10478836D01*
X4090956Y-10469312D01*
X4100480Y-10459789D01*
X4100480Y-10478836D01*
X4233814Y-10278836D02*
X4252861Y-10278836D01*
X4271909Y-10288360D01*
X4281433Y-10297884D01*
X4290957Y-10316931D01*
X4300480Y-10355027D01*
X4300480Y-10402646D01*
X4290957Y-10440741D01*
X4281433Y-10459789D01*
X4271909Y-10469312D01*
X4252861Y-10478836D01*
X4233814Y-10478836D01*
X4214766Y-10469312D01*
X4205242Y-10459789D01*
X4195718Y-10440741D01*
X4186195Y-10402646D01*
X4186195Y-10355027D01*
X4195718Y-10316931D01*
X4205242Y-10297884D01*
X4214766Y-10288360D01*
X4233814Y-10278836D01*
X4490957Y-10478836D02*
X4376671Y-10478836D01*
X4433814Y-10478836D02*
X4433814Y-10278836D01*
X4414766Y-10307408D01*
X4395718Y-10326455D01*
X4376671Y-10335979D01*
X4671909Y-10278836D02*
X4576671Y-10278836D01*
X4567147Y-10374074D01*
X4576671Y-10364550D01*
X4595718Y-10355027D01*
X4643337Y-10355027D01*
X4662385Y-10364550D01*
X4671909Y-10374074D01*
X4681433Y-10393122D01*
X4681433Y-10440741D01*
X4671909Y-10459789D01*
X4662385Y-10469312D01*
X4643337Y-10478836D01*
X4595718Y-10478836D01*
X4576671Y-10469312D01*
X4567147Y-10459789D01*
X4748099Y-10278836D02*
X4881433Y-10278836D01*
X4795718Y-10478836D01*
X4948099Y-10278836D02*
X4948099Y-10316931D01*
X5024290Y-10278836D02*
X5024290Y-10316931D01*
X5319528Y-10555027D02*
X5310004Y-10545503D01*
X5290957Y-10516931D01*
X5281433Y-10497884D01*
X5271909Y-10469312D01*
X5262385Y-10421693D01*
X5262385Y-10383598D01*
X5271909Y-10335979D01*
X5281433Y-10307408D01*
X5290957Y-10288360D01*
X5310004Y-10259789D01*
X5319528Y-10250265D01*
X5500480Y-10478836D02*
X5386195Y-10478836D01*
X5443337Y-10478836D02*
X5443337Y-10278836D01*
X5424290Y-10307408D01*
X5405242Y-10326455D01*
X5386195Y-10335979D01*
X5681433Y-10278836D02*
X5586195Y-10278836D01*
X5576671Y-10374074D01*
X5586195Y-10364550D01*
X5605242Y-10355027D01*
X5652861Y-10355027D01*
X5671909Y-10364550D01*
X5681433Y-10374074D01*
X5690956Y-10393122D01*
X5690956Y-10440741D01*
X5681433Y-10459789D01*
X5671909Y-10469312D01*
X5652861Y-10478836D01*
X5605242Y-10478836D01*
X5586195Y-10469312D01*
X5576671Y-10459789D01*
X5929052Y-10478836D02*
X5929052Y-10278836D01*
X6014766Y-10478836D02*
X6014766Y-10374074D01*
X6005242Y-10355027D01*
X5986195Y-10345503D01*
X5957623Y-10345503D01*
X5938575Y-10355027D01*
X5929052Y-10364550D01*
X6138575Y-10478836D02*
X6119528Y-10469312D01*
X6110004Y-10459789D01*
X6100480Y-10440741D01*
X6100480Y-10383598D01*
X6110004Y-10364550D01*
X6119528Y-10355027D01*
X6138575Y-10345503D01*
X6167147Y-10345503D01*
X6186195Y-10355027D01*
X6195718Y-10364550D01*
X6205242Y-10383598D01*
X6205242Y-10440741D01*
X6195718Y-10459789D01*
X6186195Y-10469312D01*
X6167147Y-10478836D01*
X6138575Y-10478836D01*
X6319528Y-10478836D02*
X6300480Y-10469312D01*
X6290956Y-10450265D01*
X6290956Y-10278836D01*
X6471909Y-10469312D02*
X6452861Y-10478836D01*
X6414766Y-10478836D01*
X6395718Y-10469312D01*
X6386195Y-10450265D01*
X6386195Y-10374074D01*
X6395718Y-10355027D01*
X6414766Y-10345503D01*
X6452861Y-10345503D01*
X6471909Y-10355027D01*
X6481433Y-10374074D01*
X6481433Y-10393122D01*
X6386195Y-10412170D01*
X6557623Y-10469312D02*
X6576671Y-10478836D01*
X6614766Y-10478836D01*
X6633814Y-10469312D01*
X6643337Y-10450265D01*
X6643337Y-10440741D01*
X6633814Y-10421693D01*
X6614766Y-10412170D01*
X6586195Y-10412170D01*
X6567147Y-10402646D01*
X6557623Y-10383598D01*
X6557623Y-10374074D01*
X6567147Y-10355027D01*
X6586195Y-10345503D01*
X6614766Y-10345503D01*
X6633814Y-10355027D01*
X6710004Y-10555027D02*
X6719528Y-10545503D01*
X6738575Y-10516931D01*
X6748099Y-10497884D01*
X6757623Y-10469312D01*
X6767147Y-10421693D01*
X6767147Y-10383598D01*
X6757623Y-10335979D01*
X6748099Y-10307408D01*
X6738575Y-10288360D01*
X6719528Y-10259789D01*
X6710004Y-10250265D01*
D14*
X1747623Y-10652360D02*
G75*
G03*
X1747623Y-10652360I-38100J0D01*
G01*
D12*
X2043337Y-10542836D02*
X2062385Y-10542836D01*
X2081433Y-10552360D01*
X2090956Y-10561884D01*
X2100480Y-10580931D01*
X2110004Y-10619027D01*
X2110004Y-10666646D01*
X2100480Y-10704741D01*
X2090956Y-10723789D01*
X2081433Y-10733312D01*
X2062385Y-10742836D01*
X2043337Y-10742836D01*
X2024290Y-10733312D01*
X2014766Y-10723789D01*
X2005242Y-10704741D01*
X1995718Y-10666646D01*
X1995718Y-10619027D01*
X2005242Y-10580931D01*
X2014766Y-10561884D01*
X2024290Y-10552360D01*
X2043337Y-10542836D01*
X2195718Y-10723789D02*
X2205242Y-10733312D01*
X2195718Y-10742836D01*
X2186195Y-10733312D01*
X2195718Y-10723789D01*
X2195718Y-10742836D01*
X2271909Y-10542836D02*
X2405242Y-10542836D01*
X2319528Y-10742836D01*
X2567147Y-10542836D02*
X2529052Y-10542836D01*
X2510004Y-10552360D01*
X2500480Y-10561884D01*
X2481433Y-10590455D01*
X2471909Y-10628550D01*
X2471909Y-10704741D01*
X2481433Y-10723789D01*
X2490957Y-10733312D01*
X2510004Y-10742836D01*
X2548099Y-10742836D01*
X2567147Y-10733312D01*
X2576671Y-10723789D01*
X2586195Y-10704741D01*
X2586195Y-10657122D01*
X2576671Y-10638074D01*
X2567147Y-10628550D01*
X2548099Y-10619027D01*
X2510004Y-10619027D01*
X2490957Y-10628550D01*
X2481433Y-10638074D01*
X2471909Y-10657122D01*
X2662385Y-10561884D02*
X2671909Y-10552360D01*
X2690957Y-10542836D01*
X2738576Y-10542836D01*
X2757623Y-10552360D01*
X2767147Y-10561884D01*
X2776671Y-10580931D01*
X2776671Y-10599979D01*
X2767147Y-10628550D01*
X2652861Y-10742836D01*
X2776671Y-10742836D01*
X2862385Y-10742836D02*
X2862385Y-10609503D01*
X2862385Y-10628550D02*
X2871909Y-10619027D01*
X2890956Y-10609503D01*
X2919528Y-10609503D01*
X2938575Y-10619027D01*
X2948099Y-10638074D01*
X2948099Y-10742836D01*
X2948099Y-10638074D02*
X2957623Y-10619027D01*
X2976671Y-10609503D01*
X3005242Y-10609503D01*
X3024290Y-10619027D01*
X3033814Y-10638074D01*
X3033814Y-10742836D01*
X3129052Y-10742836D02*
X3129052Y-10609503D01*
X3129052Y-10628550D02*
X3138575Y-10619027D01*
X3157623Y-10609503D01*
X3186195Y-10609503D01*
X3205242Y-10619027D01*
X3214766Y-10638074D01*
X3214766Y-10742836D01*
X3214766Y-10638074D02*
X3224290Y-10619027D01*
X3243337Y-10609503D01*
X3271909Y-10609503D01*
X3290956Y-10619027D01*
X3300480Y-10638074D01*
X3300480Y-10742836D01*
X3690956Y-10533312D02*
X3519528Y-10790455D01*
X3948099Y-10542836D02*
X3967147Y-10542836D01*
X3986195Y-10552360D01*
X3995718Y-10561884D01*
X4005242Y-10580931D01*
X4014766Y-10619027D01*
X4014766Y-10666646D01*
X4005242Y-10704741D01*
X3995718Y-10723789D01*
X3986195Y-10733312D01*
X3967147Y-10742836D01*
X3948099Y-10742836D01*
X3929052Y-10733312D01*
X3919528Y-10723789D01*
X3910004Y-10704741D01*
X3900480Y-10666646D01*
X3900480Y-10619027D01*
X3910004Y-10580931D01*
X3919528Y-10561884D01*
X3929052Y-10552360D01*
X3948099Y-10542836D01*
X4100480Y-10723789D02*
X4110004Y-10733312D01*
X4100480Y-10742836D01*
X4090956Y-10733312D01*
X4100480Y-10723789D01*
X4100480Y-10742836D01*
X4233814Y-10542836D02*
X4252861Y-10542836D01*
X4271909Y-10552360D01*
X4281433Y-10561884D01*
X4290957Y-10580931D01*
X4300480Y-10619027D01*
X4300480Y-10666646D01*
X4290957Y-10704741D01*
X4281433Y-10723789D01*
X4271909Y-10733312D01*
X4252861Y-10742836D01*
X4233814Y-10742836D01*
X4214766Y-10733312D01*
X4205242Y-10723789D01*
X4195718Y-10704741D01*
X4186195Y-10666646D01*
X4186195Y-10619027D01*
X4195718Y-10580931D01*
X4205242Y-10561884D01*
X4214766Y-10552360D01*
X4233814Y-10542836D01*
X4367147Y-10542836D02*
X4490957Y-10542836D01*
X4424290Y-10619027D01*
X4452861Y-10619027D01*
X4471909Y-10628550D01*
X4481433Y-10638074D01*
X4490957Y-10657122D01*
X4490957Y-10704741D01*
X4481433Y-10723789D01*
X4471909Y-10733312D01*
X4452861Y-10742836D01*
X4395718Y-10742836D01*
X4376671Y-10733312D01*
X4367147Y-10723789D01*
X4614766Y-10542836D02*
X4633814Y-10542836D01*
X4652861Y-10552360D01*
X4662385Y-10561884D01*
X4671909Y-10580931D01*
X4681433Y-10619027D01*
X4681433Y-10666646D01*
X4671909Y-10704741D01*
X4662385Y-10723789D01*
X4652861Y-10733312D01*
X4633814Y-10742836D01*
X4614766Y-10742836D01*
X4595718Y-10733312D01*
X4586195Y-10723789D01*
X4576671Y-10704741D01*
X4567147Y-10666646D01*
X4567147Y-10619027D01*
X4576671Y-10580931D01*
X4586195Y-10561884D01*
X4595718Y-10552360D01*
X4614766Y-10542836D01*
X4805242Y-10542836D02*
X4824290Y-10542836D01*
X4843337Y-10552360D01*
X4852861Y-10561884D01*
X4862385Y-10580931D01*
X4871909Y-10619027D01*
X4871909Y-10666646D01*
X4862385Y-10704741D01*
X4852861Y-10723789D01*
X4843337Y-10733312D01*
X4824290Y-10742836D01*
X4805242Y-10742836D01*
X4786195Y-10733312D01*
X4776671Y-10723789D01*
X4767147Y-10704741D01*
X4757623Y-10666646D01*
X4757623Y-10619027D01*
X4767147Y-10580931D01*
X4776671Y-10561884D01*
X4786195Y-10552360D01*
X4805242Y-10542836D01*
X4948099Y-10542836D02*
X4948099Y-10580931D01*
X5024290Y-10542836D02*
X5024290Y-10580931D01*
X5319528Y-10819027D02*
X5310004Y-10809503D01*
X5290957Y-10780931D01*
X5281433Y-10761884D01*
X5271909Y-10733312D01*
X5262385Y-10685693D01*
X5262385Y-10647598D01*
X5271909Y-10599979D01*
X5281433Y-10571408D01*
X5290957Y-10552360D01*
X5310004Y-10523789D01*
X5319528Y-10514265D01*
X5481433Y-10542836D02*
X5443337Y-10542836D01*
X5424290Y-10552360D01*
X5414766Y-10561884D01*
X5395718Y-10590455D01*
X5386195Y-10628550D01*
X5386195Y-10704741D01*
X5395718Y-10723789D01*
X5405242Y-10733312D01*
X5424290Y-10742836D01*
X5462385Y-10742836D01*
X5481433Y-10733312D01*
X5490957Y-10723789D01*
X5500480Y-10704741D01*
X5500480Y-10657122D01*
X5490957Y-10638074D01*
X5481433Y-10628550D01*
X5462385Y-10619027D01*
X5424290Y-10619027D01*
X5405242Y-10628550D01*
X5395718Y-10638074D01*
X5386195Y-10657122D01*
X5671909Y-10609503D02*
X5671909Y-10742836D01*
X5624290Y-10533312D02*
X5576671Y-10676170D01*
X5700480Y-10676170D01*
X5929052Y-10742836D02*
X5929052Y-10542836D01*
X6014766Y-10742836D02*
X6014766Y-10638074D01*
X6005242Y-10619027D01*
X5986195Y-10609503D01*
X5957623Y-10609503D01*
X5938575Y-10619027D01*
X5929052Y-10628550D01*
X6138575Y-10742836D02*
X6119528Y-10733312D01*
X6110004Y-10723789D01*
X6100480Y-10704741D01*
X6100480Y-10647598D01*
X6110004Y-10628550D01*
X6119528Y-10619027D01*
X6138575Y-10609503D01*
X6167147Y-10609503D01*
X6186195Y-10619027D01*
X6195718Y-10628550D01*
X6205242Y-10647598D01*
X6205242Y-10704741D01*
X6195718Y-10723789D01*
X6186195Y-10733312D01*
X6167147Y-10742836D01*
X6138575Y-10742836D01*
X6319528Y-10742836D02*
X6300480Y-10733312D01*
X6290956Y-10714265D01*
X6290956Y-10542836D01*
X6471909Y-10733312D02*
X6452861Y-10742836D01*
X6414766Y-10742836D01*
X6395718Y-10733312D01*
X6386195Y-10714265D01*
X6386195Y-10638074D01*
X6395718Y-10619027D01*
X6414766Y-10609503D01*
X6452861Y-10609503D01*
X6471909Y-10619027D01*
X6481433Y-10638074D01*
X6481433Y-10657122D01*
X6386195Y-10676170D01*
X6557623Y-10733312D02*
X6576671Y-10742836D01*
X6614766Y-10742836D01*
X6633814Y-10733312D01*
X6643337Y-10714265D01*
X6643337Y-10704741D01*
X6633814Y-10685693D01*
X6614766Y-10676170D01*
X6586195Y-10676170D01*
X6567147Y-10666646D01*
X6557623Y-10647598D01*
X6557623Y-10638074D01*
X6567147Y-10619027D01*
X6586195Y-10609503D01*
X6614766Y-10609503D01*
X6633814Y-10619027D01*
X6710004Y-10819027D02*
X6719528Y-10809503D01*
X6738575Y-10780931D01*
X6748099Y-10761884D01*
X6757623Y-10733312D01*
X6767147Y-10685693D01*
X6767147Y-10647598D01*
X6757623Y-10599979D01*
X6748099Y-10571408D01*
X6738575Y-10552360D01*
X6719528Y-10523789D01*
X6710004Y-10514265D01*
D15*
X1707623Y-10876360D02*
X1707623Y-10956360D01*
X1667623Y-10916360D02*
X1747623Y-10916360D01*
D12*
X2043337Y-10806836D02*
X2062385Y-10806836D01*
X2081433Y-10816360D01*
X2090956Y-10825884D01*
X2100480Y-10844931D01*
X2110004Y-10883027D01*
X2110004Y-10930646D01*
X2100480Y-10968741D01*
X2090956Y-10987789D01*
X2081433Y-10997312D01*
X2062385Y-11006836D01*
X2043337Y-11006836D01*
X2024290Y-10997312D01*
X2014766Y-10987789D01*
X2005242Y-10968741D01*
X1995718Y-10930646D01*
X1995718Y-10883027D01*
X2005242Y-10844931D01*
X2014766Y-10825884D01*
X2024290Y-10816360D01*
X2043337Y-10806836D01*
X2195718Y-10987789D02*
X2205242Y-10997312D01*
X2195718Y-11006836D01*
X2186195Y-10997312D01*
X2195718Y-10987789D01*
X2195718Y-11006836D01*
X2319528Y-10892550D02*
X2300480Y-10883027D01*
X2290957Y-10873503D01*
X2281433Y-10854455D01*
X2281433Y-10844931D01*
X2290957Y-10825884D01*
X2300480Y-10816360D01*
X2319528Y-10806836D01*
X2357623Y-10806836D01*
X2376671Y-10816360D01*
X2386195Y-10825884D01*
X2395718Y-10844931D01*
X2395718Y-10854455D01*
X2386195Y-10873503D01*
X2376671Y-10883027D01*
X2357623Y-10892550D01*
X2319528Y-10892550D01*
X2300480Y-10902074D01*
X2290957Y-10911598D01*
X2281433Y-10930646D01*
X2281433Y-10968741D01*
X2290957Y-10987789D01*
X2300480Y-10997312D01*
X2319528Y-11006836D01*
X2357623Y-11006836D01*
X2376671Y-10997312D01*
X2386195Y-10987789D01*
X2395718Y-10968741D01*
X2395718Y-10930646D01*
X2386195Y-10911598D01*
X2376671Y-10902074D01*
X2357623Y-10892550D01*
X2519528Y-10806836D02*
X2538576Y-10806836D01*
X2557623Y-10816360D01*
X2567147Y-10825884D01*
X2576671Y-10844931D01*
X2586195Y-10883027D01*
X2586195Y-10930646D01*
X2576671Y-10968741D01*
X2567147Y-10987789D01*
X2557623Y-10997312D01*
X2538576Y-11006836D01*
X2519528Y-11006836D01*
X2500480Y-10997312D01*
X2490957Y-10987789D01*
X2481433Y-10968741D01*
X2471909Y-10930646D01*
X2471909Y-10883027D01*
X2481433Y-10844931D01*
X2490957Y-10825884D01*
X2500480Y-10816360D01*
X2519528Y-10806836D01*
X2710004Y-10806836D02*
X2729052Y-10806836D01*
X2748099Y-10816360D01*
X2757623Y-10825884D01*
X2767147Y-10844931D01*
X2776671Y-10883027D01*
X2776671Y-10930646D01*
X2767147Y-10968741D01*
X2757623Y-10987789D01*
X2748099Y-10997312D01*
X2729052Y-11006836D01*
X2710004Y-11006836D01*
X2690957Y-10997312D01*
X2681433Y-10987789D01*
X2671909Y-10968741D01*
X2662385Y-10930646D01*
X2662385Y-10883027D01*
X2671909Y-10844931D01*
X2681433Y-10825884D01*
X2690957Y-10816360D01*
X2710004Y-10806836D01*
X2862385Y-11006836D02*
X2862385Y-10873503D01*
X2862385Y-10892550D02*
X2871909Y-10883027D01*
X2890956Y-10873503D01*
X2919528Y-10873503D01*
X2938575Y-10883027D01*
X2948099Y-10902074D01*
X2948099Y-11006836D01*
X2948099Y-10902074D02*
X2957623Y-10883027D01*
X2976671Y-10873503D01*
X3005242Y-10873503D01*
X3024290Y-10883027D01*
X3033814Y-10902074D01*
X3033814Y-11006836D01*
X3129052Y-11006836D02*
X3129052Y-10873503D01*
X3129052Y-10892550D02*
X3138575Y-10883027D01*
X3157623Y-10873503D01*
X3186195Y-10873503D01*
X3205242Y-10883027D01*
X3214766Y-10902074D01*
X3214766Y-11006836D01*
X3214766Y-10902074D02*
X3224290Y-10883027D01*
X3243337Y-10873503D01*
X3271909Y-10873503D01*
X3290956Y-10883027D01*
X3300480Y-10902074D01*
X3300480Y-11006836D01*
X3690956Y-10797312D02*
X3519528Y-11054455D01*
X3948099Y-10806836D02*
X3967147Y-10806836D01*
X3986195Y-10816360D01*
X3995718Y-10825884D01*
X4005242Y-10844931D01*
X4014766Y-10883027D01*
X4014766Y-10930646D01*
X4005242Y-10968741D01*
X3995718Y-10987789D01*
X3986195Y-10997312D01*
X3967147Y-11006836D01*
X3948099Y-11006836D01*
X3929052Y-10997312D01*
X3919528Y-10987789D01*
X3910004Y-10968741D01*
X3900480Y-10930646D01*
X3900480Y-10883027D01*
X3910004Y-10844931D01*
X3919528Y-10825884D01*
X3929052Y-10816360D01*
X3948099Y-10806836D01*
X4100480Y-10987789D02*
X4110004Y-10997312D01*
X4100480Y-11006836D01*
X4090956Y-10997312D01*
X4100480Y-10987789D01*
X4100480Y-11006836D01*
X4233814Y-10806836D02*
X4252861Y-10806836D01*
X4271909Y-10816360D01*
X4281433Y-10825884D01*
X4290957Y-10844931D01*
X4300480Y-10883027D01*
X4300480Y-10930646D01*
X4290957Y-10968741D01*
X4281433Y-10987789D01*
X4271909Y-10997312D01*
X4252861Y-11006836D01*
X4233814Y-11006836D01*
X4214766Y-10997312D01*
X4205242Y-10987789D01*
X4195718Y-10968741D01*
X4186195Y-10930646D01*
X4186195Y-10883027D01*
X4195718Y-10844931D01*
X4205242Y-10825884D01*
X4214766Y-10816360D01*
X4233814Y-10806836D01*
X4367147Y-10806836D02*
X4490957Y-10806836D01*
X4424290Y-10883027D01*
X4452861Y-10883027D01*
X4471909Y-10892550D01*
X4481433Y-10902074D01*
X4490957Y-10921122D01*
X4490957Y-10968741D01*
X4481433Y-10987789D01*
X4471909Y-10997312D01*
X4452861Y-11006836D01*
X4395718Y-11006836D01*
X4376671Y-10997312D01*
X4367147Y-10987789D01*
X4681433Y-11006836D02*
X4567147Y-11006836D01*
X4624290Y-11006836D02*
X4624290Y-10806836D01*
X4605242Y-10835408D01*
X4586195Y-10854455D01*
X4567147Y-10863979D01*
X4862385Y-10806836D02*
X4767147Y-10806836D01*
X4757623Y-10902074D01*
X4767147Y-10892550D01*
X4786195Y-10883027D01*
X4833814Y-10883027D01*
X4852861Y-10892550D01*
X4862385Y-10902074D01*
X4871909Y-10921122D01*
X4871909Y-10968741D01*
X4862385Y-10987789D01*
X4852861Y-10997312D01*
X4833814Y-11006836D01*
X4786195Y-11006836D01*
X4767147Y-10997312D01*
X4757623Y-10987789D01*
X4948099Y-10806836D02*
X4948099Y-10844931D01*
X5024290Y-10806836D02*
X5024290Y-10844931D01*
X5319528Y-11083027D02*
X5310004Y-11073503D01*
X5290957Y-11044931D01*
X5281433Y-11025884D01*
X5271909Y-10997312D01*
X5262385Y-10949693D01*
X5262385Y-10911598D01*
X5271909Y-10863979D01*
X5281433Y-10835408D01*
X5290957Y-10816360D01*
X5310004Y-10787789D01*
X5319528Y-10778265D01*
X5376671Y-10806836D02*
X5500480Y-10806836D01*
X5433814Y-10883027D01*
X5462385Y-10883027D01*
X5481433Y-10892550D01*
X5490957Y-10902074D01*
X5500480Y-10921122D01*
X5500480Y-10968741D01*
X5490957Y-10987789D01*
X5481433Y-10997312D01*
X5462385Y-11006836D01*
X5405242Y-11006836D01*
X5386195Y-10997312D01*
X5376671Y-10987789D01*
X5567147Y-10806836D02*
X5700480Y-10806836D01*
X5614766Y-11006836D01*
X5929052Y-11006836D02*
X5929052Y-10806836D01*
X6014766Y-11006836D02*
X6014766Y-10902074D01*
X6005242Y-10883027D01*
X5986195Y-10873503D01*
X5957623Y-10873503D01*
X5938575Y-10883027D01*
X5929052Y-10892550D01*
X6138575Y-11006836D02*
X6119528Y-10997312D01*
X6110004Y-10987789D01*
X6100480Y-10968741D01*
X6100480Y-10911598D01*
X6110004Y-10892550D01*
X6119528Y-10883027D01*
X6138575Y-10873503D01*
X6167147Y-10873503D01*
X6186195Y-10883027D01*
X6195718Y-10892550D01*
X6205242Y-10911598D01*
X6205242Y-10968741D01*
X6195718Y-10987789D01*
X6186195Y-10997312D01*
X6167147Y-11006836D01*
X6138575Y-11006836D01*
X6319528Y-11006836D02*
X6300480Y-10997312D01*
X6290956Y-10978265D01*
X6290956Y-10806836D01*
X6471909Y-10997312D02*
X6452861Y-11006836D01*
X6414766Y-11006836D01*
X6395718Y-10997312D01*
X6386195Y-10978265D01*
X6386195Y-10902074D01*
X6395718Y-10883027D01*
X6414766Y-10873503D01*
X6452861Y-10873503D01*
X6471909Y-10883027D01*
X6481433Y-10902074D01*
X6481433Y-10921122D01*
X6386195Y-10940170D01*
X6557623Y-10997312D02*
X6576671Y-11006836D01*
X6614766Y-11006836D01*
X6633814Y-10997312D01*
X6643337Y-10978265D01*
X6643337Y-10968741D01*
X6633814Y-10949693D01*
X6614766Y-10940170D01*
X6586195Y-10940170D01*
X6567147Y-10930646D01*
X6557623Y-10911598D01*
X6557623Y-10902074D01*
X6567147Y-10883027D01*
X6586195Y-10873503D01*
X6614766Y-10873503D01*
X6633814Y-10883027D01*
X6710004Y-11083027D02*
X6719528Y-11073503D01*
X6738575Y-11044931D01*
X6748099Y-11025884D01*
X6757623Y-10997312D01*
X6767147Y-10949693D01*
X6767147Y-10911598D01*
X6757623Y-10863979D01*
X6748099Y-10835408D01*
X6738575Y-10816360D01*
X6719528Y-10787789D01*
X6710004Y-10778265D01*
D16*
X1734443Y-11212180D02*
X1734443Y-11148540D01*
X1670803Y-11148540D01*
X1670803Y-11212180D01*
X1734443Y-11212180D01*
D12*
X2043337Y-11070836D02*
X2062385Y-11070836D01*
X2081433Y-11080360D01*
X2090956Y-11089884D01*
X2100480Y-11108931D01*
X2110004Y-11147027D01*
X2110004Y-11194646D01*
X2100480Y-11232741D01*
X2090956Y-11251788D01*
X2081433Y-11261312D01*
X2062385Y-11270836D01*
X2043337Y-11270836D01*
X2024290Y-11261312D01*
X2014766Y-11251788D01*
X2005242Y-11232741D01*
X1995718Y-11194646D01*
X1995718Y-11147027D01*
X2005242Y-11108931D01*
X2014766Y-11089884D01*
X2024290Y-11080360D01*
X2043337Y-11070836D01*
X2195718Y-11251788D02*
X2205242Y-11261312D01*
X2195718Y-11270836D01*
X2186195Y-11261312D01*
X2195718Y-11251788D01*
X2195718Y-11270836D01*
X2300480Y-11270836D02*
X2338576Y-11270836D01*
X2357623Y-11261312D01*
X2367147Y-11251788D01*
X2386195Y-11223217D01*
X2395718Y-11185122D01*
X2395718Y-11108931D01*
X2386195Y-11089884D01*
X2376671Y-11080360D01*
X2357623Y-11070836D01*
X2319528Y-11070836D01*
X2300480Y-11080360D01*
X2290957Y-11089884D01*
X2281433Y-11108931D01*
X2281433Y-11156550D01*
X2290957Y-11175598D01*
X2300480Y-11185122D01*
X2319528Y-11194646D01*
X2357623Y-11194646D01*
X2376671Y-11185122D01*
X2386195Y-11175598D01*
X2395718Y-11156550D01*
X2519528Y-11070836D02*
X2538576Y-11070836D01*
X2557623Y-11080360D01*
X2567147Y-11089884D01*
X2576671Y-11108931D01*
X2586195Y-11147027D01*
X2586195Y-11194646D01*
X2576671Y-11232741D01*
X2567147Y-11251788D01*
X2557623Y-11261312D01*
X2538576Y-11270836D01*
X2519528Y-11270836D01*
X2500480Y-11261312D01*
X2490957Y-11251788D01*
X2481433Y-11232741D01*
X2471909Y-11194646D01*
X2471909Y-11147027D01*
X2481433Y-11108931D01*
X2490957Y-11089884D01*
X2500480Y-11080360D01*
X2519528Y-11070836D01*
X2710004Y-11070836D02*
X2729052Y-11070836D01*
X2748099Y-11080360D01*
X2757623Y-11089884D01*
X2767147Y-11108931D01*
X2776671Y-11147027D01*
X2776671Y-11194646D01*
X2767147Y-11232741D01*
X2757623Y-11251788D01*
X2748099Y-11261312D01*
X2729052Y-11270836D01*
X2710004Y-11270836D01*
X2690957Y-11261312D01*
X2681433Y-11251788D01*
X2671909Y-11232741D01*
X2662385Y-11194646D01*
X2662385Y-11147027D01*
X2671909Y-11108931D01*
X2681433Y-11089884D01*
X2690957Y-11080360D01*
X2710004Y-11070836D01*
X2862385Y-11270836D02*
X2862385Y-11137503D01*
X2862385Y-11156550D02*
X2871909Y-11147027D01*
X2890956Y-11137503D01*
X2919528Y-11137503D01*
X2938575Y-11147027D01*
X2948099Y-11166074D01*
X2948099Y-11270836D01*
X2948099Y-11166074D02*
X2957623Y-11147027D01*
X2976671Y-11137503D01*
X3005242Y-11137503D01*
X3024290Y-11147027D01*
X3033814Y-11166074D01*
X3033814Y-11270836D01*
X3129052Y-11270836D02*
X3129052Y-11137503D01*
X3129052Y-11156550D02*
X3138575Y-11147027D01*
X3157623Y-11137503D01*
X3186195Y-11137503D01*
X3205242Y-11147027D01*
X3214766Y-11166074D01*
X3214766Y-11270836D01*
X3214766Y-11166074D02*
X3224290Y-11147027D01*
X3243337Y-11137503D01*
X3271909Y-11137503D01*
X3290956Y-11147027D01*
X3300480Y-11166074D01*
X3300480Y-11270836D01*
X3690956Y-11061312D02*
X3519528Y-11318455D01*
X3948099Y-11070836D02*
X3967147Y-11070836D01*
X3986195Y-11080360D01*
X3995718Y-11089884D01*
X4005242Y-11108931D01*
X4014766Y-11147027D01*
X4014766Y-11194646D01*
X4005242Y-11232741D01*
X3995718Y-11251788D01*
X3986195Y-11261312D01*
X3967147Y-11270836D01*
X3948099Y-11270836D01*
X3929052Y-11261312D01*
X3919528Y-11251788D01*
X3910004Y-11232741D01*
X3900480Y-11194646D01*
X3900480Y-11147027D01*
X3910004Y-11108931D01*
X3919528Y-11089884D01*
X3929052Y-11080360D01*
X3948099Y-11070836D01*
X4100480Y-11251788D02*
X4110004Y-11261312D01*
X4100480Y-11270836D01*
X4090956Y-11261312D01*
X4100480Y-11251788D01*
X4100480Y-11270836D01*
X4233814Y-11070836D02*
X4252861Y-11070836D01*
X4271909Y-11080360D01*
X4281433Y-11089884D01*
X4290957Y-11108931D01*
X4300480Y-11147027D01*
X4300480Y-11194646D01*
X4290957Y-11232741D01*
X4281433Y-11251788D01*
X4271909Y-11261312D01*
X4252861Y-11270836D01*
X4233814Y-11270836D01*
X4214766Y-11261312D01*
X4205242Y-11251788D01*
X4195718Y-11232741D01*
X4186195Y-11194646D01*
X4186195Y-11147027D01*
X4195718Y-11108931D01*
X4205242Y-11089884D01*
X4214766Y-11080360D01*
X4233814Y-11070836D01*
X4367147Y-11070836D02*
X4490957Y-11070836D01*
X4424290Y-11147027D01*
X4452861Y-11147027D01*
X4471909Y-11156550D01*
X4481433Y-11166074D01*
X4490957Y-11185122D01*
X4490957Y-11232741D01*
X4481433Y-11251788D01*
X4471909Y-11261312D01*
X4452861Y-11270836D01*
X4395718Y-11270836D01*
X4376671Y-11261312D01*
X4367147Y-11251788D01*
X4671909Y-11070836D02*
X4576671Y-11070836D01*
X4567147Y-11166074D01*
X4576671Y-11156550D01*
X4595718Y-11147027D01*
X4643337Y-11147027D01*
X4662385Y-11156550D01*
X4671909Y-11166074D01*
X4681433Y-11185122D01*
X4681433Y-11232741D01*
X4671909Y-11251788D01*
X4662385Y-11261312D01*
X4643337Y-11270836D01*
X4595718Y-11270836D01*
X4576671Y-11261312D01*
X4567147Y-11251788D01*
X4852861Y-11137503D02*
X4852861Y-11270836D01*
X4805242Y-11061312D02*
X4757623Y-11204169D01*
X4881433Y-11204169D01*
X4948099Y-11070836D02*
X4948099Y-11108931D01*
X5024290Y-11070836D02*
X5024290Y-11108931D01*
X5319528Y-11347027D02*
X5310004Y-11337503D01*
X5290957Y-11308931D01*
X5281433Y-11289884D01*
X5271909Y-11261312D01*
X5262385Y-11213693D01*
X5262385Y-11175598D01*
X5271909Y-11127979D01*
X5281433Y-11099408D01*
X5290957Y-11080360D01*
X5310004Y-11051789D01*
X5319528Y-11042265D01*
X5386195Y-11089884D02*
X5395718Y-11080360D01*
X5414766Y-11070836D01*
X5462385Y-11070836D01*
X5481433Y-11080360D01*
X5490957Y-11089884D01*
X5500480Y-11108931D01*
X5500480Y-11127979D01*
X5490957Y-11156550D01*
X5376671Y-11270836D01*
X5500480Y-11270836D01*
X5738575Y-11270836D02*
X5738575Y-11070836D01*
X5824290Y-11270836D02*
X5824290Y-11166074D01*
X5814766Y-11147027D01*
X5795718Y-11137503D01*
X5767147Y-11137503D01*
X5748099Y-11147027D01*
X5738575Y-11156550D01*
X5948099Y-11270836D02*
X5929052Y-11261312D01*
X5919528Y-11251788D01*
X5910004Y-11232741D01*
X5910004Y-11175598D01*
X5919528Y-11156550D01*
X5929052Y-11147027D01*
X5948099Y-11137503D01*
X5976671Y-11137503D01*
X5995718Y-11147027D01*
X6005242Y-11156550D01*
X6014766Y-11175598D01*
X6014766Y-11232741D01*
X6005242Y-11251788D01*
X5995718Y-11261312D01*
X5976671Y-11270836D01*
X5948099Y-11270836D01*
X6129052Y-11270836D02*
X6110004Y-11261312D01*
X6100480Y-11242265D01*
X6100480Y-11070836D01*
X6281433Y-11261312D02*
X6262385Y-11270836D01*
X6224290Y-11270836D01*
X6205242Y-11261312D01*
X6195718Y-11242265D01*
X6195718Y-11166074D01*
X6205242Y-11147027D01*
X6224290Y-11137503D01*
X6262385Y-11137503D01*
X6281433Y-11147027D01*
X6290956Y-11166074D01*
X6290956Y-11185122D01*
X6195718Y-11204169D01*
X6367147Y-11261312D02*
X6386195Y-11270836D01*
X6424290Y-11270836D01*
X6443337Y-11261312D01*
X6452861Y-11242265D01*
X6452861Y-11232741D01*
X6443337Y-11213693D01*
X6424290Y-11204169D01*
X6395718Y-11204169D01*
X6376671Y-11194646D01*
X6367147Y-11175598D01*
X6367147Y-11166074D01*
X6376671Y-11147027D01*
X6395718Y-11137503D01*
X6424290Y-11137503D01*
X6443337Y-11147027D01*
X6519528Y-11347027D02*
X6529052Y-11337503D01*
X6548099Y-11308931D01*
X6557623Y-11289884D01*
X6567147Y-11261312D01*
X6576671Y-11213693D01*
X6576671Y-11175598D01*
X6567147Y-11127979D01*
X6557623Y-11099408D01*
X6548099Y-11080360D01*
X6529052Y-11051789D01*
X6519528Y-11042265D01*
D17*
X1697623Y-11494360D02*
X1747623Y-11444360D01*
X1697623Y-11394360D01*
X1647623Y-11444360D01*
X1697623Y-11494360D01*
D12*
X2110004Y-11534836D02*
X1995718Y-11534836D01*
X2052861Y-11534836D02*
X2052861Y-11334836D01*
X2033814Y-11363408D01*
X2014766Y-11382455D01*
X1995718Y-11391979D01*
X2195718Y-11515788D02*
X2205242Y-11525312D01*
X2195718Y-11534836D01*
X2186195Y-11525312D01*
X2195718Y-11515788D01*
X2195718Y-11534836D01*
X2329052Y-11334836D02*
X2348099Y-11334836D01*
X2367147Y-11344360D01*
X2376671Y-11353884D01*
X2386195Y-11372931D01*
X2395718Y-11411027D01*
X2395718Y-11458646D01*
X2386195Y-11496741D01*
X2376671Y-11515788D01*
X2367147Y-11525312D01*
X2348099Y-11534836D01*
X2329052Y-11534836D01*
X2310004Y-11525312D01*
X2300480Y-11515788D01*
X2290957Y-11496741D01*
X2281433Y-11458646D01*
X2281433Y-11411027D01*
X2290957Y-11372931D01*
X2300480Y-11353884D01*
X2310004Y-11344360D01*
X2329052Y-11334836D01*
X2519528Y-11334836D02*
X2538576Y-11334836D01*
X2557623Y-11344360D01*
X2567147Y-11353884D01*
X2576671Y-11372931D01*
X2586195Y-11411027D01*
X2586195Y-11458646D01*
X2576671Y-11496741D01*
X2567147Y-11515788D01*
X2557623Y-11525312D01*
X2538576Y-11534836D01*
X2519528Y-11534836D01*
X2500480Y-11525312D01*
X2490957Y-11515788D01*
X2481433Y-11496741D01*
X2471909Y-11458646D01*
X2471909Y-11411027D01*
X2481433Y-11372931D01*
X2490957Y-11353884D01*
X2500480Y-11344360D01*
X2519528Y-11334836D01*
X2710004Y-11334836D02*
X2729052Y-11334836D01*
X2748099Y-11344360D01*
X2757623Y-11353884D01*
X2767147Y-11372931D01*
X2776671Y-11411027D01*
X2776671Y-11458646D01*
X2767147Y-11496741D01*
X2757623Y-11515788D01*
X2748099Y-11525312D01*
X2729052Y-11534836D01*
X2710004Y-11534836D01*
X2690957Y-11525312D01*
X2681433Y-11515788D01*
X2671909Y-11496741D01*
X2662385Y-11458646D01*
X2662385Y-11411027D01*
X2671909Y-11372931D01*
X2681433Y-11353884D01*
X2690957Y-11344360D01*
X2710004Y-11334836D01*
X2862385Y-11534836D02*
X2862385Y-11401503D01*
X2862385Y-11420550D02*
X2871909Y-11411027D01*
X2890956Y-11401503D01*
X2919528Y-11401503D01*
X2938575Y-11411027D01*
X2948099Y-11430074D01*
X2948099Y-11534836D01*
X2948099Y-11430074D02*
X2957623Y-11411027D01*
X2976671Y-11401503D01*
X3005242Y-11401503D01*
X3024290Y-11411027D01*
X3033814Y-11430074D01*
X3033814Y-11534836D01*
X3129052Y-11534836D02*
X3129052Y-11401503D01*
X3129052Y-11420550D02*
X3138575Y-11411027D01*
X3157623Y-11401503D01*
X3186195Y-11401503D01*
X3205242Y-11411027D01*
X3214766Y-11430074D01*
X3214766Y-11534836D01*
X3214766Y-11430074D02*
X3224290Y-11411027D01*
X3243337Y-11401503D01*
X3271909Y-11401503D01*
X3290956Y-11411027D01*
X3300480Y-11430074D01*
X3300480Y-11534836D01*
X3690956Y-11325312D02*
X3519528Y-11582455D01*
X3948099Y-11334836D02*
X3967147Y-11334836D01*
X3986195Y-11344360D01*
X3995718Y-11353884D01*
X4005242Y-11372931D01*
X4014766Y-11411027D01*
X4014766Y-11458646D01*
X4005242Y-11496741D01*
X3995718Y-11515788D01*
X3986195Y-11525312D01*
X3967147Y-11534836D01*
X3948099Y-11534836D01*
X3929052Y-11525312D01*
X3919528Y-11515788D01*
X3910004Y-11496741D01*
X3900480Y-11458646D01*
X3900480Y-11411027D01*
X3910004Y-11372931D01*
X3919528Y-11353884D01*
X3929052Y-11344360D01*
X3948099Y-11334836D01*
X4100480Y-11515788D02*
X4110004Y-11525312D01*
X4100480Y-11534836D01*
X4090956Y-11525312D01*
X4100480Y-11515788D01*
X4100480Y-11534836D01*
X4233814Y-11334836D02*
X4252861Y-11334836D01*
X4271909Y-11344360D01*
X4281433Y-11353884D01*
X4290957Y-11372931D01*
X4300480Y-11411027D01*
X4300480Y-11458646D01*
X4290957Y-11496741D01*
X4281433Y-11515788D01*
X4271909Y-11525312D01*
X4252861Y-11534836D01*
X4233814Y-11534836D01*
X4214766Y-11525312D01*
X4205242Y-11515788D01*
X4195718Y-11496741D01*
X4186195Y-11458646D01*
X4186195Y-11411027D01*
X4195718Y-11372931D01*
X4205242Y-11353884D01*
X4214766Y-11344360D01*
X4233814Y-11334836D01*
X4367147Y-11334836D02*
X4490957Y-11334836D01*
X4424290Y-11411027D01*
X4452861Y-11411027D01*
X4471909Y-11420550D01*
X4481433Y-11430074D01*
X4490957Y-11449122D01*
X4490957Y-11496741D01*
X4481433Y-11515788D01*
X4471909Y-11525312D01*
X4452861Y-11534836D01*
X4395718Y-11534836D01*
X4376671Y-11525312D01*
X4367147Y-11515788D01*
X4586195Y-11534836D02*
X4624290Y-11534836D01*
X4643337Y-11525312D01*
X4652861Y-11515788D01*
X4671909Y-11487217D01*
X4681433Y-11449122D01*
X4681433Y-11372931D01*
X4671909Y-11353884D01*
X4662385Y-11344360D01*
X4643337Y-11334836D01*
X4605242Y-11334836D01*
X4586195Y-11344360D01*
X4576671Y-11353884D01*
X4567147Y-11372931D01*
X4567147Y-11420550D01*
X4576671Y-11439598D01*
X4586195Y-11449122D01*
X4605242Y-11458646D01*
X4643337Y-11458646D01*
X4662385Y-11449122D01*
X4671909Y-11439598D01*
X4681433Y-11420550D01*
X4852861Y-11401503D02*
X4852861Y-11534836D01*
X4805242Y-11325312D02*
X4757623Y-11468169D01*
X4881433Y-11468169D01*
X4948099Y-11334836D02*
X4948099Y-11372931D01*
X5024290Y-11334836D02*
X5024290Y-11372931D01*
X5319528Y-11611027D02*
X5310004Y-11601503D01*
X5290957Y-11572931D01*
X5281433Y-11553884D01*
X5271909Y-11525312D01*
X5262385Y-11477693D01*
X5262385Y-11439598D01*
X5271909Y-11391979D01*
X5281433Y-11363408D01*
X5290957Y-11344360D01*
X5310004Y-11315788D01*
X5319528Y-11306265D01*
X5376671Y-11334836D02*
X5500480Y-11334836D01*
X5433814Y-11411027D01*
X5462385Y-11411027D01*
X5481433Y-11420550D01*
X5490957Y-11430074D01*
X5500480Y-11449122D01*
X5500480Y-11496741D01*
X5490957Y-11515788D01*
X5481433Y-11525312D01*
X5462385Y-11534836D01*
X5405242Y-11534836D01*
X5386195Y-11525312D01*
X5376671Y-11515788D01*
X5576671Y-11353884D02*
X5586195Y-11344360D01*
X5605242Y-11334836D01*
X5652861Y-11334836D01*
X5671909Y-11344360D01*
X5681433Y-11353884D01*
X5690956Y-11372931D01*
X5690956Y-11391979D01*
X5681433Y-11420550D01*
X5567147Y-11534836D01*
X5690956Y-11534836D01*
X5929052Y-11534836D02*
X5929052Y-11334836D01*
X6014766Y-11534836D02*
X6014766Y-11430074D01*
X6005242Y-11411027D01*
X5986195Y-11401503D01*
X5957623Y-11401503D01*
X5938575Y-11411027D01*
X5929052Y-11420550D01*
X6138575Y-11534836D02*
X6119528Y-11525312D01*
X6110004Y-11515788D01*
X6100480Y-11496741D01*
X6100480Y-11439598D01*
X6110004Y-11420550D01*
X6119528Y-11411027D01*
X6138575Y-11401503D01*
X6167147Y-11401503D01*
X6186195Y-11411027D01*
X6195718Y-11420550D01*
X6205242Y-11439598D01*
X6205242Y-11496741D01*
X6195718Y-11515788D01*
X6186195Y-11525312D01*
X6167147Y-11534836D01*
X6138575Y-11534836D01*
X6319528Y-11534836D02*
X6300480Y-11525312D01*
X6290956Y-11506265D01*
X6290956Y-11334836D01*
X6471909Y-11525312D02*
X6452861Y-11534836D01*
X6414766Y-11534836D01*
X6395718Y-11525312D01*
X6386195Y-11506265D01*
X6386195Y-11430074D01*
X6395718Y-11411027D01*
X6414766Y-11401503D01*
X6452861Y-11401503D01*
X6471909Y-11411027D01*
X6481433Y-11430074D01*
X6481433Y-11449122D01*
X6386195Y-11468169D01*
X6557623Y-11525312D02*
X6576671Y-11534836D01*
X6614766Y-11534836D01*
X6633814Y-11525312D01*
X6643337Y-11506265D01*
X6643337Y-11496741D01*
X6633814Y-11477693D01*
X6614766Y-11468169D01*
X6586195Y-11468169D01*
X6567147Y-11458646D01*
X6557623Y-11439598D01*
X6557623Y-11430074D01*
X6567147Y-11411027D01*
X6586195Y-11401503D01*
X6614766Y-11401503D01*
X6633814Y-11411027D01*
X6710004Y-11611027D02*
X6719528Y-11601503D01*
X6738575Y-11572931D01*
X6748099Y-11553884D01*
X6757623Y-11525312D01*
X6767147Y-11477693D01*
X6767147Y-11439598D01*
X6757623Y-11391979D01*
X6748099Y-11363408D01*
X6738575Y-11344360D01*
X6719528Y-11315788D01*
X6710004Y-11306265D01*
D18*
X1617623Y-11643360D02*
X1747623Y-11773360D01*
X1747623Y-11643360D02*
X1617623Y-11773360D01*
X1747623Y-11708360D02*
G75*
G03*
X1747623Y-11708360I-65000J0D01*
G01*
D12*
X2110004Y-11798836D02*
X1995718Y-11798836D01*
X2052861Y-11798836D02*
X2052861Y-11598836D01*
X2033814Y-11627408D01*
X2014766Y-11646455D01*
X1995718Y-11655979D01*
X2195718Y-11779788D02*
X2205242Y-11789312D01*
X2195718Y-11798836D01*
X2186195Y-11789312D01*
X2195718Y-11779788D01*
X2195718Y-11798836D01*
X2271909Y-11598836D02*
X2395718Y-11598836D01*
X2329052Y-11675027D01*
X2357623Y-11675027D01*
X2376671Y-11684550D01*
X2386195Y-11694074D01*
X2395718Y-11713122D01*
X2395718Y-11760741D01*
X2386195Y-11779788D01*
X2376671Y-11789312D01*
X2357623Y-11798836D01*
X2300480Y-11798836D01*
X2281433Y-11789312D01*
X2271909Y-11779788D01*
X2519528Y-11598836D02*
X2538576Y-11598836D01*
X2557623Y-11608360D01*
X2567147Y-11617884D01*
X2576671Y-11636931D01*
X2586195Y-11675027D01*
X2586195Y-11722646D01*
X2576671Y-11760741D01*
X2567147Y-11779788D01*
X2557623Y-11789312D01*
X2538576Y-11798836D01*
X2519528Y-11798836D01*
X2500480Y-11789312D01*
X2490957Y-11779788D01*
X2481433Y-11760741D01*
X2471909Y-11722646D01*
X2471909Y-11675027D01*
X2481433Y-11636931D01*
X2490957Y-11617884D01*
X2500480Y-11608360D01*
X2519528Y-11598836D01*
X2710004Y-11598836D02*
X2729052Y-11598836D01*
X2748099Y-11608360D01*
X2757623Y-11617884D01*
X2767147Y-11636931D01*
X2776671Y-11675027D01*
X2776671Y-11722646D01*
X2767147Y-11760741D01*
X2757623Y-11779788D01*
X2748099Y-11789312D01*
X2729052Y-11798836D01*
X2710004Y-11798836D01*
X2690957Y-11789312D01*
X2681433Y-11779788D01*
X2671909Y-11760741D01*
X2662385Y-11722646D01*
X2662385Y-11675027D01*
X2671909Y-11636931D01*
X2681433Y-11617884D01*
X2690957Y-11608360D01*
X2710004Y-11598836D01*
X2862385Y-11798836D02*
X2862385Y-11665503D01*
X2862385Y-11684550D02*
X2871909Y-11675027D01*
X2890956Y-11665503D01*
X2919528Y-11665503D01*
X2938575Y-11675027D01*
X2948099Y-11694074D01*
X2948099Y-11798836D01*
X2948099Y-11694074D02*
X2957623Y-11675027D01*
X2976671Y-11665503D01*
X3005242Y-11665503D01*
X3024290Y-11675027D01*
X3033814Y-11694074D01*
X3033814Y-11798836D01*
X3129052Y-11798836D02*
X3129052Y-11665503D01*
X3129052Y-11684550D02*
X3138575Y-11675027D01*
X3157623Y-11665503D01*
X3186195Y-11665503D01*
X3205242Y-11675027D01*
X3214766Y-11694074D01*
X3214766Y-11798836D01*
X3214766Y-11694074D02*
X3224290Y-11675027D01*
X3243337Y-11665503D01*
X3271909Y-11665503D01*
X3290956Y-11675027D01*
X3300480Y-11694074D01*
X3300480Y-11798836D01*
X3690956Y-11589312D02*
X3519528Y-11846455D01*
X3948099Y-11598836D02*
X3967147Y-11598836D01*
X3986195Y-11608360D01*
X3995718Y-11617884D01*
X4005242Y-11636931D01*
X4014766Y-11675027D01*
X4014766Y-11722646D01*
X4005242Y-11760741D01*
X3995718Y-11779788D01*
X3986195Y-11789312D01*
X3967147Y-11798836D01*
X3948099Y-11798836D01*
X3929052Y-11789312D01*
X3919528Y-11779788D01*
X3910004Y-11760741D01*
X3900480Y-11722646D01*
X3900480Y-11675027D01*
X3910004Y-11636931D01*
X3919528Y-11617884D01*
X3929052Y-11608360D01*
X3948099Y-11598836D01*
X4100480Y-11779788D02*
X4110004Y-11789312D01*
X4100480Y-11798836D01*
X4090956Y-11789312D01*
X4100480Y-11779788D01*
X4100480Y-11798836D01*
X4233814Y-11598836D02*
X4252861Y-11598836D01*
X4271909Y-11608360D01*
X4281433Y-11617884D01*
X4290957Y-11636931D01*
X4300480Y-11675027D01*
X4300480Y-11722646D01*
X4290957Y-11760741D01*
X4281433Y-11779788D01*
X4271909Y-11789312D01*
X4252861Y-11798836D01*
X4233814Y-11798836D01*
X4214766Y-11789312D01*
X4205242Y-11779788D01*
X4195718Y-11760741D01*
X4186195Y-11722646D01*
X4186195Y-11675027D01*
X4195718Y-11636931D01*
X4205242Y-11617884D01*
X4214766Y-11608360D01*
X4233814Y-11598836D01*
X4481433Y-11598836D02*
X4386195Y-11598836D01*
X4376671Y-11694074D01*
X4386195Y-11684550D01*
X4405242Y-11675027D01*
X4452861Y-11675027D01*
X4471909Y-11684550D01*
X4481433Y-11694074D01*
X4490957Y-11713122D01*
X4490957Y-11760741D01*
X4481433Y-11779788D01*
X4471909Y-11789312D01*
X4452861Y-11798836D01*
X4405242Y-11798836D01*
X4386195Y-11789312D01*
X4376671Y-11779788D01*
X4681433Y-11798836D02*
X4567147Y-11798836D01*
X4624290Y-11798836D02*
X4624290Y-11598836D01*
X4605242Y-11627408D01*
X4586195Y-11646455D01*
X4567147Y-11655979D01*
X4757623Y-11617884D02*
X4767147Y-11608360D01*
X4786195Y-11598836D01*
X4833814Y-11598836D01*
X4852861Y-11608360D01*
X4862385Y-11617884D01*
X4871909Y-11636931D01*
X4871909Y-11655979D01*
X4862385Y-11684550D01*
X4748099Y-11798836D01*
X4871909Y-11798836D01*
X4948099Y-11598836D02*
X4948099Y-11636931D01*
X5024290Y-11598836D02*
X5024290Y-11636931D01*
X5319528Y-11875027D02*
X5310004Y-11865503D01*
X5290957Y-11836931D01*
X5281433Y-11817884D01*
X5271909Y-11789312D01*
X5262385Y-11741693D01*
X5262385Y-11703598D01*
X5271909Y-11655979D01*
X5281433Y-11627408D01*
X5290957Y-11608360D01*
X5310004Y-11579788D01*
X5319528Y-11570265D01*
X5500480Y-11798836D02*
X5386195Y-11798836D01*
X5443337Y-11798836D02*
X5443337Y-11598836D01*
X5424290Y-11627408D01*
X5405242Y-11646455D01*
X5386195Y-11655979D01*
X5738575Y-11798836D02*
X5738575Y-11598836D01*
X5824290Y-11798836D02*
X5824290Y-11694074D01*
X5814766Y-11675027D01*
X5795718Y-11665503D01*
X5767147Y-11665503D01*
X5748099Y-11675027D01*
X5738575Y-11684550D01*
X5948099Y-11798836D02*
X5929052Y-11789312D01*
X5919528Y-11779788D01*
X5910004Y-11760741D01*
X5910004Y-11703598D01*
X5919528Y-11684550D01*
X5929052Y-11675027D01*
X5948099Y-11665503D01*
X5976671Y-11665503D01*
X5995718Y-11675027D01*
X6005242Y-11684550D01*
X6014766Y-11703598D01*
X6014766Y-11760741D01*
X6005242Y-11779788D01*
X5995718Y-11789312D01*
X5976671Y-11798836D01*
X5948099Y-11798836D01*
X6129052Y-11798836D02*
X6110004Y-11789312D01*
X6100480Y-11770265D01*
X6100480Y-11598836D01*
X6281433Y-11789312D02*
X6262385Y-11798836D01*
X6224290Y-11798836D01*
X6205242Y-11789312D01*
X6195718Y-11770265D01*
X6195718Y-11694074D01*
X6205242Y-11675027D01*
X6224290Y-11665503D01*
X6262385Y-11665503D01*
X6281433Y-11675027D01*
X6290956Y-11694074D01*
X6290956Y-11713122D01*
X6195718Y-11732169D01*
X6357623Y-11875027D02*
X6367147Y-11865503D01*
X6386195Y-11836931D01*
X6395718Y-11817884D01*
X6405242Y-11789312D01*
X6414766Y-11741693D01*
X6414766Y-11703598D01*
X6405242Y-11655979D01*
X6395718Y-11627408D01*
X6386195Y-11608360D01*
X6367147Y-11579788D01*
X6357623Y-11570265D01*
X1547623Y-11872360D02*
X1747623Y-12072360D01*
X1747623Y-11872360D02*
X1547623Y-12072360D01*
X1647623Y-11872360D02*
X1647623Y-12072360D01*
X1547623Y-11972360D02*
X1747623Y-11972360D01*
X1986195Y-11862836D02*
X2110004Y-11862836D01*
X2043337Y-11939027D01*
X2071909Y-11939027D01*
X2090956Y-11948550D01*
X2100480Y-11958074D01*
X2110004Y-11977122D01*
X2110004Y-12024741D01*
X2100480Y-12043788D01*
X2090956Y-12053312D01*
X2071909Y-12062836D01*
X2014766Y-12062836D01*
X1995718Y-12053312D01*
X1986195Y-12043788D01*
X2195718Y-12043788D02*
X2205242Y-12053312D01*
X2195718Y-12062836D01*
X2186195Y-12053312D01*
X2195718Y-12043788D01*
X2195718Y-12062836D01*
X2386195Y-11862836D02*
X2290957Y-11862836D01*
X2281433Y-11958074D01*
X2290957Y-11948550D01*
X2310004Y-11939027D01*
X2357623Y-11939027D01*
X2376671Y-11948550D01*
X2386195Y-11958074D01*
X2395718Y-11977122D01*
X2395718Y-12024741D01*
X2386195Y-12043788D01*
X2376671Y-12053312D01*
X2357623Y-12062836D01*
X2310004Y-12062836D01*
X2290957Y-12053312D01*
X2281433Y-12043788D01*
X2519528Y-11862836D02*
X2538576Y-11862836D01*
X2557623Y-11872360D01*
X2567147Y-11881884D01*
X2576671Y-11900931D01*
X2586195Y-11939027D01*
X2586195Y-11986646D01*
X2576671Y-12024741D01*
X2567147Y-12043788D01*
X2557623Y-12053312D01*
X2538576Y-12062836D01*
X2519528Y-12062836D01*
X2500480Y-12053312D01*
X2490957Y-12043788D01*
X2481433Y-12024741D01*
X2471909Y-11986646D01*
X2471909Y-11939027D01*
X2481433Y-11900931D01*
X2490957Y-11881884D01*
X2500480Y-11872360D01*
X2519528Y-11862836D01*
X2710004Y-11862836D02*
X2729052Y-11862836D01*
X2748099Y-11872360D01*
X2757623Y-11881884D01*
X2767147Y-11900931D01*
X2776671Y-11939027D01*
X2776671Y-11986646D01*
X2767147Y-12024741D01*
X2757623Y-12043788D01*
X2748099Y-12053312D01*
X2729052Y-12062836D01*
X2710004Y-12062836D01*
X2690957Y-12053312D01*
X2681433Y-12043788D01*
X2671909Y-12024741D01*
X2662385Y-11986646D01*
X2662385Y-11939027D01*
X2671909Y-11900931D01*
X2681433Y-11881884D01*
X2690957Y-11872360D01*
X2710004Y-11862836D01*
X2862385Y-12062836D02*
X2862385Y-11929503D01*
X2862385Y-11948550D02*
X2871909Y-11939027D01*
X2890956Y-11929503D01*
X2919528Y-11929503D01*
X2938575Y-11939027D01*
X2948099Y-11958074D01*
X2948099Y-12062836D01*
X2948099Y-11958074D02*
X2957623Y-11939027D01*
X2976671Y-11929503D01*
X3005242Y-11929503D01*
X3024290Y-11939027D01*
X3033814Y-11958074D01*
X3033814Y-12062836D01*
X3129052Y-12062836D02*
X3129052Y-11929503D01*
X3129052Y-11948550D02*
X3138575Y-11939027D01*
X3157623Y-11929503D01*
X3186195Y-11929503D01*
X3205242Y-11939027D01*
X3214766Y-11958074D01*
X3214766Y-12062836D01*
X3214766Y-11958074D02*
X3224290Y-11939027D01*
X3243337Y-11929503D01*
X3271909Y-11929503D01*
X3290956Y-11939027D01*
X3300480Y-11958074D01*
X3300480Y-12062836D01*
X3690956Y-11853312D02*
X3519528Y-12110455D01*
X3948099Y-11862836D02*
X3967147Y-11862836D01*
X3986195Y-11872360D01*
X3995718Y-11881884D01*
X4005242Y-11900931D01*
X4014766Y-11939027D01*
X4014766Y-11986646D01*
X4005242Y-12024741D01*
X3995718Y-12043788D01*
X3986195Y-12053312D01*
X3967147Y-12062836D01*
X3948099Y-12062836D01*
X3929052Y-12053312D01*
X3919528Y-12043788D01*
X3910004Y-12024741D01*
X3900480Y-11986646D01*
X3900480Y-11939027D01*
X3910004Y-11900931D01*
X3919528Y-11881884D01*
X3929052Y-11872360D01*
X3948099Y-11862836D01*
X4100480Y-12043788D02*
X4110004Y-12053312D01*
X4100480Y-12062836D01*
X4090956Y-12053312D01*
X4100480Y-12043788D01*
X4100480Y-12062836D01*
X4300480Y-12062836D02*
X4186195Y-12062836D01*
X4243337Y-12062836D02*
X4243337Y-11862836D01*
X4224290Y-11891408D01*
X4205242Y-11910455D01*
X4186195Y-11919979D01*
X4367147Y-11862836D02*
X4490957Y-11862836D01*
X4424290Y-11939027D01*
X4452861Y-11939027D01*
X4471909Y-11948550D01*
X4481433Y-11958074D01*
X4490957Y-11977122D01*
X4490957Y-12024741D01*
X4481433Y-12043788D01*
X4471909Y-12053312D01*
X4452861Y-12062836D01*
X4395718Y-12062836D01*
X4376671Y-12053312D01*
X4367147Y-12043788D01*
X4557623Y-11862836D02*
X4690957Y-11862836D01*
X4605242Y-12062836D01*
X4795718Y-11948550D02*
X4776671Y-11939027D01*
X4767147Y-11929503D01*
X4757623Y-11910455D01*
X4757623Y-11900931D01*
X4767147Y-11881884D01*
X4776671Y-11872360D01*
X4795718Y-11862836D01*
X4833814Y-11862836D01*
X4852861Y-11872360D01*
X4862385Y-11881884D01*
X4871909Y-11900931D01*
X4871909Y-11910455D01*
X4862385Y-11929503D01*
X4852861Y-11939027D01*
X4833814Y-11948550D01*
X4795718Y-11948550D01*
X4776671Y-11958074D01*
X4767147Y-11967598D01*
X4757623Y-11986646D01*
X4757623Y-12024741D01*
X4767147Y-12043788D01*
X4776671Y-12053312D01*
X4795718Y-12062836D01*
X4833814Y-12062836D01*
X4852861Y-12053312D01*
X4862385Y-12043788D01*
X4871909Y-12024741D01*
X4871909Y-11986646D01*
X4862385Y-11967598D01*
X4852861Y-11958074D01*
X4833814Y-11948550D01*
X4948099Y-11862836D02*
X4948099Y-11900931D01*
X5024290Y-11862836D02*
X5024290Y-11900931D01*
X5319528Y-12139027D02*
X5310004Y-12129503D01*
X5290957Y-12100931D01*
X5281433Y-12081884D01*
X5271909Y-12053312D01*
X5262385Y-12005693D01*
X5262385Y-11967598D01*
X5271909Y-11919979D01*
X5281433Y-11891408D01*
X5290957Y-11872360D01*
X5310004Y-11843788D01*
X5319528Y-11834265D01*
X5481433Y-11929503D02*
X5481433Y-12062836D01*
X5433814Y-11853312D02*
X5386195Y-11996169D01*
X5510004Y-11996169D01*
X5738575Y-12062836D02*
X5738575Y-11862836D01*
X5824290Y-12062836D02*
X5824290Y-11958074D01*
X5814766Y-11939027D01*
X5795718Y-11929503D01*
X5767147Y-11929503D01*
X5748099Y-11939027D01*
X5738575Y-11948550D01*
X5948099Y-12062836D02*
X5929052Y-12053312D01*
X5919528Y-12043788D01*
X5910004Y-12024741D01*
X5910004Y-11967598D01*
X5919528Y-11948550D01*
X5929052Y-11939027D01*
X5948099Y-11929503D01*
X5976671Y-11929503D01*
X5995718Y-11939027D01*
X6005242Y-11948550D01*
X6014766Y-11967598D01*
X6014766Y-12024741D01*
X6005242Y-12043788D01*
X5995718Y-12053312D01*
X5976671Y-12062836D01*
X5948099Y-12062836D01*
X6129052Y-12062836D02*
X6110004Y-12053312D01*
X6100480Y-12034265D01*
X6100480Y-11862836D01*
X6281433Y-12053312D02*
X6262385Y-12062836D01*
X6224290Y-12062836D01*
X6205242Y-12053312D01*
X6195718Y-12034265D01*
X6195718Y-11958074D01*
X6205242Y-11939027D01*
X6224290Y-11929503D01*
X6262385Y-11929503D01*
X6281433Y-11939027D01*
X6290956Y-11958074D01*
X6290956Y-11977122D01*
X6195718Y-11996169D01*
X6367147Y-12053312D02*
X6386195Y-12062836D01*
X6424290Y-12062836D01*
X6443337Y-12053312D01*
X6452861Y-12034265D01*
X6452861Y-12024741D01*
X6443337Y-12005693D01*
X6424290Y-11996169D01*
X6395718Y-11996169D01*
X6376671Y-11986646D01*
X6367147Y-11967598D01*
X6367147Y-11958074D01*
X6376671Y-11939027D01*
X6395718Y-11929503D01*
X6424290Y-11929503D01*
X6443337Y-11939027D01*
X6519528Y-12139027D02*
X6529052Y-12129503D01*
X6548099Y-12100931D01*
X6557623Y-12081884D01*
X6567147Y-12053312D01*
X6576671Y-12005693D01*
X6576671Y-11967598D01*
X6567147Y-11919979D01*
X6557623Y-11891408D01*
X6548099Y-11872360D01*
X6529052Y-11843788D01*
X6519528Y-11834265D01*
X1547623Y-12192360D02*
X1747623Y-12392360D01*
X1747623Y-12192360D02*
X1547623Y-12392360D01*
X1718335Y-12363071D02*
X1718335Y-12221649D01*
X1576912Y-12221649D01*
X1576912Y-12363071D01*
X1718335Y-12363071D01*
X1995718Y-12201884D02*
X2005242Y-12192360D01*
X2024290Y-12182836D01*
X2071909Y-12182836D01*
X2090956Y-12192360D01*
X2100480Y-12201884D01*
X2110004Y-12220931D01*
X2110004Y-12239979D01*
X2100480Y-12268550D01*
X1986195Y-12382836D01*
X2110004Y-12382836D01*
X2290957Y-12182836D02*
X2195718Y-12182836D01*
X2186195Y-12278074D01*
X2195718Y-12268550D01*
X2214766Y-12259027D01*
X2262385Y-12259027D01*
X2281433Y-12268550D01*
X2290957Y-12278074D01*
X2300480Y-12297122D01*
X2300480Y-12344741D01*
X2290957Y-12363788D01*
X2281433Y-12373312D01*
X2262385Y-12382836D01*
X2214766Y-12382836D01*
X2195718Y-12373312D01*
X2186195Y-12363788D01*
X2386195Y-12363788D02*
X2395718Y-12373312D01*
X2386195Y-12382836D01*
X2376671Y-12373312D01*
X2386195Y-12363788D01*
X2386195Y-12382836D01*
X2519528Y-12182836D02*
X2538576Y-12182836D01*
X2557623Y-12192360D01*
X2567147Y-12201884D01*
X2576671Y-12220931D01*
X2586195Y-12259027D01*
X2586195Y-12306646D01*
X2576671Y-12344741D01*
X2567147Y-12363788D01*
X2557623Y-12373312D01*
X2538576Y-12382836D01*
X2519528Y-12382836D01*
X2500480Y-12373312D01*
X2490957Y-12363788D01*
X2481433Y-12344741D01*
X2471909Y-12306646D01*
X2471909Y-12259027D01*
X2481433Y-12220931D01*
X2490957Y-12201884D01*
X2500480Y-12192360D01*
X2519528Y-12182836D01*
X2710004Y-12182836D02*
X2729052Y-12182836D01*
X2748099Y-12192360D01*
X2757623Y-12201884D01*
X2767147Y-12220931D01*
X2776671Y-12259027D01*
X2776671Y-12306646D01*
X2767147Y-12344741D01*
X2757623Y-12363788D01*
X2748099Y-12373312D01*
X2729052Y-12382836D01*
X2710004Y-12382836D01*
X2690957Y-12373312D01*
X2681433Y-12363788D01*
X2671909Y-12344741D01*
X2662385Y-12306646D01*
X2662385Y-12259027D01*
X2671909Y-12220931D01*
X2681433Y-12201884D01*
X2690957Y-12192360D01*
X2710004Y-12182836D01*
X2900480Y-12182836D02*
X2919528Y-12182836D01*
X2938575Y-12192360D01*
X2948099Y-12201884D01*
X2957623Y-12220931D01*
X2967147Y-12259027D01*
X2967147Y-12306646D01*
X2957623Y-12344741D01*
X2948099Y-12363788D01*
X2938575Y-12373312D01*
X2919528Y-12382836D01*
X2900480Y-12382836D01*
X2881433Y-12373312D01*
X2871909Y-12363788D01*
X2862385Y-12344741D01*
X2852861Y-12306646D01*
X2852861Y-12259027D01*
X2862385Y-12220931D01*
X2871909Y-12201884D01*
X2881433Y-12192360D01*
X2900480Y-12182836D01*
X3052861Y-12382836D02*
X3052861Y-12249503D01*
X3052861Y-12268550D02*
X3062385Y-12259027D01*
X3081433Y-12249503D01*
X3110004Y-12249503D01*
X3129052Y-12259027D01*
X3138575Y-12278074D01*
X3138575Y-12382836D01*
X3138575Y-12278074D02*
X3148099Y-12259027D01*
X3167147Y-12249503D01*
X3195718Y-12249503D01*
X3214766Y-12259027D01*
X3224290Y-12278074D01*
X3224290Y-12382836D01*
X3319528Y-12382836D02*
X3319528Y-12249503D01*
X3319528Y-12268550D02*
X3329052Y-12259027D01*
X3348099Y-12249503D01*
X3376671Y-12249503D01*
X3395718Y-12259027D01*
X3405242Y-12278074D01*
X3405242Y-12382836D01*
X3405242Y-12278074D02*
X3414766Y-12259027D01*
X3433814Y-12249503D01*
X3462385Y-12249503D01*
X3481433Y-12259027D01*
X3490956Y-12278074D01*
X3490956Y-12382836D01*
X3881433Y-12173312D02*
X3710004Y-12430455D01*
X4138575Y-12182836D02*
X4157623Y-12182836D01*
X4176671Y-12192360D01*
X4186195Y-12201884D01*
X4195718Y-12220931D01*
X4205242Y-12259027D01*
X4205242Y-12306646D01*
X4195718Y-12344741D01*
X4186195Y-12363788D01*
X4176671Y-12373312D01*
X4157623Y-12382836D01*
X4138575Y-12382836D01*
X4119528Y-12373312D01*
X4110004Y-12363788D01*
X4100480Y-12344741D01*
X4090956Y-12306646D01*
X4090956Y-12259027D01*
X4100480Y-12220931D01*
X4110004Y-12201884D01*
X4119528Y-12192360D01*
X4138575Y-12182836D01*
X4290957Y-12363788D02*
X4300480Y-12373312D01*
X4290957Y-12382836D01*
X4281433Y-12373312D01*
X4290957Y-12363788D01*
X4290957Y-12382836D01*
X4395718Y-12382836D02*
X4433814Y-12382836D01*
X4452861Y-12373312D01*
X4462385Y-12363788D01*
X4481433Y-12335217D01*
X4490957Y-12297122D01*
X4490957Y-12220931D01*
X4481433Y-12201884D01*
X4471909Y-12192360D01*
X4452861Y-12182836D01*
X4414766Y-12182836D01*
X4395718Y-12192360D01*
X4386195Y-12201884D01*
X4376671Y-12220931D01*
X4376671Y-12268550D01*
X4386195Y-12287598D01*
X4395718Y-12297122D01*
X4414766Y-12306646D01*
X4452861Y-12306646D01*
X4471909Y-12297122D01*
X4481433Y-12287598D01*
X4490957Y-12268550D01*
X4605242Y-12268550D02*
X4586195Y-12259027D01*
X4576671Y-12249503D01*
X4567147Y-12230455D01*
X4567147Y-12220931D01*
X4576671Y-12201884D01*
X4586195Y-12192360D01*
X4605242Y-12182836D01*
X4643337Y-12182836D01*
X4662385Y-12192360D01*
X4671909Y-12201884D01*
X4681433Y-12220931D01*
X4681433Y-12230455D01*
X4671909Y-12249503D01*
X4662385Y-12259027D01*
X4643337Y-12268550D01*
X4605242Y-12268550D01*
X4586195Y-12278074D01*
X4576671Y-12287598D01*
X4567147Y-12306646D01*
X4567147Y-12344741D01*
X4576671Y-12363788D01*
X4586195Y-12373312D01*
X4605242Y-12382836D01*
X4643337Y-12382836D01*
X4662385Y-12373312D01*
X4671909Y-12363788D01*
X4681433Y-12344741D01*
X4681433Y-12306646D01*
X4671909Y-12287598D01*
X4662385Y-12278074D01*
X4643337Y-12268550D01*
X4852861Y-12249503D02*
X4852861Y-12382836D01*
X4805242Y-12173312D02*
X4757623Y-12316169D01*
X4881433Y-12316169D01*
X4938576Y-12182836D02*
X5062385Y-12182836D01*
X4995718Y-12259027D01*
X5024290Y-12259027D01*
X5043337Y-12268550D01*
X5052861Y-12278074D01*
X5062385Y-12297122D01*
X5062385Y-12344741D01*
X5052861Y-12363788D01*
X5043337Y-12373312D01*
X5024290Y-12382836D01*
X4967147Y-12382836D01*
X4948099Y-12373312D01*
X4938576Y-12363788D01*
X5138576Y-12182836D02*
X5138576Y-12220931D01*
X5214766Y-12182836D02*
X5214766Y-12220931D01*
X5510004Y-12459027D02*
X5500480Y-12449503D01*
X5481433Y-12420931D01*
X5471909Y-12401884D01*
X5462385Y-12373312D01*
X5452861Y-12325693D01*
X5452861Y-12287598D01*
X5462385Y-12239979D01*
X5471909Y-12211408D01*
X5481433Y-12192360D01*
X5500480Y-12163788D01*
X5510004Y-12154265D01*
X5690956Y-12382836D02*
X5576671Y-12382836D01*
X5633814Y-12382836D02*
X5633814Y-12182836D01*
X5614766Y-12211408D01*
X5595718Y-12230455D01*
X5576671Y-12239979D01*
X5929052Y-12382836D02*
X5929052Y-12182836D01*
X6014766Y-12382836D02*
X6014766Y-12278074D01*
X6005242Y-12259027D01*
X5986195Y-12249503D01*
X5957623Y-12249503D01*
X5938575Y-12259027D01*
X5929052Y-12268550D01*
X6138575Y-12382836D02*
X6119528Y-12373312D01*
X6110004Y-12363788D01*
X6100480Y-12344741D01*
X6100480Y-12287598D01*
X6110004Y-12268550D01*
X6119528Y-12259027D01*
X6138575Y-12249503D01*
X6167147Y-12249503D01*
X6186195Y-12259027D01*
X6195718Y-12268550D01*
X6205242Y-12287598D01*
X6205242Y-12344741D01*
X6195718Y-12363788D01*
X6186195Y-12373312D01*
X6167147Y-12382836D01*
X6138575Y-12382836D01*
X6319528Y-12382836D02*
X6300480Y-12373312D01*
X6290956Y-12354265D01*
X6290956Y-12182836D01*
X6471909Y-12373312D02*
X6452861Y-12382836D01*
X6414766Y-12382836D01*
X6395718Y-12373312D01*
X6386195Y-12354265D01*
X6386195Y-12278074D01*
X6395718Y-12259027D01*
X6414766Y-12249503D01*
X6452861Y-12249503D01*
X6471909Y-12259027D01*
X6481433Y-12278074D01*
X6481433Y-12297122D01*
X6386195Y-12316169D01*
X6548099Y-12459027D02*
X6557623Y-12449503D01*
X6576671Y-12420931D01*
X6586195Y-12401884D01*
X6595718Y-12373312D01*
X6605242Y-12325693D01*
X6605242Y-12287598D01*
X6595718Y-12239979D01*
X6586195Y-12211408D01*
X6576671Y-12192360D01*
X6557623Y-12163788D01*
X6548099Y-12154265D01*
M02*
