%TF.GenerationSoftware,KiCad,Pcbnew,(6.0.0)*%
%TF.CreationDate,2022-01-20T15:09:40+01:00*%
%TF.ProjectId,AlimentatoreDaBancoExATX,416c696d-656e-4746-9174-6f7265446142,rev?*%
%TF.SameCoordinates,Original*%
%TF.FileFunction,Soldermask,Bot*%
%TF.FilePolarity,Negative*%
%FSLAX46Y46*%
G04 Gerber Fmt 4.6, Leading zero omitted, Abs format (unit mm)*
G04 Created by KiCad (PCBNEW (6.0.0)) date 2022-01-20 15:09:40*
%MOMM*%
%LPD*%
G01*
G04 APERTURE LIST*
G04 Aperture macros list*
%AMRoundRect*
0 Rectangle with rounded corners*
0 $1 Rounding radius*
0 $2 $3 $4 $5 $6 $7 $8 $9 X,Y pos of 4 corners*
0 Add a 4 corners polygon primitive as box body*
4,1,4,$2,$3,$4,$5,$6,$7,$8,$9,$2,$3,0*
0 Add four circle primitives for the rounded corners*
1,1,$1+$1,$2,$3*
1,1,$1+$1,$4,$5*
1,1,$1+$1,$6,$7*
1,1,$1+$1,$8,$9*
0 Add four rect primitives between the rounded corners*
20,1,$1+$1,$2,$3,$4,$5,0*
20,1,$1+$1,$4,$5,$6,$7,0*
20,1,$1+$1,$6,$7,$8,$9,0*
20,1,$1+$1,$8,$9,$2,$3,0*%
%AMFreePoly0*
4,1,22,0.550000,-0.750000,0.000000,-0.750000,0.000000,-0.745033,-0.079941,-0.743568,-0.215256,-0.701293,-0.333266,-0.622738,-0.424486,-0.514219,-0.481581,-0.384460,-0.499164,-0.250000,-0.500000,-0.250000,-0.500000,0.250000,-0.499164,0.250000,-0.499963,0.256109,-0.478152,0.396186,-0.417904,0.524511,-0.324060,0.630769,-0.204165,0.706417,-0.067858,0.745374,0.000000,0.744959,0.000000,0.750000,
0.550000,0.750000,0.550000,-0.750000,0.550000,-0.750000,$1*%
%AMFreePoly1*
4,1,20,0.000000,0.744959,0.073905,0.744508,0.209726,0.703889,0.328688,0.626782,0.421226,0.519385,0.479903,0.390333,0.500000,0.250000,0.500000,-0.250000,0.499851,-0.262216,0.476331,-0.402017,0.414519,-0.529596,0.319384,-0.634700,0.198574,-0.708877,0.061801,-0.746166,0.000000,-0.745033,0.000000,-0.750000,-0.550000,-0.750000,-0.550000,0.750000,0.000000,0.750000,0.000000,0.744959,
0.000000,0.744959,$1*%
%AMFreePoly2*
4,1,18,-1.143000,0.320000,-1.136910,0.350615,-1.119569,0.376569,-1.093615,0.393910,-1.063000,0.400000,1.063000,0.400000,1.093615,0.393910,1.119569,0.376569,1.136910,0.350615,1.143000,0.320000,1.143000,-0.320000,1.136910,-0.350615,1.119569,-0.376569,1.093615,-0.393910,1.063000,-0.400000,-0.983000,-0.400000,-1.143000,-0.240000,-1.143000,0.320000,-1.143000,0.320000,$1*%
G04 Aperture macros list end*
%ADD10C,1.524000*%
%ADD11R,1.524000X1.524000*%
%ADD12O,1.524000X1.800000*%
%ADD13R,1.800000X1.800000*%
%ADD14C,1.800000*%
%ADD15C,27.000000*%
%ADD16C,2.500000*%
%ADD17R,1.700000X1.700000*%
%ADD18O,1.700000X1.700000*%
%ADD19C,1.500000*%
%ADD20RoundRect,0.137500X-0.137500X0.662500X-0.137500X-0.662500X0.137500X-0.662500X0.137500X0.662500X0*%
%ADD21RoundRect,0.250000X-0.312500X-0.625000X0.312500X-0.625000X0.312500X0.625000X-0.312500X0.625000X0*%
%ADD22FreePoly0,90.000000*%
%ADD23R,1.500000X1.000000*%
%ADD24FreePoly1,90.000000*%
%ADD25R,1.600000X1.600000*%
%ADD26O,1.600000X1.600000*%
%ADD27RoundRect,0.250000X0.650000X-0.325000X0.650000X0.325000X-0.650000X0.325000X-0.650000X-0.325000X0*%
%ADD28RoundRect,0.250000X-0.625000X0.312500X-0.625000X-0.312500X0.625000X-0.312500X0.625000X0.312500X0*%
%ADD29R,1.500000X2.000000*%
%ADD30R,3.800000X2.000000*%
%ADD31R,1.500000X1.500000*%
%ADD32R,1.600000X2.400000*%
%ADD33O,1.600000X2.400000*%
%ADD34RoundRect,0.250000X-0.325000X-0.650000X0.325000X-0.650000X0.325000X0.650000X-0.325000X0.650000X0*%
%ADD35RoundRect,0.250000X-0.700000X0.275000X-0.700000X-0.275000X0.700000X-0.275000X0.700000X0.275000X0*%
%ADD36RoundRect,0.250000X-0.650000X0.325000X-0.650000X-0.325000X0.650000X-0.325000X0.650000X0.325000X0*%
%ADD37FreePoly2,0.000000*%
%ADD38RoundRect,0.080000X-1.063000X-0.320000X1.063000X-0.320000X1.063000X0.320000X-1.063000X0.320000X0*%
%ADD39C,1.600000*%
%ADD40RoundRect,0.250000X0.312500X0.625000X-0.312500X0.625000X-0.312500X-0.625000X0.312500X-0.625000X0*%
G04 APERTURE END LIST*
%TO.C,QR*%
G36*
X220803000Y-80187000D02*
G01*
X207503000Y-80187000D01*
X207503000Y-93487000D01*
X220803000Y-93487000D01*
X220803000Y-80187000D01*
G37*
%TD*%
D10*
%TO.C,SW2*%
X156864200Y-83896200D03*
X156864200Y-86436200D03*
X156864200Y-88976200D03*
X161944200Y-83896200D03*
X161944200Y-86436200D03*
X161944200Y-88976200D03*
%TD*%
D11*
%TO.C,OLED1*%
X123335500Y-73431400D03*
D12*
X125875500Y-73431400D03*
X128415500Y-73431400D03*
X130955500Y-73431400D03*
X133495500Y-73431400D03*
X136035500Y-73431400D03*
X138575500Y-73431400D03*
X141115500Y-73431400D03*
X143655500Y-73431400D03*
X146195500Y-73431400D03*
X189375500Y-73431400D03*
X191915500Y-73431400D03*
X194455500Y-73431400D03*
X196995500Y-73431400D03*
X199535500Y-73431400D03*
X202075500Y-73431400D03*
X204615500Y-73431400D03*
X207155500Y-73431400D03*
X209695500Y-73431400D03*
X212235500Y-73431400D03*
%TD*%
D13*
%TO.C,D1*%
X266760500Y-56020600D03*
D14*
X269300500Y-56020600D03*
%TD*%
D10*
%TO.C,SW1*%
X142332300Y-83896200D03*
X142332300Y-86436200D03*
X142332300Y-88976200D03*
X147412300Y-83896200D03*
X147412300Y-86436200D03*
X147412300Y-88976200D03*
%TD*%
D11*
%TO.C,U2*%
X243941600Y-84912200D03*
D12*
X241579400Y-85064600D03*
X239039400Y-85090000D03*
X236499400Y-85090000D03*
X233959400Y-85090000D03*
D15*
X236474000Y-69850000D03*
D16*
X228879400Y-85090000D03*
%TD*%
D10*
%TO.C,SW3*%
X171396100Y-83896200D03*
X171396100Y-86436200D03*
X171396100Y-88976200D03*
X176476100Y-83896200D03*
X176476100Y-86436200D03*
X176476100Y-88976200D03*
%TD*%
D17*
%TO.C,240VAC Switch*%
X259334000Y-81788000D03*
D18*
X259334000Y-79248000D03*
%TD*%
D10*
%TO.C,SW4*%
X185928000Y-83896200D03*
X185928000Y-86436200D03*
X185928000Y-88976200D03*
X191008000Y-83896200D03*
X191008000Y-86436200D03*
X191008000Y-88976200D03*
%TD*%
D17*
%TO.C,J240VACPower*%
X223012000Y-48768000D03*
D18*
X223012000Y-51308000D03*
%TD*%
D11*
%TO.C,OLED2*%
X29122500Y-73431400D03*
D12*
X31662500Y-73431400D03*
X34202500Y-73431400D03*
X36742500Y-73431400D03*
X39282500Y-73431400D03*
X41822500Y-73431400D03*
X44362500Y-73431400D03*
X46902500Y-73431400D03*
X49442500Y-73431400D03*
X51982500Y-73431400D03*
X95162500Y-73431400D03*
X97702500Y-73431400D03*
X100242500Y-73431400D03*
X102782500Y-73431400D03*
X105322500Y-73431400D03*
X107862500Y-73431400D03*
X110402500Y-73431400D03*
X112942500Y-73431400D03*
X115482500Y-73431400D03*
X118022500Y-73431400D03*
%TD*%
D19*
%TO.C,Up1*%
X162705500Y-70967600D03*
%TD*%
%TO.C,TP7*%
X97729300Y-49225200D03*
%TD*%
D20*
%TO.C,U1*%
X104841300Y-61215200D03*
X106111300Y-61215200D03*
X107381300Y-61215200D03*
X108651300Y-61215200D03*
X109921300Y-61215200D03*
X111191300Y-61215200D03*
X112461300Y-61215200D03*
X113731300Y-61215200D03*
X113731300Y-67715200D03*
X112461300Y-67715200D03*
X111191300Y-67715200D03*
X109921300Y-67715200D03*
X108651300Y-67715200D03*
X107381300Y-67715200D03*
X106111300Y-67715200D03*
X104841300Y-67715200D03*
%TD*%
D21*
%TO.C,R2*%
X95697300Y-53035200D03*
X98622300Y-53035200D03*
%TD*%
D19*
%TO.C,Up3*%
X157625500Y-70967600D03*
%TD*%
%TO.C,TP3*%
X112969300Y-49225200D03*
%TD*%
D22*
%TO.C,JP2*%
X97729300Y-68305200D03*
D23*
X97729300Y-67005200D03*
D24*
X97729300Y-65705200D03*
%TD*%
D25*
%TO.C,RN1*%
X123129300Y-54305200D03*
D26*
X120589300Y-54305200D03*
X118049300Y-54305200D03*
X115509300Y-54305200D03*
X112969300Y-54305200D03*
X110429300Y-54305200D03*
X107889300Y-54305200D03*
X105349300Y-54305200D03*
X102809300Y-54305200D03*
%TD*%
D19*
%TO.C,TP6*%
X101539300Y-49225200D03*
%TD*%
%TO.C,TP4*%
X109159300Y-49225200D03*
%TD*%
D27*
%TO.C,C1*%
X128440900Y-69242200D03*
X128440900Y-66292200D03*
%TD*%
D19*
%TO.C,SWDIO1*%
X57912000Y-73304400D03*
%TD*%
D28*
%TO.C,R9*%
X41903100Y-66304700D03*
X41903100Y-69229700D03*
%TD*%
D21*
%TO.C,R3*%
X95697300Y-60655200D03*
X98622300Y-60655200D03*
%TD*%
D17*
%TO.C,J1*%
X43681100Y-49479200D03*
D18*
X46221100Y-49479200D03*
X48761100Y-49479200D03*
X51301100Y-49479200D03*
X53841100Y-49479200D03*
X56381100Y-49479200D03*
%TD*%
D22*
%TO.C,JP3*%
X95189300Y-68275200D03*
D23*
X95189300Y-66975200D03*
D24*
X95189300Y-65675200D03*
%TD*%
D19*
%TO.C,TP5*%
X105349300Y-49225200D03*
%TD*%
D29*
%TO.C,U4*%
X163945600Y-61265600D03*
D30*
X161645600Y-54965600D03*
D29*
X161645600Y-61265600D03*
X159345600Y-61265600D03*
%TD*%
D22*
%TO.C,JP1*%
X100269300Y-68305200D03*
D23*
X100269300Y-67005200D03*
D24*
X100269300Y-65705200D03*
%TD*%
D19*
%TO.C,TP1*%
X120589300Y-49225200D03*
%TD*%
D21*
%TO.C,R1*%
X95697300Y-56845200D03*
X98622300Y-56845200D03*
%TD*%
D31*
%TO.C,PS1*%
X213693900Y-55318400D03*
D19*
X213693900Y-61318400D03*
X180093900Y-49318400D03*
X180093900Y-67318400D03*
%TD*%
D28*
%TO.C,R7*%
X44468500Y-66304700D03*
X44468500Y-69229700D03*
%TD*%
D32*
%TO.C,SW5*%
X85892800Y-71369000D03*
D33*
X83352800Y-71369000D03*
X80812800Y-71369000D03*
X78272800Y-71369000D03*
X78272800Y-61209000D03*
X80812800Y-61209000D03*
X83352800Y-61209000D03*
X85892800Y-61209000D03*
%TD*%
D17*
%TO.C,J2*%
X78917800Y-49606200D03*
D18*
X81457800Y-49606200D03*
X83997800Y-49606200D03*
X86537800Y-49606200D03*
%TD*%
D34*
%TO.C,C5*%
X160221400Y-65684400D03*
X163171400Y-65684400D03*
%TD*%
D17*
%TO.C,J7*%
X32156400Y-49530000D03*
D18*
X32156400Y-52070000D03*
X32156400Y-54610000D03*
X32156400Y-57150000D03*
%TD*%
D19*
%TO.C,TP2*%
X116779300Y-49225200D03*
%TD*%
D35*
%TO.C,L1*%
X34105300Y-66192200D03*
X34105300Y-69342200D03*
%TD*%
D19*
%TO.C,Up2*%
X160165500Y-73507600D03*
%TD*%
D25*
%TO.C,RN2*%
X176631600Y-78689200D03*
D26*
X174091600Y-78689200D03*
X171551600Y-78689200D03*
X169011600Y-78689200D03*
X166471600Y-78689200D03*
X163931600Y-78689200D03*
X161391600Y-78689200D03*
X158851600Y-78689200D03*
X156311600Y-78689200D03*
%TD*%
D36*
%TO.C,C9*%
X123952000Y-57912000D03*
X123952000Y-60862000D03*
%TD*%
D37*
%TO.C,BT1*%
X56629300Y-64516000D03*
D38*
X56629300Y-63246000D03*
X56629300Y-61976000D03*
X56629300Y-60706000D03*
X56629300Y-59436000D03*
X56629300Y-58166000D03*
X56629300Y-56896000D03*
X56629300Y-55626000D03*
X56629300Y-54356000D03*
X69456300Y-54356000D03*
X69456300Y-55626000D03*
X69456300Y-56896000D03*
X69456300Y-58166000D03*
X69456300Y-59436000D03*
X69456300Y-60706000D03*
X69456300Y-61976000D03*
X69456300Y-63246000D03*
X69456300Y-64516000D03*
%TD*%
D36*
%TO.C,C3*%
X36797700Y-66292200D03*
X36797700Y-69242200D03*
%TD*%
D28*
%TO.C,R8*%
X39439300Y-66304700D03*
X39439300Y-69229700D03*
%TD*%
D29*
%TO.C,U3*%
X144082800Y-61316400D03*
X141782800Y-61316400D03*
D30*
X141782800Y-55016400D03*
D29*
X139482800Y-61316400D03*
%TD*%
D19*
%TO.C,Up0*%
X165245500Y-73507600D03*
%TD*%
D17*
%TO.C,J4*%
X64211200Y-49530000D03*
D18*
X66751200Y-49530000D03*
X69291200Y-49530000D03*
X71831200Y-49530000D03*
%TD*%
D17*
%TO.C,J3*%
X143256000Y-93878400D03*
D18*
X145796000Y-93878400D03*
X148336000Y-93878400D03*
X150876000Y-93878400D03*
X153416000Y-93878400D03*
X155956000Y-93878400D03*
%TD*%
D19*
%TO.C,TP8*%
X91633300Y-56845200D03*
%TD*%
%TO.C,TP9*%
X91633300Y-53035200D03*
%TD*%
D27*
%TO.C,C2*%
X200660000Y-80215000D03*
X200660000Y-77265000D03*
%TD*%
D25*
%TO.C,C4*%
X171500800Y-55524400D03*
D39*
X171500800Y-60524400D03*
%TD*%
D40*
%TO.C,R4*%
X269432500Y-60960000D03*
X266507500Y-60960000D03*
%TD*%
D28*
%TO.C,R5*%
X133368500Y-66304700D03*
X133368500Y-69229700D03*
%TD*%
D25*
%TO.C,C7*%
X131673600Y-55524400D03*
D39*
X131673600Y-60524400D03*
%TD*%
D34*
%TO.C,C6*%
X140204400Y-65684400D03*
X143154400Y-65684400D03*
%TD*%
D19*
%TO.C,TP10*%
X91633300Y-60655200D03*
%TD*%
%TO.C,TP0*%
X124399300Y-49225200D03*
%TD*%
D25*
%TO.C,C8*%
X151587200Y-55473600D03*
D39*
X151587200Y-60473600D03*
%TD*%
D19*
%TO.C,SWCLOK1*%
X67360800Y-73304400D03*
%TD*%
D28*
%TO.C,R6*%
X135857700Y-66304700D03*
X135857700Y-69229700D03*
%TD*%
M02*
