%TF.GenerationSoftware,KiCad,Pcbnew,(6.0.0)*%
%TF.CreationDate,2022-01-20T15:09:39+01:00*%
%TF.ProjectId,AlimentatoreDaBancoExATX,416c696d-656e-4746-9174-6f7265446142,rev?*%
%TF.SameCoordinates,Original*%
%TF.FileFunction,Legend,Top*%
%TF.FilePolarity,Positive*%
%FSLAX46Y46*%
G04 Gerber Fmt 4.6, Leading zero omitted, Abs format (unit mm)*
G04 Created by KiCad (PCBNEW (6.0.0)) date 2022-01-20 15:09:39*
%MOMM*%
%LPD*%
G01*
G04 APERTURE LIST*
%ADD10C,0.150000*%
%ADD11C,0.120000*%
%ADD12C,0.100000*%
%ADD13C,0.381000*%
%ADD14C,1.270000*%
%ADD15C,1.524000*%
%ADD16R,1.524000X1.524000*%
%ADD17O,1.524000X1.800000*%
%ADD18R,1.800000X1.800000*%
%ADD19C,1.800000*%
%ADD20C,27.000000*%
%ADD21C,2.500000*%
%ADD22R,1.700000X1.700000*%
%ADD23O,1.700000X1.700000*%
%ADD24R,1.600000X1.600000*%
%ADD25O,1.600000X1.600000*%
%ADD26R,1.500000X1.500000*%
%ADD27C,1.500000*%
%ADD28R,1.600000X2.400000*%
%ADD29O,1.600000X2.400000*%
%ADD30C,1.600000*%
G04 APERTURE END LIST*
D10*
%TO.C,SW2*%
X158070866Y-91717761D02*
X158213723Y-91765380D01*
X158451819Y-91765380D01*
X158547057Y-91717761D01*
X158594676Y-91670142D01*
X158642295Y-91574904D01*
X158642295Y-91479666D01*
X158594676Y-91384428D01*
X158547057Y-91336809D01*
X158451819Y-91289190D01*
X158261342Y-91241571D01*
X158166104Y-91193952D01*
X158118485Y-91146333D01*
X158070866Y-91051095D01*
X158070866Y-90955857D01*
X158118485Y-90860619D01*
X158166104Y-90813000D01*
X158261342Y-90765380D01*
X158499438Y-90765380D01*
X158642295Y-90813000D01*
X158975628Y-90765380D02*
X159213723Y-91765380D01*
X159404200Y-91051095D01*
X159594676Y-91765380D01*
X159832771Y-90765380D01*
X160166104Y-90860619D02*
X160213723Y-90813000D01*
X160308961Y-90765380D01*
X160547057Y-90765380D01*
X160642295Y-90813000D01*
X160689914Y-90860619D01*
X160737533Y-90955857D01*
X160737533Y-91051095D01*
X160689914Y-91193952D01*
X160118485Y-91765380D01*
X160737533Y-91765380D01*
X157957938Y-82167361D02*
X158100795Y-82214980D01*
X158338890Y-82214980D01*
X158434128Y-82167361D01*
X158481747Y-82119742D01*
X158529366Y-82024504D01*
X158529366Y-81929266D01*
X158481747Y-81834028D01*
X158434128Y-81786409D01*
X158338890Y-81738790D01*
X158148414Y-81691171D01*
X158053176Y-81643552D01*
X158005557Y-81595933D01*
X157957938Y-81500695D01*
X157957938Y-81405457D01*
X158005557Y-81310219D01*
X158053176Y-81262600D01*
X158148414Y-81214980D01*
X158386509Y-81214980D01*
X158529366Y-81262600D01*
X159338890Y-82167361D02*
X159243652Y-82214980D01*
X159053176Y-82214980D01*
X158957938Y-82167361D01*
X158910319Y-82072123D01*
X158910319Y-81691171D01*
X158957938Y-81595933D01*
X159053176Y-81548314D01*
X159243652Y-81548314D01*
X159338890Y-81595933D01*
X159386509Y-81691171D01*
X159386509Y-81786409D01*
X158910319Y-81881647D01*
X159957938Y-82214980D02*
X159862700Y-82167361D01*
X159815080Y-82072123D01*
X159815080Y-81214980D01*
X160672223Y-81691171D02*
X160338890Y-81691171D01*
X160338890Y-82214980D02*
X160338890Y-81214980D01*
X160815080Y-81214980D01*
%TO.C,OLED1*%
X164517628Y-73950580D02*
X164708104Y-73950580D01*
X164803342Y-73998200D01*
X164898580Y-74093438D01*
X164946200Y-74283914D01*
X164946200Y-74617247D01*
X164898580Y-74807723D01*
X164803342Y-74902961D01*
X164708104Y-74950580D01*
X164517628Y-74950580D01*
X164422390Y-74902961D01*
X164327152Y-74807723D01*
X164279533Y-74617247D01*
X164279533Y-74283914D01*
X164327152Y-74093438D01*
X164422390Y-73998200D01*
X164517628Y-73950580D01*
X165850961Y-74950580D02*
X165374771Y-74950580D01*
X165374771Y-73950580D01*
X166184295Y-74426771D02*
X166517628Y-74426771D01*
X166660485Y-74950580D02*
X166184295Y-74950580D01*
X166184295Y-73950580D01*
X166660485Y-73950580D01*
X167089057Y-74950580D02*
X167089057Y-73950580D01*
X167327152Y-73950580D01*
X167470009Y-73998200D01*
X167565247Y-74093438D01*
X167612866Y-74188676D01*
X167660485Y-74379152D01*
X167660485Y-74522009D01*
X167612866Y-74712485D01*
X167565247Y-74807723D01*
X167470009Y-74902961D01*
X167327152Y-74950580D01*
X167089057Y-74950580D01*
X168612866Y-74950580D02*
X168041438Y-74950580D01*
X168327152Y-74950580D02*
X168327152Y-73950580D01*
X168231914Y-74093438D01*
X168136676Y-74188676D01*
X168041438Y-74236295D01*
X156336204Y-68362580D02*
X156526680Y-68362580D01*
X156621919Y-68410200D01*
X156717157Y-68505438D01*
X156764776Y-68695914D01*
X156764776Y-69029247D01*
X156717157Y-69219723D01*
X156621919Y-69314961D01*
X156526680Y-69362580D01*
X156336204Y-69362580D01*
X156240966Y-69314961D01*
X156145728Y-69219723D01*
X156098109Y-69029247D01*
X156098109Y-68695914D01*
X156145728Y-68505438D01*
X156240966Y-68410200D01*
X156336204Y-68362580D01*
X157145728Y-69314961D02*
X157240966Y-69362580D01*
X157431442Y-69362580D01*
X157526680Y-69314961D01*
X157574300Y-69219723D01*
X157574300Y-69172104D01*
X157526680Y-69076866D01*
X157431442Y-69029247D01*
X157288585Y-69029247D01*
X157193347Y-68981628D01*
X157145728Y-68886390D01*
X157145728Y-68838771D01*
X157193347Y-68743533D01*
X157288585Y-68695914D01*
X157431442Y-68695914D01*
X157526680Y-68743533D01*
X158002871Y-69362580D02*
X158002871Y-68695914D01*
X158002871Y-68886390D02*
X158050490Y-68791152D01*
X158098109Y-68743533D01*
X158193347Y-68695914D01*
X158288585Y-68695914D01*
X159050490Y-69362580D02*
X159050490Y-68838771D01*
X159002871Y-68743533D01*
X158907633Y-68695914D01*
X158717157Y-68695914D01*
X158621919Y-68743533D01*
X159050490Y-69314961D02*
X158955252Y-69362580D01*
X158717157Y-69362580D01*
X158621919Y-69314961D01*
X158574300Y-69219723D01*
X158574300Y-69124485D01*
X158621919Y-69029247D01*
X158717157Y-68981628D01*
X158955252Y-68981628D01*
X159050490Y-68934009D01*
X159526680Y-69362580D02*
X159526680Y-68695914D01*
X159526680Y-68791152D02*
X159574300Y-68743533D01*
X159669538Y-68695914D01*
X159812395Y-68695914D01*
X159907633Y-68743533D01*
X159955252Y-68838771D01*
X159955252Y-69362580D01*
X159955252Y-68838771D02*
X160002871Y-68743533D01*
X160098109Y-68695914D01*
X160240966Y-68695914D01*
X160336204Y-68743533D01*
X160383823Y-68838771D01*
X160383823Y-69362580D01*
X160621919Y-69457819D02*
X161383823Y-69457819D01*
X161621919Y-69362580D02*
X161621919Y-68362580D01*
X162002871Y-68362580D01*
X162098109Y-68410200D01*
X162145728Y-68457819D01*
X162193347Y-68553057D01*
X162193347Y-68695914D01*
X162145728Y-68791152D01*
X162098109Y-68838771D01*
X162002871Y-68886390D01*
X161621919Y-68886390D01*
X162621919Y-69362580D02*
X162621919Y-68695914D01*
X162621919Y-68362580D02*
X162574300Y-68410200D01*
X162621919Y-68457819D01*
X162669538Y-68410200D01*
X162621919Y-68362580D01*
X162621919Y-68457819D01*
X163526680Y-69314961D02*
X163431442Y-69362580D01*
X163240966Y-69362580D01*
X163145728Y-69314961D01*
X163098109Y-69267342D01*
X163050490Y-69172104D01*
X163050490Y-68886390D01*
X163098109Y-68791152D01*
X163145728Y-68743533D01*
X163240966Y-68695914D01*
X163431442Y-68695914D01*
X163526680Y-68743533D01*
X163812395Y-68695914D02*
X164193347Y-68695914D01*
X163955252Y-68362580D02*
X163955252Y-69219723D01*
X164002871Y-69314961D01*
X164098109Y-69362580D01*
X164193347Y-69362580D01*
X164526680Y-69362580D02*
X164526680Y-68695914D01*
X164526680Y-68362580D02*
X164479061Y-68410200D01*
X164526680Y-68457819D01*
X164574300Y-68410200D01*
X164526680Y-68362580D01*
X164526680Y-68457819D01*
X164907633Y-68695914D02*
X165145728Y-69362580D01*
X165383823Y-68695914D01*
X166193347Y-69362580D02*
X166193347Y-68838771D01*
X166145728Y-68743533D01*
X166050490Y-68695914D01*
X165860014Y-68695914D01*
X165764776Y-68743533D01*
X166193347Y-69314961D02*
X166098109Y-69362580D01*
X165860014Y-69362580D01*
X165764776Y-69314961D01*
X165717157Y-69219723D01*
X165717157Y-69124485D01*
X165764776Y-69029247D01*
X165860014Y-68981628D01*
X166098109Y-68981628D01*
X166193347Y-68934009D01*
X166431442Y-69457819D02*
X167193347Y-69457819D01*
X167621919Y-68362580D02*
X167812395Y-68362580D01*
X167907633Y-68410200D01*
X168002871Y-68505438D01*
X168050490Y-68695914D01*
X168050490Y-69029247D01*
X168002871Y-69219723D01*
X167907633Y-69314961D01*
X167812395Y-69362580D01*
X167621919Y-69362580D01*
X167526680Y-69314961D01*
X167431442Y-69219723D01*
X167383823Y-69029247D01*
X167383823Y-68695914D01*
X167431442Y-68505438D01*
X167526680Y-68410200D01*
X167621919Y-68362580D01*
X168955252Y-69362580D02*
X168479061Y-69362580D01*
X168479061Y-68362580D01*
X169288585Y-68838771D02*
X169621919Y-68838771D01*
X169764776Y-69362580D02*
X169288585Y-69362580D01*
X169288585Y-68362580D01*
X169764776Y-68362580D01*
X170193347Y-69362580D02*
X170193347Y-68362580D01*
X170431442Y-68362580D01*
X170574300Y-68410200D01*
X170669538Y-68505438D01*
X170717157Y-68600676D01*
X170764776Y-68791152D01*
X170764776Y-68934009D01*
X170717157Y-69124485D01*
X170669538Y-69219723D01*
X170574300Y-69314961D01*
X170431442Y-69362580D01*
X170193347Y-69362580D01*
X170955252Y-69457819D02*
X171717157Y-69457819D01*
X171907633Y-68457819D02*
X171955252Y-68410200D01*
X172050490Y-68362580D01*
X172288585Y-68362580D01*
X172383823Y-68410200D01*
X172431442Y-68457819D01*
X172479061Y-68553057D01*
X172479061Y-68648295D01*
X172431442Y-68791152D01*
X171860014Y-69362580D01*
X172479061Y-69362580D01*
X173050490Y-68791152D02*
X172955252Y-68743533D01*
X172907633Y-68695914D01*
X172860014Y-68600676D01*
X172860014Y-68553057D01*
X172907633Y-68457819D01*
X172955252Y-68410200D01*
X173050490Y-68362580D01*
X173240966Y-68362580D01*
X173336204Y-68410200D01*
X173383823Y-68457819D01*
X173431442Y-68553057D01*
X173431442Y-68600676D01*
X173383823Y-68695914D01*
X173336204Y-68743533D01*
X173240966Y-68791152D01*
X173050490Y-68791152D01*
X172955252Y-68838771D01*
X172907633Y-68886390D01*
X172860014Y-68981628D01*
X172860014Y-69172104D01*
X172907633Y-69267342D01*
X172955252Y-69314961D01*
X173050490Y-69362580D01*
X173240966Y-69362580D01*
X173336204Y-69314961D01*
X173383823Y-69267342D01*
X173431442Y-69172104D01*
X173431442Y-68981628D01*
X173383823Y-68886390D01*
X173336204Y-68838771D01*
X173240966Y-68791152D01*
X174002871Y-68791152D02*
X173907633Y-68743533D01*
X173860014Y-68695914D01*
X173812395Y-68600676D01*
X173812395Y-68553057D01*
X173860014Y-68457819D01*
X173907633Y-68410200D01*
X174002871Y-68362580D01*
X174193347Y-68362580D01*
X174288585Y-68410200D01*
X174336204Y-68457819D01*
X174383823Y-68553057D01*
X174383823Y-68600676D01*
X174336204Y-68695914D01*
X174288585Y-68743533D01*
X174193347Y-68791152D01*
X174002871Y-68791152D01*
X173907633Y-68838771D01*
X173860014Y-68886390D01*
X173812395Y-68981628D01*
X173812395Y-69172104D01*
X173860014Y-69267342D01*
X173907633Y-69314961D01*
X174002871Y-69362580D01*
X174193347Y-69362580D01*
X174288585Y-69314961D01*
X174336204Y-69267342D01*
X174383823Y-69172104D01*
X174383823Y-68981628D01*
X174336204Y-68886390D01*
X174288585Y-68838771D01*
X174193347Y-68791152D01*
X174717157Y-69362580D02*
X175240966Y-68695914D01*
X174717157Y-68695914D02*
X175240966Y-69362580D01*
X175812395Y-68362580D02*
X175907633Y-68362580D01*
X176002871Y-68410200D01*
X176050490Y-68457819D01*
X176098109Y-68553057D01*
X176145728Y-68743533D01*
X176145728Y-68981628D01*
X176098109Y-69172104D01*
X176050490Y-69267342D01*
X176002871Y-69314961D01*
X175907633Y-69362580D01*
X175812395Y-69362580D01*
X175717157Y-69314961D01*
X175669538Y-69267342D01*
X175621919Y-69172104D01*
X175574300Y-68981628D01*
X175574300Y-68743533D01*
X175621919Y-68553057D01*
X175669538Y-68457819D01*
X175717157Y-68410200D01*
X175812395Y-68362580D01*
X177002871Y-68695914D02*
X177002871Y-69362580D01*
X176764776Y-68314961D02*
X176526680Y-69029247D01*
X177145728Y-69029247D01*
X177669538Y-68791152D02*
X177574300Y-68743533D01*
X177526680Y-68695914D01*
X177479061Y-68600676D01*
X177479061Y-68553057D01*
X177526680Y-68457819D01*
X177574300Y-68410200D01*
X177669538Y-68362580D01*
X177860014Y-68362580D01*
X177955252Y-68410200D01*
X178002871Y-68457819D01*
X178050490Y-68553057D01*
X178050490Y-68600676D01*
X178002871Y-68695914D01*
X177955252Y-68743533D01*
X177860014Y-68791152D01*
X177669538Y-68791152D01*
X177574300Y-68838771D01*
X177526680Y-68886390D01*
X177479061Y-68981628D01*
X177479061Y-69172104D01*
X177526680Y-69267342D01*
X177574300Y-69314961D01*
X177669538Y-69362580D01*
X177860014Y-69362580D01*
X177955252Y-69314961D01*
X178002871Y-69267342D01*
X178050490Y-69172104D01*
X178050490Y-68981628D01*
X178002871Y-68886390D01*
X177955252Y-68838771D01*
X177860014Y-68791152D01*
%TO.C,D1*%
X267292404Y-53512980D02*
X267292404Y-52512980D01*
X267530500Y-52512980D01*
X267673357Y-52560600D01*
X267768595Y-52655838D01*
X267816214Y-52751076D01*
X267863833Y-52941552D01*
X267863833Y-53084409D01*
X267816214Y-53274885D01*
X267768595Y-53370123D01*
X267673357Y-53465361D01*
X267530500Y-53512980D01*
X267292404Y-53512980D01*
X268816214Y-53512980D02*
X268244785Y-53512980D01*
X268530500Y-53512980D02*
X268530500Y-52512980D01*
X268435261Y-52655838D01*
X268340023Y-52751076D01*
X268244785Y-52798695D01*
X267387642Y-59432980D02*
X266911452Y-59432980D01*
X266911452Y-58432980D01*
X267720976Y-58909171D02*
X268054309Y-58909171D01*
X268197166Y-59432980D02*
X267720976Y-59432980D01*
X267720976Y-58432980D01*
X268197166Y-58432980D01*
X268625738Y-59432980D02*
X268625738Y-58432980D01*
X268863833Y-58432980D01*
X269006690Y-58480600D01*
X269101928Y-58575838D01*
X269149547Y-58671076D01*
X269197166Y-58861552D01*
X269197166Y-59004409D01*
X269149547Y-59194885D01*
X269101928Y-59290123D01*
X269006690Y-59385361D01*
X268863833Y-59432980D01*
X268625738Y-59432980D01*
%TO.C,REF240*%
X258223000Y-55824380D02*
X257889666Y-55348190D01*
X257651571Y-55824380D02*
X257651571Y-54824380D01*
X258032523Y-54824380D01*
X258127761Y-54872000D01*
X258175380Y-54919619D01*
X258223000Y-55014857D01*
X258223000Y-55157714D01*
X258175380Y-55252952D01*
X258127761Y-55300571D01*
X258032523Y-55348190D01*
X257651571Y-55348190D01*
X258651571Y-55300571D02*
X258984904Y-55300571D01*
X259127761Y-55824380D02*
X258651571Y-55824380D01*
X258651571Y-54824380D01*
X259127761Y-54824380D01*
X259889666Y-55300571D02*
X259556333Y-55300571D01*
X259556333Y-55824380D02*
X259556333Y-54824380D01*
X260032523Y-54824380D01*
X260365857Y-54919619D02*
X260413476Y-54872000D01*
X260508714Y-54824380D01*
X260746809Y-54824380D01*
X260842047Y-54872000D01*
X260889666Y-54919619D01*
X260937285Y-55014857D01*
X260937285Y-55110095D01*
X260889666Y-55252952D01*
X260318238Y-55824380D01*
X260937285Y-55824380D01*
X261794428Y-55157714D02*
X261794428Y-55824380D01*
X261556333Y-54776761D02*
X261318238Y-55491047D01*
X261937285Y-55491047D01*
X262508714Y-54824380D02*
X262603952Y-54824380D01*
X262699190Y-54872000D01*
X262746809Y-54919619D01*
X262794428Y-55014857D01*
X262842047Y-55205333D01*
X262842047Y-55443428D01*
X262794428Y-55633904D01*
X262746809Y-55729142D01*
X262699190Y-55776761D01*
X262603952Y-55824380D01*
X262508714Y-55824380D01*
X262413476Y-55776761D01*
X262365857Y-55729142D01*
X262318238Y-55633904D01*
X262270619Y-55443428D01*
X262270619Y-55205333D01*
X262318238Y-55014857D01*
X262365857Y-54919619D01*
X262413476Y-54872000D01*
X262508714Y-54824380D01*
X256103761Y-72699619D02*
X256151380Y-72652000D01*
X256246619Y-72604380D01*
X256484714Y-72604380D01*
X256579952Y-72652000D01*
X256627571Y-72699619D01*
X256675190Y-72794857D01*
X256675190Y-72890095D01*
X256627571Y-73032952D01*
X256056142Y-73604380D01*
X256675190Y-73604380D01*
X257532333Y-72937714D02*
X257532333Y-73604380D01*
X257294238Y-72556761D02*
X257056142Y-73271047D01*
X257675190Y-73271047D01*
X258246619Y-72604380D02*
X258341857Y-72604380D01*
X258437095Y-72652000D01*
X258484714Y-72699619D01*
X258532333Y-72794857D01*
X258579952Y-72985333D01*
X258579952Y-73223428D01*
X258532333Y-73413904D01*
X258484714Y-73509142D01*
X258437095Y-73556761D01*
X258341857Y-73604380D01*
X258246619Y-73604380D01*
X258151380Y-73556761D01*
X258103761Y-73509142D01*
X258056142Y-73413904D01*
X258008523Y-73223428D01*
X258008523Y-72985333D01*
X258056142Y-72794857D01*
X258103761Y-72699619D01*
X258151380Y-72652000D01*
X258246619Y-72604380D01*
X258865666Y-72604380D02*
X259199000Y-73604380D01*
X259532333Y-72604380D01*
X259818047Y-73318666D02*
X260294238Y-73318666D01*
X259722809Y-73604380D02*
X260056142Y-72604380D01*
X260389476Y-73604380D01*
X261294238Y-73509142D02*
X261246619Y-73556761D01*
X261103761Y-73604380D01*
X261008523Y-73604380D01*
X260865666Y-73556761D01*
X260770428Y-73461523D01*
X260722809Y-73366285D01*
X260675190Y-73175809D01*
X260675190Y-73032952D01*
X260722809Y-72842476D01*
X260770428Y-72747238D01*
X260865666Y-72652000D01*
X261008523Y-72604380D01*
X261103761Y-72604380D01*
X261246619Y-72652000D01*
X261294238Y-72699619D01*
%TO.C,SW1*%
X143538966Y-91717761D02*
X143681823Y-91765380D01*
X143919919Y-91765380D01*
X144015157Y-91717761D01*
X144062776Y-91670142D01*
X144110395Y-91574904D01*
X144110395Y-91479666D01*
X144062776Y-91384428D01*
X144015157Y-91336809D01*
X143919919Y-91289190D01*
X143729442Y-91241571D01*
X143634204Y-91193952D01*
X143586585Y-91146333D01*
X143538966Y-91051095D01*
X143538966Y-90955857D01*
X143586585Y-90860619D01*
X143634204Y-90813000D01*
X143729442Y-90765380D01*
X143967538Y-90765380D01*
X144110395Y-90813000D01*
X144443728Y-90765380D02*
X144681823Y-91765380D01*
X144872300Y-91051095D01*
X145062776Y-91765380D01*
X145300871Y-90765380D01*
X146205633Y-91765380D02*
X145634204Y-91765380D01*
X145919919Y-91765380D02*
X145919919Y-90765380D01*
X145824680Y-90908238D01*
X145729442Y-91003476D01*
X145634204Y-91051095D01*
X143164133Y-82214980D02*
X143164133Y-81214980D01*
X143497466Y-81929266D01*
X143830800Y-81214980D01*
X143830800Y-82214980D01*
X144449847Y-82214980D02*
X144354609Y-82167361D01*
X144306990Y-82119742D01*
X144259371Y-82024504D01*
X144259371Y-81738790D01*
X144306990Y-81643552D01*
X144354609Y-81595933D01*
X144449847Y-81548314D01*
X144592704Y-81548314D01*
X144687942Y-81595933D01*
X144735561Y-81643552D01*
X144783180Y-81738790D01*
X144783180Y-82024504D01*
X144735561Y-82119742D01*
X144687942Y-82167361D01*
X144592704Y-82214980D01*
X144449847Y-82214980D01*
X145640323Y-82214980D02*
X145640323Y-81214980D01*
X145640323Y-82167361D02*
X145545085Y-82214980D01*
X145354609Y-82214980D01*
X145259371Y-82167361D01*
X145211752Y-82119742D01*
X145164133Y-82024504D01*
X145164133Y-81738790D01*
X145211752Y-81643552D01*
X145259371Y-81595933D01*
X145354609Y-81548314D01*
X145545085Y-81548314D01*
X145640323Y-81595933D01*
X146497466Y-82167361D02*
X146402228Y-82214980D01*
X146211752Y-82214980D01*
X146116514Y-82167361D01*
X146068895Y-82072123D01*
X146068895Y-81691171D01*
X146116514Y-81595933D01*
X146211752Y-81548314D01*
X146402228Y-81548314D01*
X146497466Y-81595933D01*
X146545085Y-81691171D01*
X146545085Y-81786409D01*
X146068895Y-81881647D01*
%TO.C,U2*%
X237235904Y-70897619D02*
X237235904Y-70088095D01*
X237188285Y-69992857D01*
X237140666Y-69945238D01*
X237045428Y-69897619D01*
X236854952Y-69897619D01*
X236759714Y-69945238D01*
X236712095Y-69992857D01*
X236664476Y-70088095D01*
X236664476Y-70897619D01*
X236235904Y-70802380D02*
X236188285Y-70850000D01*
X236093047Y-70897619D01*
X235854952Y-70897619D01*
X235759714Y-70850000D01*
X235712095Y-70802380D01*
X235664476Y-70707142D01*
X235664476Y-70611904D01*
X235712095Y-70469047D01*
X236283523Y-69897619D01*
X235664476Y-69897619D01*
X246212095Y-69397619D02*
X246021619Y-69397619D01*
X245926380Y-69350000D01*
X245831142Y-69254761D01*
X245783523Y-69064285D01*
X245783523Y-68730952D01*
X245831142Y-68540476D01*
X245926380Y-68445238D01*
X246021619Y-68397619D01*
X246212095Y-68397619D01*
X246307333Y-68445238D01*
X246402571Y-68540476D01*
X246450190Y-68730952D01*
X246450190Y-69064285D01*
X246402571Y-69254761D01*
X246307333Y-69350000D01*
X246212095Y-69397619D01*
X245354952Y-69064285D02*
X245354952Y-68064285D01*
X245354952Y-69016666D02*
X245259714Y-69064285D01*
X245069238Y-69064285D01*
X244974000Y-69016666D01*
X244926380Y-68969047D01*
X244878761Y-68873809D01*
X244878761Y-68588095D01*
X244926380Y-68492857D01*
X244974000Y-68445238D01*
X245069238Y-68397619D01*
X245259714Y-68397619D01*
X245354952Y-68445238D01*
X244593047Y-69064285D02*
X244212095Y-69064285D01*
X244450190Y-69397619D02*
X244450190Y-68540476D01*
X244402571Y-68445238D01*
X244307333Y-68397619D01*
X244212095Y-68397619D01*
X243878761Y-68397619D02*
X243878761Y-69064285D01*
X243878761Y-69397619D02*
X243926380Y-69350000D01*
X243878761Y-69302380D01*
X243831142Y-69350000D01*
X243878761Y-69397619D01*
X243878761Y-69302380D01*
X242974000Y-68445238D02*
X243069238Y-68397619D01*
X243259714Y-68397619D01*
X243354952Y-68445238D01*
X243402571Y-68492857D01*
X243450190Y-68588095D01*
X243450190Y-68873809D01*
X243402571Y-68969047D01*
X243354952Y-69016666D01*
X243259714Y-69064285D01*
X243069238Y-69064285D01*
X242974000Y-69016666D01*
X242116857Y-68397619D02*
X242116857Y-68921428D01*
X242164476Y-69016666D01*
X242259714Y-69064285D01*
X242450190Y-69064285D01*
X242545428Y-69016666D01*
X242116857Y-68445238D02*
X242212095Y-68397619D01*
X242450190Y-68397619D01*
X242545428Y-68445238D01*
X242593047Y-68540476D01*
X242593047Y-68635714D01*
X242545428Y-68730952D01*
X242450190Y-68778571D01*
X242212095Y-68778571D01*
X242116857Y-68826190D01*
X241497809Y-68397619D02*
X241593047Y-68445238D01*
X241640666Y-68540476D01*
X241640666Y-69397619D01*
X241354952Y-68302380D02*
X240593047Y-68302380D01*
X239783523Y-68397619D02*
X240116857Y-68873809D01*
X240354952Y-68397619D02*
X240354952Y-69397619D01*
X239974000Y-69397619D01*
X239878761Y-69350000D01*
X239831142Y-69302380D01*
X239783523Y-69207142D01*
X239783523Y-69064285D01*
X239831142Y-68969047D01*
X239878761Y-68921428D01*
X239974000Y-68873809D01*
X240354952Y-68873809D01*
X239212095Y-68397619D02*
X239307333Y-68445238D01*
X239354952Y-68492857D01*
X239402571Y-68588095D01*
X239402571Y-68873809D01*
X239354952Y-68969047D01*
X239307333Y-69016666D01*
X239212095Y-69064285D01*
X239069238Y-69064285D01*
X238974000Y-69016666D01*
X238926380Y-68969047D01*
X238878761Y-68873809D01*
X238878761Y-68588095D01*
X238926380Y-68492857D01*
X238974000Y-68445238D01*
X239069238Y-68397619D01*
X239212095Y-68397619D01*
X238593047Y-69064285D02*
X238212095Y-69064285D01*
X238450190Y-69397619D02*
X238450190Y-68540476D01*
X238402571Y-68445238D01*
X238307333Y-68397619D01*
X238212095Y-68397619D01*
X237450190Y-68397619D02*
X237450190Y-68921428D01*
X237497809Y-69016666D01*
X237593047Y-69064285D01*
X237783523Y-69064285D01*
X237878761Y-69016666D01*
X237450190Y-68445238D02*
X237545428Y-68397619D01*
X237783523Y-68397619D01*
X237878761Y-68445238D01*
X237926380Y-68540476D01*
X237926380Y-68635714D01*
X237878761Y-68730952D01*
X237783523Y-68778571D01*
X237545428Y-68778571D01*
X237450190Y-68826190D01*
X236974000Y-68397619D02*
X236974000Y-69064285D01*
X236974000Y-68873809D02*
X236926380Y-68969047D01*
X236878761Y-69016666D01*
X236783523Y-69064285D01*
X236688285Y-69064285D01*
X236450190Y-69064285D02*
X236212095Y-68397619D01*
X235974000Y-69064285D02*
X236212095Y-68397619D01*
X236307333Y-68159523D01*
X236354952Y-68111904D01*
X236450190Y-68064285D01*
X235831142Y-68302380D02*
X235069238Y-68302380D01*
X234831142Y-68921428D02*
X234497809Y-68921428D01*
X234354952Y-68397619D02*
X234831142Y-68397619D01*
X234831142Y-69397619D01*
X234354952Y-69397619D01*
X233926380Y-69064285D02*
X233926380Y-68397619D01*
X233926380Y-68969047D02*
X233878761Y-69016666D01*
X233783523Y-69064285D01*
X233640666Y-69064285D01*
X233545428Y-69016666D01*
X233497809Y-68921428D01*
X233497809Y-68397619D01*
X232593047Y-68445238D02*
X232688285Y-68397619D01*
X232878761Y-68397619D01*
X232974000Y-68445238D01*
X233021619Y-68492857D01*
X233069238Y-68588095D01*
X233069238Y-68873809D01*
X233021619Y-68969047D01*
X232974000Y-69016666D01*
X232878761Y-69064285D01*
X232688285Y-69064285D01*
X232593047Y-69016666D01*
X232021619Y-68397619D02*
X232116857Y-68445238D01*
X232164476Y-68492857D01*
X232212095Y-68588095D01*
X232212095Y-68873809D01*
X232164476Y-68969047D01*
X232116857Y-69016666D01*
X232021619Y-69064285D01*
X231878761Y-69064285D01*
X231783523Y-69016666D01*
X231735904Y-68969047D01*
X231688285Y-68873809D01*
X231688285Y-68588095D01*
X231735904Y-68492857D01*
X231783523Y-68445238D01*
X231878761Y-68397619D01*
X232021619Y-68397619D01*
X230831142Y-68397619D02*
X230831142Y-69397619D01*
X230831142Y-68445238D02*
X230926380Y-68397619D01*
X231116857Y-68397619D01*
X231212095Y-68445238D01*
X231259714Y-68492857D01*
X231307333Y-68588095D01*
X231307333Y-68873809D01*
X231259714Y-68969047D01*
X231212095Y-69016666D01*
X231116857Y-69064285D01*
X230926380Y-69064285D01*
X230831142Y-69016666D01*
X229974000Y-68445238D02*
X230069238Y-68397619D01*
X230259714Y-68397619D01*
X230354952Y-68445238D01*
X230402571Y-68540476D01*
X230402571Y-68921428D01*
X230354952Y-69016666D01*
X230259714Y-69064285D01*
X230069238Y-69064285D01*
X229974000Y-69016666D01*
X229926380Y-68921428D01*
X229926380Y-68826190D01*
X230402571Y-68730952D01*
X229497809Y-68397619D02*
X229497809Y-69064285D01*
X229497809Y-68873809D02*
X229450190Y-68969047D01*
X229402571Y-69016666D01*
X229307333Y-69064285D01*
X229212095Y-69064285D01*
X229116857Y-68302380D02*
X228354952Y-68302380D01*
X227926380Y-69397619D02*
X227735904Y-69397619D01*
X227640666Y-69350000D01*
X227545428Y-69254761D01*
X227497809Y-69064285D01*
X227497809Y-68730952D01*
X227545428Y-68540476D01*
X227640666Y-68445238D01*
X227735904Y-68397619D01*
X227926380Y-68397619D01*
X228021619Y-68445238D01*
X228116857Y-68540476D01*
X228164476Y-68730952D01*
X228164476Y-69064285D01*
X228116857Y-69254761D01*
X228021619Y-69350000D01*
X227926380Y-69397619D01*
X226497809Y-68492857D02*
X226545428Y-68445238D01*
X226688285Y-68397619D01*
X226783523Y-68397619D01*
X226926380Y-68445238D01*
X227021619Y-68540476D01*
X227069238Y-68635714D01*
X227116857Y-68826190D01*
X227116857Y-68969047D01*
X227069238Y-69159523D01*
X227021619Y-69254761D01*
X226926380Y-69350000D01*
X226783523Y-69397619D01*
X226688285Y-69397619D01*
X226545428Y-69350000D01*
X226497809Y-69302380D01*
%TO.C,SW3*%
X172602766Y-91717761D02*
X172745623Y-91765380D01*
X172983719Y-91765380D01*
X173078957Y-91717761D01*
X173126576Y-91670142D01*
X173174195Y-91574904D01*
X173174195Y-91479666D01*
X173126576Y-91384428D01*
X173078957Y-91336809D01*
X172983719Y-91289190D01*
X172793242Y-91241571D01*
X172698004Y-91193952D01*
X172650385Y-91146333D01*
X172602766Y-91051095D01*
X172602766Y-90955857D01*
X172650385Y-90860619D01*
X172698004Y-90813000D01*
X172793242Y-90765380D01*
X173031338Y-90765380D01*
X173174195Y-90813000D01*
X173507528Y-90765380D02*
X173745623Y-91765380D01*
X173936100Y-91051095D01*
X174126576Y-91765380D01*
X174364671Y-90765380D01*
X174650385Y-90765380D02*
X175269433Y-90765380D01*
X174936100Y-91146333D01*
X175078957Y-91146333D01*
X175174195Y-91193952D01*
X175221814Y-91241571D01*
X175269433Y-91336809D01*
X175269433Y-91574904D01*
X175221814Y-91670142D01*
X175174195Y-91717761D01*
X175078957Y-91765380D01*
X174793242Y-91765380D01*
X174698004Y-91717761D01*
X174650385Y-91670142D01*
X172442219Y-82214980D02*
X172442219Y-81214980D01*
X172680314Y-81214980D01*
X172823171Y-81262600D01*
X172918409Y-81357838D01*
X172966028Y-81453076D01*
X173013647Y-81643552D01*
X173013647Y-81786409D01*
X172966028Y-81976885D01*
X172918409Y-82072123D01*
X172823171Y-82167361D01*
X172680314Y-82214980D01*
X172442219Y-82214980D01*
X173823171Y-82167361D02*
X173727933Y-82214980D01*
X173537457Y-82214980D01*
X173442219Y-82167361D01*
X173394600Y-82072123D01*
X173394600Y-81691171D01*
X173442219Y-81595933D01*
X173537457Y-81548314D01*
X173727933Y-81548314D01*
X173823171Y-81595933D01*
X173870790Y-81691171D01*
X173870790Y-81786409D01*
X173394600Y-81881647D01*
X174156504Y-81548314D02*
X174537457Y-81548314D01*
X174299361Y-82214980D02*
X174299361Y-81357838D01*
X174346980Y-81262600D01*
X174442219Y-81214980D01*
X174537457Y-81214980D01*
X175394600Y-82214980D02*
X174823171Y-82214980D01*
X175108885Y-82214980D02*
X175108885Y-81214980D01*
X175013647Y-81357838D01*
X174918409Y-81453076D01*
X174823171Y-81500695D01*
%TO.C,240VAC Switch*%
X255833619Y-86051352D02*
X255786000Y-86003733D01*
X255738380Y-85908495D01*
X255738380Y-85670400D01*
X255786000Y-85575161D01*
X255833619Y-85527542D01*
X255928857Y-85479923D01*
X256024095Y-85479923D01*
X256166952Y-85527542D01*
X256738380Y-86098971D01*
X256738380Y-85479923D01*
X256071714Y-84622780D02*
X256738380Y-84622780D01*
X255690761Y-84860876D02*
X256405047Y-85098971D01*
X256405047Y-84479923D01*
X255738380Y-83908495D02*
X255738380Y-83813257D01*
X255786000Y-83718019D01*
X255833619Y-83670400D01*
X255928857Y-83622780D01*
X256119333Y-83575161D01*
X256357428Y-83575161D01*
X256547904Y-83622780D01*
X256643142Y-83670400D01*
X256690761Y-83718019D01*
X256738380Y-83813257D01*
X256738380Y-83908495D01*
X256690761Y-84003733D01*
X256643142Y-84051352D01*
X256547904Y-84098971D01*
X256357428Y-84146590D01*
X256119333Y-84146590D01*
X255928857Y-84098971D01*
X255833619Y-84051352D01*
X255786000Y-84003733D01*
X255738380Y-83908495D01*
X255738380Y-83289447D02*
X256738380Y-82956114D01*
X255738380Y-82622780D01*
X256452666Y-82337066D02*
X256452666Y-81860876D01*
X256738380Y-82432304D02*
X255738380Y-82098971D01*
X256738380Y-81765638D01*
X256643142Y-80860876D02*
X256690761Y-80908495D01*
X256738380Y-81051352D01*
X256738380Y-81146590D01*
X256690761Y-81289447D01*
X256595523Y-81384685D01*
X256500285Y-81432304D01*
X256309809Y-81479923D01*
X256166952Y-81479923D01*
X255976476Y-81432304D01*
X255881238Y-81384685D01*
X255786000Y-81289447D01*
X255738380Y-81146590D01*
X255738380Y-81051352D01*
X255786000Y-80908495D01*
X255833619Y-80860876D01*
X256690761Y-79718019D02*
X256738380Y-79575161D01*
X256738380Y-79337066D01*
X256690761Y-79241828D01*
X256643142Y-79194209D01*
X256547904Y-79146590D01*
X256452666Y-79146590D01*
X256357428Y-79194209D01*
X256309809Y-79241828D01*
X256262190Y-79337066D01*
X256214571Y-79527542D01*
X256166952Y-79622780D01*
X256119333Y-79670400D01*
X256024095Y-79718019D01*
X255928857Y-79718019D01*
X255833619Y-79670400D01*
X255786000Y-79622780D01*
X255738380Y-79527542D01*
X255738380Y-79289447D01*
X255786000Y-79146590D01*
X256071714Y-78813257D02*
X256738380Y-78622780D01*
X256262190Y-78432304D01*
X256738380Y-78241828D01*
X256071714Y-78051352D01*
X256738380Y-77670400D02*
X256071714Y-77670400D01*
X255738380Y-77670400D02*
X255786000Y-77718019D01*
X255833619Y-77670400D01*
X255786000Y-77622780D01*
X255738380Y-77670400D01*
X255833619Y-77670400D01*
X256071714Y-77337066D02*
X256071714Y-76956114D01*
X255738380Y-77194209D02*
X256595523Y-77194209D01*
X256690761Y-77146590D01*
X256738380Y-77051352D01*
X256738380Y-76956114D01*
X256690761Y-76194209D02*
X256738380Y-76289447D01*
X256738380Y-76479923D01*
X256690761Y-76575161D01*
X256643142Y-76622780D01*
X256547904Y-76670400D01*
X256262190Y-76670400D01*
X256166952Y-76622780D01*
X256119333Y-76575161D01*
X256071714Y-76479923D01*
X256071714Y-76289447D01*
X256119333Y-76194209D01*
X256738380Y-75765638D02*
X255738380Y-75765638D01*
X256738380Y-75337066D02*
X256214571Y-75337066D01*
X256119333Y-75384685D01*
X256071714Y-75479923D01*
X256071714Y-75622780D01*
X256119333Y-75718019D01*
X256166952Y-75765638D01*
%TO.C,SW4*%
X187134666Y-91717761D02*
X187277523Y-91765380D01*
X187515619Y-91765380D01*
X187610857Y-91717761D01*
X187658476Y-91670142D01*
X187706095Y-91574904D01*
X187706095Y-91479666D01*
X187658476Y-91384428D01*
X187610857Y-91336809D01*
X187515619Y-91289190D01*
X187325142Y-91241571D01*
X187229904Y-91193952D01*
X187182285Y-91146333D01*
X187134666Y-91051095D01*
X187134666Y-90955857D01*
X187182285Y-90860619D01*
X187229904Y-90813000D01*
X187325142Y-90765380D01*
X187563238Y-90765380D01*
X187706095Y-90813000D01*
X188039428Y-90765380D02*
X188277523Y-91765380D01*
X188468000Y-91051095D01*
X188658476Y-91765380D01*
X188896571Y-90765380D01*
X189706095Y-91098714D02*
X189706095Y-91765380D01*
X189468000Y-90717761D02*
X189229904Y-91432047D01*
X189848952Y-91432047D01*
X186974119Y-82214980D02*
X186974119Y-81214980D01*
X187212214Y-81214980D01*
X187355071Y-81262600D01*
X187450309Y-81357838D01*
X187497928Y-81453076D01*
X187545547Y-81643552D01*
X187545547Y-81786409D01*
X187497928Y-81976885D01*
X187450309Y-82072123D01*
X187355071Y-82167361D01*
X187212214Y-82214980D01*
X186974119Y-82214980D01*
X188355071Y-82167361D02*
X188259833Y-82214980D01*
X188069357Y-82214980D01*
X187974119Y-82167361D01*
X187926500Y-82072123D01*
X187926500Y-81691171D01*
X187974119Y-81595933D01*
X188069357Y-81548314D01*
X188259833Y-81548314D01*
X188355071Y-81595933D01*
X188402690Y-81691171D01*
X188402690Y-81786409D01*
X187926500Y-81881647D01*
X188688404Y-81548314D02*
X189069357Y-81548314D01*
X188831261Y-82214980D02*
X188831261Y-81357838D01*
X188878880Y-81262600D01*
X188974119Y-81214980D01*
X189069357Y-81214980D01*
X189355071Y-81310219D02*
X189402690Y-81262600D01*
X189497928Y-81214980D01*
X189736023Y-81214980D01*
X189831261Y-81262600D01*
X189878880Y-81310219D01*
X189926500Y-81405457D01*
X189926500Y-81500695D01*
X189878880Y-81643552D01*
X189307452Y-82214980D01*
X189926500Y-82214980D01*
%TO.C,J240VACPower*%
X219213180Y-57028742D02*
X219927466Y-57028742D01*
X220070323Y-57076361D01*
X220165561Y-57171600D01*
X220213180Y-57314457D01*
X220213180Y-57409695D01*
X219308419Y-56600171D02*
X219260800Y-56552552D01*
X219213180Y-56457314D01*
X219213180Y-56219219D01*
X219260800Y-56123980D01*
X219308419Y-56076361D01*
X219403657Y-56028742D01*
X219498895Y-56028742D01*
X219641752Y-56076361D01*
X220213180Y-56647790D01*
X220213180Y-56028742D01*
X219546514Y-55171600D02*
X220213180Y-55171600D01*
X219165561Y-55409695D02*
X219879847Y-55647790D01*
X219879847Y-55028742D01*
X219213180Y-54457314D02*
X219213180Y-54362076D01*
X219260800Y-54266838D01*
X219308419Y-54219219D01*
X219403657Y-54171600D01*
X219594133Y-54123980D01*
X219832228Y-54123980D01*
X220022704Y-54171600D01*
X220117942Y-54219219D01*
X220165561Y-54266838D01*
X220213180Y-54362076D01*
X220213180Y-54457314D01*
X220165561Y-54552552D01*
X220117942Y-54600171D01*
X220022704Y-54647790D01*
X219832228Y-54695409D01*
X219594133Y-54695409D01*
X219403657Y-54647790D01*
X219308419Y-54600171D01*
X219260800Y-54552552D01*
X219213180Y-54457314D01*
X219213180Y-53838266D02*
X220213180Y-53504933D01*
X219213180Y-53171600D01*
X219927466Y-52885885D02*
X219927466Y-52409695D01*
X220213180Y-52981123D02*
X219213180Y-52647790D01*
X220213180Y-52314457D01*
X220117942Y-51409695D02*
X220165561Y-51457314D01*
X220213180Y-51600171D01*
X220213180Y-51695409D01*
X220165561Y-51838266D01*
X220070323Y-51933504D01*
X219975085Y-51981123D01*
X219784609Y-52028742D01*
X219641752Y-52028742D01*
X219451276Y-51981123D01*
X219356038Y-51933504D01*
X219260800Y-51838266D01*
X219213180Y-51695409D01*
X219213180Y-51600171D01*
X219260800Y-51457314D01*
X219308419Y-51409695D01*
X220213180Y-50981123D02*
X219213180Y-50981123D01*
X219213180Y-50600171D01*
X219260800Y-50504933D01*
X219308419Y-50457314D01*
X219403657Y-50409695D01*
X219546514Y-50409695D01*
X219641752Y-50457314D01*
X219689371Y-50504933D01*
X219736990Y-50600171D01*
X219736990Y-50981123D01*
X220213180Y-49838266D02*
X220165561Y-49933504D01*
X220117942Y-49981123D01*
X220022704Y-50028742D01*
X219736990Y-50028742D01*
X219641752Y-49981123D01*
X219594133Y-49933504D01*
X219546514Y-49838266D01*
X219546514Y-49695409D01*
X219594133Y-49600171D01*
X219641752Y-49552552D01*
X219736990Y-49504933D01*
X220022704Y-49504933D01*
X220117942Y-49552552D01*
X220165561Y-49600171D01*
X220213180Y-49695409D01*
X220213180Y-49838266D01*
X219546514Y-49171600D02*
X220213180Y-48981123D01*
X219736990Y-48790647D01*
X220213180Y-48600171D01*
X219546514Y-48409695D01*
X220165561Y-47647790D02*
X220213180Y-47743028D01*
X220213180Y-47933504D01*
X220165561Y-48028742D01*
X220070323Y-48076361D01*
X219689371Y-48076361D01*
X219594133Y-48028742D01*
X219546514Y-47933504D01*
X219546514Y-47743028D01*
X219594133Y-47647790D01*
X219689371Y-47600171D01*
X219784609Y-47600171D01*
X219879847Y-48076361D01*
X220213180Y-47171600D02*
X219546514Y-47171600D01*
X219736990Y-47171600D02*
X219641752Y-47123980D01*
X219594133Y-47076361D01*
X219546514Y-46981123D01*
X219546514Y-46885885D01*
%TO.C,OLED2*%
X70283628Y-73950580D02*
X70474104Y-73950580D01*
X70569342Y-73998200D01*
X70664580Y-74093438D01*
X70712200Y-74283914D01*
X70712200Y-74617247D01*
X70664580Y-74807723D01*
X70569342Y-74902961D01*
X70474104Y-74950580D01*
X70283628Y-74950580D01*
X70188390Y-74902961D01*
X70093152Y-74807723D01*
X70045533Y-74617247D01*
X70045533Y-74283914D01*
X70093152Y-74093438D01*
X70188390Y-73998200D01*
X70283628Y-73950580D01*
X71616961Y-74950580D02*
X71140771Y-74950580D01*
X71140771Y-73950580D01*
X71950295Y-74426771D02*
X72283628Y-74426771D01*
X72426485Y-74950580D02*
X71950295Y-74950580D01*
X71950295Y-73950580D01*
X72426485Y-73950580D01*
X72855057Y-74950580D02*
X72855057Y-73950580D01*
X73093152Y-73950580D01*
X73236009Y-73998200D01*
X73331247Y-74093438D01*
X73378866Y-74188676D01*
X73426485Y-74379152D01*
X73426485Y-74522009D01*
X73378866Y-74712485D01*
X73331247Y-74807723D01*
X73236009Y-74902961D01*
X73093152Y-74950580D01*
X72855057Y-74950580D01*
X73807438Y-74045819D02*
X73855057Y-73998200D01*
X73950295Y-73950580D01*
X74188390Y-73950580D01*
X74283628Y-73998200D01*
X74331247Y-74045819D01*
X74378866Y-74141057D01*
X74378866Y-74236295D01*
X74331247Y-74379152D01*
X73759819Y-74950580D01*
X74378866Y-74950580D01*
X62032904Y-68464180D02*
X62223380Y-68464180D01*
X62318619Y-68511800D01*
X62413857Y-68607038D01*
X62461476Y-68797514D01*
X62461476Y-69130847D01*
X62413857Y-69321323D01*
X62318619Y-69416561D01*
X62223380Y-69464180D01*
X62032904Y-69464180D01*
X61937666Y-69416561D01*
X61842428Y-69321323D01*
X61794809Y-69130847D01*
X61794809Y-68797514D01*
X61842428Y-68607038D01*
X61937666Y-68511800D01*
X62032904Y-68464180D01*
X62842428Y-69416561D02*
X62937666Y-69464180D01*
X63128142Y-69464180D01*
X63223380Y-69416561D01*
X63270999Y-69321323D01*
X63270999Y-69273704D01*
X63223380Y-69178466D01*
X63128142Y-69130847D01*
X62985285Y-69130847D01*
X62890047Y-69083228D01*
X62842428Y-68987990D01*
X62842428Y-68940371D01*
X62890047Y-68845133D01*
X62985285Y-68797514D01*
X63128142Y-68797514D01*
X63223380Y-68845133D01*
X63699571Y-69464180D02*
X63699571Y-68797514D01*
X63699571Y-68987990D02*
X63747190Y-68892752D01*
X63794809Y-68845133D01*
X63890047Y-68797514D01*
X63985285Y-68797514D01*
X64747190Y-69464180D02*
X64747190Y-68940371D01*
X64699571Y-68845133D01*
X64604333Y-68797514D01*
X64413857Y-68797514D01*
X64318619Y-68845133D01*
X64747190Y-69416561D02*
X64651952Y-69464180D01*
X64413857Y-69464180D01*
X64318619Y-69416561D01*
X64270999Y-69321323D01*
X64270999Y-69226085D01*
X64318619Y-69130847D01*
X64413857Y-69083228D01*
X64651952Y-69083228D01*
X64747190Y-69035609D01*
X65223380Y-69464180D02*
X65223380Y-68797514D01*
X65223380Y-68892752D02*
X65270999Y-68845133D01*
X65366238Y-68797514D01*
X65509095Y-68797514D01*
X65604333Y-68845133D01*
X65651952Y-68940371D01*
X65651952Y-69464180D01*
X65651952Y-68940371D02*
X65699571Y-68845133D01*
X65794809Y-68797514D01*
X65937666Y-68797514D01*
X66032904Y-68845133D01*
X66080523Y-68940371D01*
X66080523Y-69464180D01*
X66318619Y-69559419D02*
X67080523Y-69559419D01*
X67318619Y-69464180D02*
X67318619Y-68464180D01*
X67699571Y-68464180D01*
X67794809Y-68511800D01*
X67842428Y-68559419D01*
X67890047Y-68654657D01*
X67890047Y-68797514D01*
X67842428Y-68892752D01*
X67794809Y-68940371D01*
X67699571Y-68987990D01*
X67318619Y-68987990D01*
X68318619Y-69464180D02*
X68318619Y-68797514D01*
X68318619Y-68464180D02*
X68271000Y-68511800D01*
X68318619Y-68559419D01*
X68366238Y-68511800D01*
X68318619Y-68464180D01*
X68318619Y-68559419D01*
X69223380Y-69416561D02*
X69128142Y-69464180D01*
X68937666Y-69464180D01*
X68842428Y-69416561D01*
X68794809Y-69368942D01*
X68747190Y-69273704D01*
X68747190Y-68987990D01*
X68794809Y-68892752D01*
X68842428Y-68845133D01*
X68937666Y-68797514D01*
X69128142Y-68797514D01*
X69223380Y-68845133D01*
X69509095Y-68797514D02*
X69890047Y-68797514D01*
X69651952Y-68464180D02*
X69651952Y-69321323D01*
X69699571Y-69416561D01*
X69794809Y-69464180D01*
X69890047Y-69464180D01*
X70223380Y-69464180D02*
X70223380Y-68797514D01*
X70223380Y-68464180D02*
X70175761Y-68511800D01*
X70223380Y-68559419D01*
X70271000Y-68511800D01*
X70223380Y-68464180D01*
X70223380Y-68559419D01*
X70604333Y-68797514D02*
X70842428Y-69464180D01*
X71080523Y-68797514D01*
X71890047Y-69464180D02*
X71890047Y-68940371D01*
X71842428Y-68845133D01*
X71747190Y-68797514D01*
X71556714Y-68797514D01*
X71461476Y-68845133D01*
X71890047Y-69416561D02*
X71794809Y-69464180D01*
X71556714Y-69464180D01*
X71461476Y-69416561D01*
X71413857Y-69321323D01*
X71413857Y-69226085D01*
X71461476Y-69130847D01*
X71556714Y-69083228D01*
X71794809Y-69083228D01*
X71890047Y-69035609D01*
X72128142Y-69559419D02*
X72890047Y-69559419D01*
X73318619Y-68464180D02*
X73509095Y-68464180D01*
X73604333Y-68511800D01*
X73699571Y-68607038D01*
X73747190Y-68797514D01*
X73747190Y-69130847D01*
X73699571Y-69321323D01*
X73604333Y-69416561D01*
X73509095Y-69464180D01*
X73318619Y-69464180D01*
X73223380Y-69416561D01*
X73128142Y-69321323D01*
X73080523Y-69130847D01*
X73080523Y-68797514D01*
X73128142Y-68607038D01*
X73223380Y-68511800D01*
X73318619Y-68464180D01*
X74651952Y-69464180D02*
X74175761Y-69464180D01*
X74175761Y-68464180D01*
X74985285Y-68940371D02*
X75318619Y-68940371D01*
X75461476Y-69464180D02*
X74985285Y-69464180D01*
X74985285Y-68464180D01*
X75461476Y-68464180D01*
X75890047Y-69464180D02*
X75890047Y-68464180D01*
X76128142Y-68464180D01*
X76271000Y-68511800D01*
X76366238Y-68607038D01*
X76413857Y-68702276D01*
X76461476Y-68892752D01*
X76461476Y-69035609D01*
X76413857Y-69226085D01*
X76366238Y-69321323D01*
X76271000Y-69416561D01*
X76128142Y-69464180D01*
X75890047Y-69464180D01*
X76651952Y-69559419D02*
X77413857Y-69559419D01*
X77604333Y-68559419D02*
X77651952Y-68511800D01*
X77747190Y-68464180D01*
X77985285Y-68464180D01*
X78080523Y-68511800D01*
X78128142Y-68559419D01*
X78175761Y-68654657D01*
X78175761Y-68749895D01*
X78128142Y-68892752D01*
X77556714Y-69464180D01*
X78175761Y-69464180D01*
X78747190Y-68892752D02*
X78651952Y-68845133D01*
X78604333Y-68797514D01*
X78556714Y-68702276D01*
X78556714Y-68654657D01*
X78604333Y-68559419D01*
X78651952Y-68511800D01*
X78747190Y-68464180D01*
X78937666Y-68464180D01*
X79032904Y-68511800D01*
X79080523Y-68559419D01*
X79128142Y-68654657D01*
X79128142Y-68702276D01*
X79080523Y-68797514D01*
X79032904Y-68845133D01*
X78937666Y-68892752D01*
X78747190Y-68892752D01*
X78651952Y-68940371D01*
X78604333Y-68987990D01*
X78556714Y-69083228D01*
X78556714Y-69273704D01*
X78604333Y-69368942D01*
X78651952Y-69416561D01*
X78747190Y-69464180D01*
X78937666Y-69464180D01*
X79032904Y-69416561D01*
X79080523Y-69368942D01*
X79128142Y-69273704D01*
X79128142Y-69083228D01*
X79080523Y-68987990D01*
X79032904Y-68940371D01*
X78937666Y-68892752D01*
X79699571Y-68892752D02*
X79604333Y-68845133D01*
X79556714Y-68797514D01*
X79509095Y-68702276D01*
X79509095Y-68654657D01*
X79556714Y-68559419D01*
X79604333Y-68511800D01*
X79699571Y-68464180D01*
X79890047Y-68464180D01*
X79985285Y-68511800D01*
X80032904Y-68559419D01*
X80080523Y-68654657D01*
X80080523Y-68702276D01*
X80032904Y-68797514D01*
X79985285Y-68845133D01*
X79890047Y-68892752D01*
X79699571Y-68892752D01*
X79604333Y-68940371D01*
X79556714Y-68987990D01*
X79509095Y-69083228D01*
X79509095Y-69273704D01*
X79556714Y-69368942D01*
X79604333Y-69416561D01*
X79699571Y-69464180D01*
X79890047Y-69464180D01*
X79985285Y-69416561D01*
X80032904Y-69368942D01*
X80080523Y-69273704D01*
X80080523Y-69083228D01*
X80032904Y-68987990D01*
X79985285Y-68940371D01*
X79890047Y-68892752D01*
X80413857Y-69464180D02*
X80937666Y-68797514D01*
X80413857Y-68797514D02*
X80937666Y-69464180D01*
X81509095Y-68464180D02*
X81604333Y-68464180D01*
X81699571Y-68511800D01*
X81747190Y-68559419D01*
X81794809Y-68654657D01*
X81842428Y-68845133D01*
X81842428Y-69083228D01*
X81794809Y-69273704D01*
X81747190Y-69368942D01*
X81699571Y-69416561D01*
X81604333Y-69464180D01*
X81509095Y-69464180D01*
X81413857Y-69416561D01*
X81366238Y-69368942D01*
X81318619Y-69273704D01*
X81270999Y-69083228D01*
X81270999Y-68845133D01*
X81318619Y-68654657D01*
X81366238Y-68559419D01*
X81413857Y-68511800D01*
X81509095Y-68464180D01*
X82699571Y-68797514D02*
X82699571Y-69464180D01*
X82461476Y-68416561D02*
X82223380Y-69130847D01*
X82842428Y-69130847D01*
X83366238Y-68892752D02*
X83270999Y-68845133D01*
X83223380Y-68797514D01*
X83175761Y-68702276D01*
X83175761Y-68654657D01*
X83223380Y-68559419D01*
X83270999Y-68511800D01*
X83366238Y-68464180D01*
X83556714Y-68464180D01*
X83651952Y-68511800D01*
X83699571Y-68559419D01*
X83747190Y-68654657D01*
X83747190Y-68702276D01*
X83699571Y-68797514D01*
X83651952Y-68845133D01*
X83556714Y-68892752D01*
X83366238Y-68892752D01*
X83270999Y-68940371D01*
X83223380Y-68987990D01*
X83175761Y-69083228D01*
X83175761Y-69273704D01*
X83223380Y-69368942D01*
X83270999Y-69416561D01*
X83366238Y-69464180D01*
X83556714Y-69464180D01*
X83651952Y-69416561D01*
X83699571Y-69368942D01*
X83747190Y-69273704D01*
X83747190Y-69083228D01*
X83699571Y-68987990D01*
X83651952Y-68940371D01*
X83556714Y-68892752D01*
D11*
%TO.C,SW2*%
X162960200Y-89992200D02*
X155848200Y-89992200D01*
X162960200Y-82880200D02*
X162960200Y-89992200D01*
X155848200Y-82880200D02*
X162960200Y-82880200D01*
X155848200Y-89992200D02*
X155848200Y-82880200D01*
%TO.C,OLED1*%
X214267500Y-73431400D02*
X121303500Y-73431400D01*
X126383500Y-63271400D02*
X126383500Y-49555400D01*
X121303500Y-73431400D02*
X121303500Y-46253400D01*
X211473500Y-49555400D02*
X211473500Y-63271400D01*
X214267500Y-46253400D02*
X214267500Y-73431400D01*
X121303500Y-46253400D02*
X214267500Y-46253400D01*
X211473500Y-63271400D02*
X126383500Y-63271400D01*
X126383500Y-49555400D02*
X211473500Y-49555400D01*
%TO.C,D1*%
X266470500Y-57100600D02*
X266470500Y-57256600D01*
X266470500Y-54784600D02*
X266470500Y-54940600D01*
D12*
X266530500Y-54854410D02*
X266530500Y-57186790D01*
D11*
X269702835Y-54941992D02*
G75*
G03*
X266470500Y-54785084I-1672335J-1078609D01*
G01*
X269071630Y-54940763D02*
G75*
G03*
X266989539Y-54940600I-1041130J-1079837D01*
G01*
X266989539Y-57100600D02*
G75*
G03*
X269071630Y-57100437I1040961J1080000D01*
G01*
X266470500Y-57256116D02*
G75*
G03*
X269702835Y-57099208I1560000J1235517D01*
G01*
D12*
X266529945Y-57186076D02*
G75*
G03*
X266530500Y-54854410I1500555J1165476D01*
G01*
X269530500Y-56020600D02*
G75*
G03*
X269530500Y-56020600I-1500000J0D01*
G01*
D13*
%TO.C,REF240*%
X259588000Y-64262000D02*
X261366000Y-62230000D01*
X258826000Y-64643000D02*
X260223000Y-64643000D01*
X259080000Y-66929000D02*
X258953000Y-66421000D01*
X260350000Y-62357000D02*
X258826000Y-64643000D01*
X258953000Y-66421000D02*
X258826000Y-67437000D01*
X261366000Y-62230000D02*
X260604000Y-62738000D01*
X259588000Y-66802000D02*
X259080000Y-67056000D01*
X259080000Y-67056000D02*
X260858000Y-64262000D01*
D14*
X251333000Y-69342000D02*
X260223000Y-57912000D01*
D13*
X260604000Y-62611000D02*
X259207000Y-64516000D01*
X260223000Y-64643000D02*
X259080000Y-66929000D01*
X260858000Y-64262000D02*
X259588000Y-64262000D01*
D14*
X260223000Y-57912000D02*
X269113000Y-69342000D01*
D13*
X258826000Y-67500500D02*
X259588000Y-66865500D01*
D14*
X269113000Y-69342000D02*
X251333000Y-69342000D01*
D13*
X259207000Y-64516000D02*
X260477000Y-64516000D01*
X260604000Y-62738000D02*
X260477000Y-62230000D01*
D11*
%TO.C,SW1*%
X148428300Y-89992200D02*
X141316300Y-89992200D01*
X141316300Y-82880200D02*
X148428300Y-82880200D01*
X141316300Y-89992200D02*
X141316300Y-82880200D01*
X148428300Y-82880200D02*
X148428300Y-89992200D01*
%TO.C,U2*%
X246634000Y-77470000D02*
X246634000Y-87630000D01*
X246634000Y-87630000D02*
X226314000Y-87630000D01*
X226314000Y-87630000D02*
X226314000Y-77470000D01*
%TO.C,SW3*%
X170380100Y-82880200D02*
X177492100Y-82880200D01*
X177492100Y-89992200D02*
X170380100Y-89992200D01*
X170380100Y-89992200D02*
X170380100Y-82880200D01*
X177492100Y-82880200D02*
X177492100Y-89992200D01*
D12*
%TO.C,240VAC Switch*%
X260604000Y-77978000D02*
X260604000Y-83058000D01*
D11*
X260664000Y-80518000D02*
X258004000Y-80518000D01*
X258004000Y-83118000D02*
X258004000Y-81788000D01*
D12*
X260604000Y-83058000D02*
X258699000Y-83058000D01*
D11*
X258004000Y-80518000D02*
X258004000Y-77918000D01*
D12*
X258699000Y-83058000D02*
X258064000Y-82423000D01*
D11*
X260664000Y-80518000D02*
X260664000Y-77918000D01*
D12*
X258064000Y-82423000D02*
X258064000Y-77978000D01*
D11*
X259334000Y-83118000D02*
X258004000Y-83118000D01*
X260664000Y-77918000D02*
X258004000Y-77918000D01*
D12*
X258064000Y-77978000D02*
X260604000Y-77978000D01*
D11*
%TO.C,SW4*%
X184912000Y-89992200D02*
X184912000Y-82880200D01*
X184912000Y-82880200D02*
X192024000Y-82880200D01*
X192024000Y-82880200D02*
X192024000Y-89992200D01*
X192024000Y-89992200D02*
X184912000Y-89992200D01*
D12*
%TO.C,J240VACPower*%
X223647000Y-47498000D02*
X224282000Y-48133000D01*
D11*
X221682000Y-52638000D02*
X224342000Y-52638000D01*
D12*
X224282000Y-48133000D02*
X224282000Y-52578000D01*
X221742000Y-47498000D02*
X223647000Y-47498000D01*
X221742000Y-52578000D02*
X221742000Y-47498000D01*
D11*
X221682000Y-50038000D02*
X224342000Y-50038000D01*
X221682000Y-50038000D02*
X221682000Y-52638000D01*
D12*
X224282000Y-52578000D02*
X221742000Y-52578000D01*
D11*
X224342000Y-47438000D02*
X224342000Y-48768000D01*
X223012000Y-47438000D02*
X224342000Y-47438000D01*
X224342000Y-50038000D02*
X224342000Y-52638000D01*
%TO.C,OLED2*%
X117260500Y-63271400D02*
X32170500Y-63271400D01*
X32170500Y-63271400D02*
X32170500Y-49555400D01*
X120054500Y-73431400D02*
X27090500Y-73431400D01*
X32170500Y-49555400D02*
X117260500Y-49555400D01*
X120054500Y-46253400D02*
X120054500Y-73431400D01*
X27090500Y-46253400D02*
X120054500Y-46253400D01*
X27090500Y-73431400D02*
X27090500Y-46253400D01*
X117260500Y-49555400D02*
X117260500Y-63271400D01*
%TD*%
%LPC*%
D15*
%TO.C,SW2*%
X156864200Y-83896200D03*
X156864200Y-86436200D03*
X156864200Y-88976200D03*
X161944200Y-83896200D03*
X161944200Y-86436200D03*
X161944200Y-88976200D03*
%TD*%
D16*
%TO.C,OLED1*%
X123335500Y-73431400D03*
D17*
X125875500Y-73431400D03*
X128415500Y-73431400D03*
X130955500Y-73431400D03*
X133495500Y-73431400D03*
X136035500Y-73431400D03*
X138575500Y-73431400D03*
X141115500Y-73431400D03*
X143655500Y-73431400D03*
X146195500Y-73431400D03*
X189375500Y-73431400D03*
X191915500Y-73431400D03*
X194455500Y-73431400D03*
X196995500Y-73431400D03*
X199535500Y-73431400D03*
X202075500Y-73431400D03*
X204615500Y-73431400D03*
X207155500Y-73431400D03*
X209695500Y-73431400D03*
X212235500Y-73431400D03*
%TD*%
D18*
%TO.C,D1*%
X266760500Y-56020600D03*
D19*
X269300500Y-56020600D03*
%TD*%
D15*
%TO.C,SW1*%
X142332300Y-83896200D03*
X142332300Y-86436200D03*
X142332300Y-88976200D03*
X147412300Y-83896200D03*
X147412300Y-86436200D03*
X147412300Y-88976200D03*
%TD*%
D16*
%TO.C,U2*%
X243941600Y-84912200D03*
D17*
X241579400Y-85064600D03*
X239039400Y-85090000D03*
X236499400Y-85090000D03*
X233959400Y-85090000D03*
D20*
X236474000Y-69850000D03*
D21*
X228879400Y-85090000D03*
%TD*%
D15*
%TO.C,SW3*%
X171396100Y-83896200D03*
X171396100Y-86436200D03*
X171396100Y-88976200D03*
X176476100Y-83896200D03*
X176476100Y-86436200D03*
X176476100Y-88976200D03*
%TD*%
D22*
%TO.C,240VAC Switch*%
X259334000Y-81788000D03*
D23*
X259334000Y-79248000D03*
%TD*%
D15*
%TO.C,SW4*%
X185928000Y-83896200D03*
X185928000Y-86436200D03*
X185928000Y-88976200D03*
X191008000Y-83896200D03*
X191008000Y-86436200D03*
X191008000Y-88976200D03*
%TD*%
D22*
%TO.C,J240VACPower*%
X223012000Y-48768000D03*
D23*
X223012000Y-51308000D03*
%TD*%
D16*
%TO.C,OLED2*%
X29122500Y-73431400D03*
D17*
X31662500Y-73431400D03*
X34202500Y-73431400D03*
X36742500Y-73431400D03*
X39282500Y-73431400D03*
X41822500Y-73431400D03*
X44362500Y-73431400D03*
X46902500Y-73431400D03*
X49442500Y-73431400D03*
X51982500Y-73431400D03*
X95162500Y-73431400D03*
X97702500Y-73431400D03*
X100242500Y-73431400D03*
X102782500Y-73431400D03*
X105322500Y-73431400D03*
X107862500Y-73431400D03*
X110402500Y-73431400D03*
X112942500Y-73431400D03*
X115482500Y-73431400D03*
X118022500Y-73431400D03*
%TD*%
D24*
%TO.C,RN1*%
X123129300Y-54305200D03*
D25*
X120589300Y-54305200D03*
X118049300Y-54305200D03*
X115509300Y-54305200D03*
X112969300Y-54305200D03*
X110429300Y-54305200D03*
X107889300Y-54305200D03*
X105349300Y-54305200D03*
X102809300Y-54305200D03*
%TD*%
D22*
%TO.C,J1*%
X43681100Y-49479200D03*
D23*
X46221100Y-49479200D03*
X48761100Y-49479200D03*
X51301100Y-49479200D03*
X53841100Y-49479200D03*
X56381100Y-49479200D03*
%TD*%
D26*
%TO.C,PS1*%
X213693900Y-55318400D03*
D27*
X213693900Y-61318400D03*
X180093900Y-49318400D03*
X180093900Y-67318400D03*
%TD*%
D28*
%TO.C,SW5*%
X85892800Y-71369000D03*
D29*
X83352800Y-71369000D03*
X80812800Y-71369000D03*
X78272800Y-71369000D03*
X78272800Y-61209000D03*
X80812800Y-61209000D03*
X83352800Y-61209000D03*
X85892800Y-61209000D03*
%TD*%
D22*
%TO.C,J2*%
X78917800Y-49606200D03*
D23*
X81457800Y-49606200D03*
X83997800Y-49606200D03*
X86537800Y-49606200D03*
%TD*%
D22*
%TO.C,J7*%
X32156400Y-49530000D03*
D23*
X32156400Y-52070000D03*
X32156400Y-54610000D03*
X32156400Y-57150000D03*
%TD*%
D24*
%TO.C,RN2*%
X176631600Y-78689200D03*
D25*
X174091600Y-78689200D03*
X171551600Y-78689200D03*
X169011600Y-78689200D03*
X166471600Y-78689200D03*
X163931600Y-78689200D03*
X161391600Y-78689200D03*
X158851600Y-78689200D03*
X156311600Y-78689200D03*
%TD*%
D22*
%TO.C,J4*%
X64211200Y-49530000D03*
D23*
X66751200Y-49530000D03*
X69291200Y-49530000D03*
X71831200Y-49530000D03*
%TD*%
D22*
%TO.C,J3*%
X143256000Y-93878400D03*
D23*
X145796000Y-93878400D03*
X148336000Y-93878400D03*
X150876000Y-93878400D03*
X153416000Y-93878400D03*
X155956000Y-93878400D03*
%TD*%
D24*
%TO.C,C4*%
X171500800Y-55524400D03*
D30*
X171500800Y-60524400D03*
%TD*%
D24*
%TO.C,C7*%
X131673600Y-55524400D03*
D30*
X131673600Y-60524400D03*
%TD*%
D24*
%TO.C,C8*%
X151587200Y-55473600D03*
D30*
X151587200Y-60473600D03*
%TD*%
M02*
